<?xml version="1.0" encoding="UTF-8" standalone="no"?>
<svg
   xmlns:dc="http://purl.org/dc/elements/1.1/"
   xmlns:cc="http://creativecommons.org/ns#"
   xmlns:rdf="http://www.w3.org/1999/02/22-rdf-syntax-ns#"
   xmlns:svg="http://www.w3.org/2000/svg"
   xmlns="http://www.w3.org/2000/svg"
   xmlns:sodipodi="http://sodipodi.sourceforge.net/DTD/sodipodi-0.dtd"
   xmlns:inkscape="http://www.inkscape.org/namespaces/inkscape"
   viewBox="0 0 801.95868 206.116"
   height="206.116"
   width="801.95868"
   xml:space="preserve"
   id="svg2"
   version="1.1"
   inkscape:version="0.91 r13725"
   sodipodi:docname="060_FAU-Logo.svg"><sodipodi:namedview
     pagecolor="#ffffff"
     bordercolor="#666666"
     borderopacity="1"
     objecttolerance="10"
     gridtolerance="10"
     guidetolerance="10"
     inkscape:pageopacity="0"
     inkscape:pageshadow="2"
     inkscape:window-width="1920"
     inkscape:window-height="1019"
     id="namedview78"
     showgrid="false"
     inkscape:zoom="1.6060678"
     inkscape:cx="371.68832"
     inkscape:cy="84.860192"
     inkscape:window-x="0"
     inkscape:window-y="0"
     inkscape:window-maximized="1"
     inkscape:current-layer="svg2" /><metadata
     id="metadata8"><rdf:RDF><cc:Work
         rdf:about=""><dc:format>image/svg+xml</dc:format><dc:type
           rdf:resource="http://purl.org/dc/dcmitype/StillImage" /></cc:Work></rdf:RDF></metadata><defs
     id="defs6"><clipPath
       id="clipPath18"
       clipPathUnits="userSpaceOnUse"><path
         id="path16"
         d="M 0,154.587 H 601.469 V 0 H 0 Z" /></clipPath></defs><path
     id="path22"
     style="fill:#003366;fill-opacity:1;fill-rule:nonzero;stroke:none"
     d="m 355.48572,166.43107 -89.32,0 c 5.48934,4.59867 11.84,8.048 18.56534,10.444 l 52.13999,0 c 6.748,-2.396 13.11467,-5.84533 18.61467,-10.444"
     inkscape:connector-curvature="0" /><path
     id="path26"
     style="fill:#003366;fill-opacity:1;fill-rule:nonzero;stroke:none"
     d="m 106.9264,161.63547 38.712,0 0.0613,-0.19333 -0.10666,0 3.20533,-10.25067 -38.01867,0 z"
     inkscape:connector-curvature="0" /><path
     id="path30"
     style="fill:#003366;fill-opacity:1;fill-rule:nonzero;stroke:none"
     d="m 105.15293,166.43107 -3.856,10.444 39.44133,0 3.36,-10.444 z"
     inkscape:connector-curvature="0" /><path
     inkscape:connector-curvature="0"
     d="m 62.155998,166.432 -36.963999,0 0,10.444 36.963999,0 z"
     style="fill:#003366;fill-opacity:1;fill-rule:nonzero;stroke:none"
     id="path32" /><path
     inkscape:connector-curvature="0"
     d="m 62.155998,151.19067 -36.963999,0 0,10.444 36.963999,0 z"
     style="fill:#003366;fill-opacity:1;fill-rule:nonzero;stroke:none"
     id="path34" /><path
     inkscape:connector-curvature="0"
     d="m 62.155998,135.948 -36.963999,0 0,10.444 36.963999,0 z"
     style="fill:#003366;fill-opacity:1;fill-rule:nonzero;stroke:none"
     id="path36" /><path
     inkscape:connector-curvature="0"
     d="m 62.155998,120.71334 -36.963999,0 0,10.44133 36.963999,0 z"
     style="fill:#003366;fill-opacity:1;fill-rule:nonzero;stroke:none"
     id="path38" /><path
     inkscape:connector-curvature="0"
     d="m 62.155998,74.996003 -36.963999,0 0,10.442667 36.963999,0 z"
     style="fill:#003366;fill-opacity:1;fill-rule:nonzero;stroke:none"
     id="path40" /><path
     inkscape:connector-curvature="0"
     d="m 62.155998,59.75467 -36.963999,0 0,10.444 36.963999,0 z"
     style="fill:#003366;fill-opacity:1;fill-rule:nonzero;stroke:none"
     id="path42" /><path
     inkscape:connector-curvature="0"
     d="m 25.191999,39.721337 112.970661,0 0,-10.443999 -112.970661,0 z"
     style="fill:#003366;fill-opacity:1;fill-rule:nonzero;stroke:none"
     id="path44" /><path
     inkscape:connector-curvature="0"
     d="m 25.191999,54.957337 112.970661,0 0,-10.442666 -112.970661,0 z"
     style="fill:#003366;fill-opacity:1;fill-rule:nonzero;stroke:none"
     id="path46" /><path
     id="path50"
     style="fill:#003366;fill-opacity:1;fill-rule:nonzero;stroke:none"
     d="m 172.26173,74.99627 -33.336,0 -3.856,10.442666 34.06133,0 z"
     inkscape:connector-curvature="0" /><path
     id="path54"
     style="fill:#003366;fill-opacity:1;fill-rule:nonzero;stroke:none"
     d="m 151.9564,39.721471 46.01467,0 -3.94534,-10.444 -38.21066,0 z"
     inkscape:connector-curvature="0" /><path
     id="path58"
     style="fill:#003366;fill-opacity:1;fill-rule:nonzero;stroke:none"
     d="m 146.32946,54.957204 57.39867,0 -3.94667,-10.442666 -49.59733,0 z"
     inkscape:connector-curvature="0" /><path
     id="path62"
     style="fill:#003366;fill-opacity:1;fill-rule:nonzero;stroke:none"
     d="m 176.97333,70.198003 32.51333,0 -3.94666,-10.444 -60.984,0 -3.85734,10.444 32.99867,0 1.43067,-4.786667 0.41333,0 z"
     inkscape:connector-curvature="0" /><path
     id="path66"
     style="fill:#003366;fill-opacity:1;fill-rule:nonzero;stroke:none"
     d="m 181.53706,85.437603 33.70533,0 -3.94533,-10.441333 -32.884,0 z"
     inkscape:connector-curvature="0" /><path
     id="path70"
     style="fill:#003366;fill-opacity:1;fill-rule:nonzero;stroke:none"
     d="m 186.09706,100.67587 34.90267,0 -3.944,-10.442666 -34.08267,0 z"
     inkscape:connector-curvature="0" /><path
     id="path74"
     style="fill:#003366;fill-opacity:1;fill-rule:nonzero;stroke:none"
     d="m 190.65946,115.91547 36.09867,0 -3.94667,-10.44267 -35.27867,0 z"
     inkscape:connector-curvature="0" /><path
     id="path78"
     style="fill:#003366;fill-opacity:1;fill-rule:nonzero;stroke:none"
     d="m 118.1816,131.1564 114.33466,0 -3.94666,-10.44133 -106.528,0 z"
     inkscape:connector-curvature="0" /><path
     id="path82"
     style="fill:#003366;fill-opacity:1;fill-rule:nonzero;stroke:none"
     d="m 112.554,146.392 125.71866,0 -3.94666,-10.444 -117.916,0 z"
     inkscape:connector-curvature="0" /><path
     id="path86"
     style="fill:#003366;fill-opacity:1;fill-rule:nonzero;stroke:none"
     d="m 205.34893,161.63547 38.68533,0 -3.948,-10.444 -38.14533,0 z"
     inkscape:connector-curvature="0" /><path
     id="path90"
     style="fill:#003366;fill-opacity:1;fill-rule:nonzero;stroke:none"
     d="m 249.78639,176.87507 -3.944,-10.444 -39.06267,0 3.35734,10.444 z"
     inkscape:connector-curvature="0" /><path
     inkscape:connector-curvature="0"
     d="m 248.22533,39.721337 36.96133,0 0,-10.443999 -36.96133,0 z"
     style="fill:#003366;fill-opacity:1;fill-rule:nonzero;stroke:none"
     id="path92" /><path
     inkscape:connector-curvature="0"
     d="m 248.22533,54.957337 36.96133,0 0,-10.442666 -36.96133,0 z"
     style="fill:#003366;fill-opacity:1;fill-rule:nonzero;stroke:none"
     id="path94" /><path
     inkscape:connector-curvature="0"
     d="m 248.22533,70.19867 36.96133,0 0,-10.444 -36.96133,0 z"
     style="fill:#003366;fill-opacity:1;fill-rule:nonzero;stroke:none"
     id="path96" /><path
     inkscape:connector-curvature="0"
     d="m 248.22533,85.43867 36.96133,0 0,-10.442667 -36.96133,0 z"
     style="fill:#003366;fill-opacity:1;fill-rule:nonzero;stroke:none"
     id="path98" /><path
     inkscape:connector-curvature="0"
     d="m 248.22533,100.676 36.96133,0 0,-10.442664 -36.96133,0 z"
     style="fill:#003366;fill-opacity:1;fill-rule:nonzero;stroke:none"
     id="path100" /><path
     inkscape:connector-curvature="0"
     d="m 248.22533,115.916 36.96133,0 0,-10.44133 -36.96133,0 z"
     style="fill:#003366;fill-opacity:1;fill-rule:nonzero;stroke:none"
     id="path102" /><path
     id="path106"
     style="fill:#003366;fill-opacity:1;fill-rule:nonzero;stroke:none"
     d="m 248.52079,131.1564 37.36,0 c -0.468,-2.70267 -0.69333,-5.592 -0.69333,-8.63333 l 0,-1.808 -36.96134,0 0,4.91866 c 0,1.91867 0.144,3.72 0.29467,5.52267"
     inkscape:connector-curvature="0" /><path
     id="path110"
     style="fill:#003366;fill-opacity:1;fill-rule:nonzero;stroke:none"
     d="m 251.82546,146.392 42.15733,0 c -3.28266,-2.628 -5.512,-6.196 -6.90933,-10.444 l -37.94667,0 c 0.60667,3.72533 1.48267,7.23333 2.69867,10.444"
     inkscape:connector-curvature="0" /><path
     id="path114"
     style="fill:#003366;fill-opacity:1;fill-rule:nonzero;stroke:none"
     d="m 367.74932,151.19147 -113.82933,0 c 1.984,3.90267 4.43333,7.36267 7.216,10.444 l 99.39333,0 c 2.784,-3.08133 5.24,-6.54133 7.22,-10.444"
     inkscape:connector-curvature="0" /><path
     id="path118"
     style="fill:#003366;fill-opacity:1;fill-rule:nonzero;stroke:none"
     d="m 372.54946,135.948 -37.95467,0 c -1.4,4.248 -3.648,7.81467 -6.948,10.444 l 42.19734,0 c 1.21866,-3.21067 2.092,-6.71867 2.70533,-10.444"
     inkscape:connector-curvature="0" /><path
     inkscape:connector-curvature="0"
     d="m 336.48399,39.721337 36.964,0 0,-10.443999 -36.964,0 z"
     style="fill:#003366;fill-opacity:1;fill-rule:nonzero;stroke:none"
     id="path120" /><path
     inkscape:connector-curvature="0"
     d="m 336.48399,54.957337 36.964,0 0,-10.442666 -36.964,0 z"
     style="fill:#003366;fill-opacity:1;fill-rule:nonzero;stroke:none"
     id="path122" /><path
     inkscape:connector-curvature="0"
     d="m 336.48399,70.19867 36.964,0 0,-10.444 -36.964,0 z"
     style="fill:#003366;fill-opacity:1;fill-rule:nonzero;stroke:none"
     id="path124" /><path
     inkscape:connector-curvature="0"
     d="m 336.48399,85.43867 36.964,0 0,-10.442667 -36.964,0 z"
     style="fill:#003366;fill-opacity:1;fill-rule:nonzero;stroke:none"
     id="path126" /><path
     inkscape:connector-curvature="0"
     d="m 336.48399,100.676 36.964,0 0,-10.442664 -36.964,0 z"
     style="fill:#003366;fill-opacity:1;fill-rule:nonzero;stroke:none"
     id="path128" /><path
     inkscape:connector-curvature="0"
     d="m 336.48399,115.916 36.964,0 0,-10.44133 -36.964,0 z"
     style="fill:#003366;fill-opacity:1;fill-rule:nonzero;stroke:none"
     id="path130" /><path
     id="path134"
     style="fill:#003366;fill-opacity:1;fill-rule:nonzero;stroke:none"
     d="m 373.44852,125.63547 0,-4.92133 -36.964,0 0,1.81066 c 0,3.03734 -0.224,5.92667 -0.69333,8.632 l 37.35866,0 c 0.14934,-1.80133 0.29867,-3.604 0.29867,-5.52133"
     inkscape:connector-curvature="0" /><path
     id="path138"
     style="fill:#003366;fill-opacity:1;fill-rule:nonzero;stroke:none"
     d="m 25.191999,105.5196 0,10.43867 134.820001,0 3.12533,-10.43867 z"
     inkscape:connector-curvature="0" /><path
     id="path142"
     style="fill:#003366;fill-opacity:1;fill-rule:nonzero;stroke:none"
     d="m 25.191999,90.19147 0,10.44133 139.381331,0 3.124,-10.44133 z"
     inkscape:connector-curvature="0" /><path
     id="path146"
     style="fill:#003366;fill-opacity:1;fill-rule:nonzero;stroke:none"
     d="m 418.43946,155.4676 0,3.95867 -11.30933,0 0,4.59066 10.38,0 0,3.66134 -10.38,0 0,5.248 11.54933,0 0,3.96 -16.26133,0 0,-21.41867 z m 14.48133,9.69067 c 1.08134,0 1.89067,-0.24267 2.43067,-0.72134 0.54133,-0.48 0.812,-1.25866 0.812,-2.33866 0,-1.04267 -0.27067,-1.79734 -0.812,-2.26667 -0.54,-0.47067 -1.34933,-0.70533 -2.43067,-0.70533 l -5.15866,0 0,6.032 z m 1.68267,-9.69067 c 0.95867,0 1.82267,0.15333 2.59333,0.464 0.76934,0.30933 1.43067,0.73333 1.98,1.276 0.552,0.53867 0.97067,1.164 1.26,1.87467 0.28934,0.71066 0.43467,1.47333 0.43467,2.29466 0,1.26 -0.26533,2.348 -0.79333,3.27067 -0.52934,0.91867 -1.396,1.62 -2.59734,2.09867 l 0,0.06 c 0.58134,0.16133 1.06,0.40666 1.44,0.73466 0.38,0.33067 0.69067,0.72134 0.93067,1.172 0.23867,0.448 0.416,0.94534 0.52533,1.484 0.10934,0.53867 0.18534,1.07734 0.22667,1.62 0.0187,0.34134 0.0387,0.73867 0.06,1.2 0.0187,0.46134 0.0547,0.92934 0.104,1.40934 0.0493,0.48133 0.13067,0.93466 0.24,1.36666 0.10933,0.42667 0.276,0.79467 0.49467,1.09334 l -4.71067,0 c -0.26133,-0.67867 -0.42,-1.48934 -0.48,-2.42934 -0.06,-0.94 -0.148,-1.83866 -0.27067,-2.7 -0.15866,-1.12 -0.5,-1.94 -1.01733,-2.46133 -0.52133,-0.51867 -1.37333,-0.77867 -2.55333,-0.77867 l -4.708,0 0,8.36934 -4.71067,0 0,-21.41867 z m 15.23467,0 0,17.45867 10.44,0 0,3.96 -15.148,0 0,-21.41867 z m 25.59066,13.13867 -2.7,-7.86 -0.06,0 -2.792,7.86 z m -0.27066,-13.13867 8.01066,21.41867 -4.89066,0 -1.62,-4.768 -8.01067,0 -1.68,4.768 -4.73867,0 8.09867,-21.41867 z m 15.35999,0 8.94,14.36667 0.06,0 0,-14.36667 4.408,0 0,21.41867 -4.708,0 -8.912,-14.34 -0.06,0 0,14.34 -4.408,0 0,-21.41867 z m 30.96,21.252 c -1.02,0.43333 -2.052,0.64667 -3.09066,0.64667 -1.64134,0 -3.11467,-0.284 -4.424,-0.85467 -1.31067,-0.57067 -2.41734,-1.35333 -3.316,-2.35333 -0.90134,-1 -1.588,-2.17734 -2.06934,-3.52667 -0.48,-1.352 -0.72,-2.804 -0.72,-4.364 0,-1.60267 0.24,-3.08667 0.72,-4.456 0.48134,-1.37067 1.168,-2.56533 2.06934,-3.58667 0.89866,-1.01733 2.00533,-1.81733 3.316,-2.39733 1.30933,-0.58133 2.78266,-0.87067 4.424,-0.87067 1.09866,0 2.164,0.164 3.19466,0.49467 1.032,0.328 1.96134,0.816 2.78934,1.456 0.83066,0.63867 1.516,1.42933 2.05466,2.36667 0.54134,0.944 0.87334,2.024 0.992,3.24266 l -4.5,0 c -0.28133,-1.2 -0.82,-2.10133 -1.61866,-2.7 -0.80267,-0.59866 -1.772,-0.90133 -2.912,-0.90133 -1.06,0 -1.96134,0.20533 -2.7,0.61733 -0.74,0.408 -1.33867,0.95867 -1.8,1.648 -0.46134,0.69067 -0.79467,1.47734 -1.00534,2.35467 -0.208,0.88267 -0.31466,1.792 -0.31466,2.732 0,0.89733 0.10666,1.77333 0.31466,2.624 0.21067,0.84933 0.544,1.61467 1.00534,2.29467 0.46133,0.68 1.06,1.22666 1.8,1.636 0.73866,0.41066 1.64,0.61466 2.7,0.61466 1.56,0 2.76533,-0.396 3.61733,-1.18533 0.84933,-0.78933 1.344,-1.93467 1.48133,-3.43467 l -4.74,0 0,-3.51066 9,0 0,11.58 -3,0 -0.47866,-2.42934 c -0.84134,1.07867 -1.77067,1.836 -2.78934,2.26267 m 26.90934,-21.252 0,3.95867 -11.30934,0 0,4.59066 10.38,0 0,3.66134 -10.38,0 0,5.248 11.54934,0 0,3.96 -16.26134,0 0,-21.41867 z m 9.59333,0 8.94,14.36667 0.06,0 0,-14.36667 4.412,0 0,21.41867 -4.71067,0 -8.912,-14.34 -0.06,0 0,14.34 -4.40933,0 0,-21.41867 z m 27.784,15.06 -9.028,0 0,-3.66133 9.028,0 z m 10.09333,-15.06 8.94134,14.36667 0.0587,0 0,-14.36667 4.40934,0 0,21.41867 -4.708,0 -8.912,-14.34 -0.06,0 0,14.34 -4.408,0 0,-21.41867 z m 26.63333,-2.40133 -4.04933,0 0,-3.51067 4.04933,0 z m 6.18267,0 -4.052,0 0,-3.51067 4.052,0 z m 1.588,22.18533 c -1.62,1.40933 -3.85867,2.11467 -6.71867,2.11467 -2.90133,0 -5.14533,-0.70134 -6.73466,-2.09867 -1.59067,-1.40133 -2.38533,-3.56 -2.38533,-6.48 l 0,-13.32 4.70933,0 0,13.32 c 0,0.57867 0.052,1.14933 0.15066,1.708 0.0987,0.56 0.30934,1.056 0.62934,1.48533 0.32133,0.432 0.76666,0.78134 1.336,1.052 0.568,0.268 1.33333,0.404 2.29466,0.404 1.68,0 2.83867,-0.376 3.48,-1.12533 0.64,-0.75067 0.96,-1.92533 0.96,-3.524 l 0,-13.32 4.708,0 0,13.32 c 0,2.89867 -0.80933,5.05467 -2.42933,6.464 m 17.14133,-10.09333 c 1.07734,0 1.888,-0.24267 2.42667,-0.72134 0.54133,-0.48 0.812,-1.25866 0.812,-2.33866 0,-1.04267 -0.27067,-1.79734 -0.812,-2.26667 -0.53867,-0.47067 -1.34933,-0.70533 -2.42667,-0.70533 l -5.16133,0 0,6.032 z m 1.67867,-9.69067 c 0.95867,0 1.82667,0.15333 2.59467,0.464 0.77066,0.30933 1.42933,0.73333 1.97866,1.276 0.552,0.53867 0.972,1.164 1.26,1.87467 0.28934,0.71066 0.436,1.47333 0.436,2.29466 0,1.26 -0.26666,2.348 -0.79466,3.27067 -0.52934,0.91867 -1.396,1.62 -2.59334,2.09867 l 0,0.06 c 0.57734,0.16133 1.06,0.40666 1.44,0.73466 0.38,0.33067 0.68667,0.72134 0.92667,1.172 0.24267,0.448 0.416,0.94534 0.52667,1.484 0.10933,0.53867 0.184,1.07734 0.22533,1.62 0.0187,0.34134 0.04,0.73867 0.06,1.2 0.0187,0.46134 0.0547,0.92934 0.104,1.40934 0.0507,0.48133 0.13067,0.93466 0.24,1.36666 0.10933,0.42667 0.276,0.79467 0.49467,1.09334 l -4.71067,0 c -0.25733,-0.67867 -0.41867,-1.48934 -0.47867,-2.42934 -0.06,-0.94 -0.14933,-1.83866 -0.268,-2.7 -0.16266,-1.12 -0.5,-1.94 -1.02133,-2.46133 -0.52133,-0.51867 -1.36933,-0.77867 -2.54933,-0.77867 l -4.71067,0 0,8.36934 -4.712,0 0,-21.41867 z m 15.80533,0 8.94,14.36667 0.06,0 0,-14.36667 4.412,0 0,21.41867 -4.712,0 -8.908,-14.34 -0.06,0 0,14.34 -4.412,0 0,-21.41867 z m 28.29467,8.66933 c 0.84133,0 1.528,-0.2 2.06933,-0.60133 0.54,-0.39867 0.81067,-1.04933 0.81067,-1.948 0,-0.5 -0.092,-0.90933 -0.27067,-1.232 -0.18,-0.31733 -0.42,-0.568 -0.71866,-0.74933 -0.30267,-0.18 -0.64667,-0.30534 -1.03734,-0.37334 -0.39066,-0.072 -0.79333,-0.10666 -1.21333,-0.10666 l -4.41067,0 0,5.01066 z m 0.60133,-8.66933 c 1.01734,0 1.948,0.088 2.78934,0.268 0.83866,0.18 1.56,0.47733 2.15866,0.88533 0.59867,0.412 1.06534,0.956 1.396,1.636 0.33067,0.68 0.49467,1.52 0.49467,2.51734 0,1.08133 -0.24533,1.98266 -0.73733,2.70133 -0.48667,0.72133 -1.21334,1.312 -2.17467,1.77067 1.32,0.38 2.308,1.04666 2.956,1.99466 0.65067,0.95067 0.976,2.096 0.976,3.43734 0,1.07866 -0.21067,2.01333 -0.62933,2.80266 -0.42267,0.792 -0.988,1.43734 -1.696,1.93467 -0.71067,0.50267 -1.52,0.872 -2.432,1.112 -0.90934,0.24 -1.844,0.35867 -2.80267,0.35867 l -10.38,0 0,-21.41867 z m -0.33066,17.75733 c 0.45866,0 0.89866,-0.044 1.31733,-0.132 0.42133,-0.092 0.792,-0.24 1.112,-0.45066 0.31733,-0.21067 0.576,-0.49467 0.76267,-0.85467 0.19333,-0.36133 0.28666,-0.82 0.28666,-1.38 0,-1.10133 -0.30933,-1.88533 -0.92933,-2.356 -0.62267,-0.46933 -1.44,-0.704 -2.46133,-0.704 l -5.12934,0 0,5.87733 z m 28.13466,-17.75733 0,3.95867 -11.30933,0 0,4.59066 10.38,0 0,3.66134 -10.38,0 0,5.248 11.54933,0 0,3.96 -16.25733,0 0,-21.41867 z m 14.784,9.69067 c 1.08134,0 1.89067,-0.24267 2.42934,-0.72134 0.54266,-0.48 0.81333,-1.25866 0.81333,-2.33866 0,-1.04267 -0.27067,-1.79734 -0.81333,-2.26667 -0.53867,-0.47067 -1.348,-0.70533 -2.42934,-0.70533 l -5.15866,0 0,6.032 z m 1.68,-9.69067 c 0.96134,0 1.82534,0.15333 2.596,0.464 0.768,0.30933 1.43067,0.73333 1.98,1.276 0.54934,0.53867 0.968,1.164 1.26,1.87467 0.28934,0.71066 0.43467,1.47333 0.43467,2.29466 0,1.26 -0.26533,2.348 -0.79467,3.27067 -0.53066,0.91867 -1.39466,1.62 -2.596,2.09867 l 0,0.06 c 0.58134,0.16133 1.06,0.40666 1.44,0.73466 0.38,0.33067 0.69067,0.72134 0.92934,1.172 0.24,0.448 0.41466,0.94534 0.52666,1.484 0.10934,0.53867 0.18534,1.07734 0.224,1.62 0.0213,0.34134 0.0387,0.73867 0.0627,1.2 0.0187,0.46134 0.052,0.92934 0.10133,1.40934 0.052,0.48133 0.13334,0.93466 0.24267,1.36666 0.10933,0.42667 0.27333,0.79467 0.49467,1.09334 l -4.71067,0 c -0.26133,-0.67867 -0.42,-1.48934 -0.48,-2.42934 -0.06,-0.94 -0.148,-1.83866 -0.27067,-2.7 -0.16133,-1.12 -0.5,-1.94 -1.01866,-2.46133 -0.52,-0.51867 -1.372,-0.77867 -2.552,-0.77867 l -4.708,0 0,8.36934 -4.71067,0 0,-21.41867 z m 23.40933,21.252 c -1.02133,0.43333 -2.04933,0.64667 -3.08933,0.64667 -1.64,0 -3.11733,-0.284 -4.424,-0.85467 -1.31333,-0.57067 -2.41733,-1.35333 -3.31466,-2.35333 -0.90134,-1 -1.592,-2.17734 -2.07067,-3.52667 -0.48267,-1.352 -0.72133,-2.804 -0.72133,-4.364 0,-1.60267 0.23866,-3.08667 0.72133,-4.456 0.47867,-1.37067 1.16933,-2.56533 2.07067,-3.58667 0.89733,-1.01733 2.00133,-1.81733 3.31466,-2.39733 1.30667,-0.58133 2.784,-0.87067 4.424,-0.87067 1.09867,0 2.164,0.164 3.196,0.49467 1.028,0.328 1.95733,0.816 2.78933,1.456 0.83067,0.63867 1.51467,1.42933 2.05467,2.36667 0.54133,0.944 0.86933,2.024 0.98933,3.24266 l -4.5,0 c -0.27866,-1.2 -0.82133,-2.10133 -1.62,-2.7 -0.8,-0.59866 -1.768,-0.90133 -2.90933,-0.90133 -1.06267,0 -1.96,0.20533 -2.7,0.61733 -0.74267,0.408 -1.34133,0.95867 -1.8,1.648 -0.46,0.69067 -0.796,1.47734 -1.00533,2.35467 -0.21067,0.88267 -0.31467,1.792 -0.31467,2.732 0,0.89733 0.104,1.77333 0.31467,2.624 0.20933,0.84933 0.54533,1.61467 1.00533,2.29467 0.45867,0.68 1.05733,1.22666 1.8,1.636 0.74,0.41066 1.63733,0.61466 2.7,0.61466 1.56,0 2.76267,-0.396 3.61467,-1.18533 0.84933,-0.78933 1.344,-1.93467 1.484,-3.43467 l -4.73867,0 0,-3.51066 9,0 0,11.58 -3,0 -0.48,-2.42934 c -0.84,1.07867 -1.77067,1.836 -2.79067,2.26267"
     inkscape:connector-curvature="0" /><path
     id="path150"
     style="fill:#003366;fill-opacity:1;fill-rule:nonzero;stroke:none"
     d="m 418.31959,142.8504 c -1.62,1.412 -3.86,2.11467 -6.72133,2.11467 -2.89867,0 -5.14267,-0.69734 -6.73334,-2.09867 -1.59066,-1.40133 -2.38533,-3.56 -2.38533,-6.48 l 0,-13.32 4.70933,0 0,13.32 c 0,0.57867 0.0493,1.152 0.152,1.712 0.0987,0.55867 0.30667,1.05467 0.62934,1.484 0.31866,0.42933 0.764,0.78133 1.33333,1.04933 0.57067,0.27067 1.336,0.40667 2.29467,0.40667 1.68266,0 2.84133,-0.37867 3.48133,-1.12533 0.64133,-0.75334 0.95867,-1.92667 0.95867,-3.52667 l 0,-13.32 4.71066,0 0,13.32 c 0,2.89867 -0.80933,5.05467 -2.42933,6.464 m 12.41867,-19.784 8.94133,14.36933 0.0587,0 0,-14.36933 4.40933,0 0,21.42 -4.708,0 -8.912,-14.33867 -0.06,0 0,14.33867 -4.408,0 0,-21.42 z m 23.37066,21.42 -4.71066,0 0,-21.41867 4.71066,0 z m 10.33067,0 -6.92933,-21.42 4.828,0 4.77066,15.06 0.06,0 4.828,-15.06 4.86134,0 -7.10934,21.42 z m 31.91866,-21.42 0,3.96133 -11.312,0 0,4.588 10.38,0 0,3.66134 -10.38,0 0,5.25066 11.552,0 0,3.95867 -16.25999,0 0,-21.42 z m 14.48534,9.69067 c 1.07733,0 1.888,-0.24 2.42666,-0.71867 0.54134,-0.48267 0.812,-1.26133 0.812,-2.34133 0,-1.04 -0.27066,-1.79467 -0.812,-2.26534 -0.53866,-0.46933 -1.34933,-0.70666 -2.42666,-0.70666 l -5.16267,0 0,6.032 z m 1.67866,-9.69067 c 0.95867,0 1.824,0.156 2.59467,0.46667 0.768,0.30933 1.42933,0.73333 1.97867,1.27333 0.54933,0.53867 0.972,1.16667 1.26,1.87467 0.28933,0.71066 0.436,1.476 0.436,2.29733 0,1.25733 -0.26667,2.348 -0.79467,3.268 -0.532,0.91867 -1.396,1.62 -2.59333,2.09867 l 0,0.06 c 0.57733,0.16133 1.05866,0.40666 1.44,0.73733 0.37733,0.33067 0.68666,0.72133 0.92666,1.16933 0.24267,0.45067 0.416,0.94534 0.52534,1.484 0.10933,0.54134 0.18533,1.08134 0.22666,1.62267 0.0187,0.33867 0.04,0.73867 0.06,1.19733 0.0187,0.46134 0.0547,0.92934 0.104,1.412 0.0507,0.47867 0.13067,0.93467 0.24,1.364 0.10934,0.43067 0.27334,0.79467 0.49467,1.09467 l -4.71067,0 c -0.26,-0.68 -0.41866,-1.49067 -0.47866,-2.43067 -0.06,-0.94 -0.14934,-1.83866 -0.26934,-2.69733 -0.16133,-1.12267 -0.5,-1.94 -1.02,-2.46133 -0.52133,-0.52 -1.37066,-0.78134 -2.552,-0.78134 l -4.70933,0 0,8.37067 -4.71067,0 0,-21.42 z m 14.57867,16.14133 c 0.26,0.5 0.604,0.90267 1.036,1.216 0.43067,0.30667 0.93467,0.53867 1.51333,0.68667 0.58134,0.152 1.18,0.22667 1.8,0.22667 0.42134,0 0.86934,-0.0333 1.35067,-0.10667 0.48,-0.068 0.93067,-0.20267 1.34933,-0.404 0.42134,-0.2 0.77067,-0.476 1.04934,-0.82533 0.28133,-0.348 0.42266,-0.79334 0.42266,-1.336 0,-0.57734 -0.18533,-1.04934 -0.55466,-1.408 -0.37334,-0.36 -0.85734,-0.65867 -1.456,-0.89867 -0.59867,-0.24267 -1.28134,-0.45333 -2.04,-0.63333 -0.76,-0.18 -1.53067,-0.38 -2.312,-0.59867 -0.8,-0.2 -1.57867,-0.44533 -2.33867,-0.73467 -0.76,-0.28933 -1.44,-0.66666 -2.04133,-1.12533 -0.59867,-0.46 -1.084,-1.036 -1.45334,-1.72267 -0.372,-0.69333 -0.55466,-1.52666 -0.55466,-2.50533 0,-1.10267 0.23466,-2.05467 0.70533,-2.868 0.46933,-0.80667 1.084,-1.484 1.844,-2.02267 0.76,-0.54266 1.62,-0.94 2.57867,-1.20133 0.96,-0.26 1.92133,-0.39067 2.88,-0.39067 1.12,0 2.19466,0.12534 3.22666,0.376 1.03067,0.24934 1.94534,0.656 2.744,1.216 0.8,0.56 1.436,1.276 1.90667,2.14267 0.46933,0.86933 0.70267,1.92667 0.70267,3.16667 l -4.55867,0 c -0.04,-0.64 -0.17467,-1.172 -0.404,-1.59067 -0.232,-0.42 -0.53733,-0.75067 -0.91733,-0.98933 -0.38,-0.24 -0.81467,-0.412 -1.304,-0.51067 -0.48934,-0.1 -1.024,-0.14933 -1.604,-0.14933 -0.38,0 -0.76134,0.04 -1.14134,0.12 -0.38,0.0813 -0.724,0.21866 -1.03333,0.42 -0.31067,0.2 -0.56533,0.45066 -0.76533,0.74933 -0.20134,0.3 -0.3,0.68 -0.3,1.14133 0,0.41867 0.0813,0.75734 0.24,1.01734 0.15866,0.26133 0.47333,0.5 0.94533,0.72133 0.468,0.21867 1.12,0.44 1.95067,0.65867 0.828,0.22133 1.91333,0.5 3.252,0.84133 0.40133,0.0787 0.956,0.224 1.66666,0.436 0.708,0.21067 1.41467,0.544 2.11467,1.004 0.7,0.45867 1.304,1.076 1.81467,1.844 0.51066,0.77067 0.76533,1.756 0.76533,2.956 0,0.97867 -0.18933,1.89067 -0.56933,2.732 -0.38,0.83867 -0.94534,1.56533 -1.696,2.17467 -0.74934,0.60933 -1.67867,1.08266 -2.78934,1.424 -1.10933,0.33866 -2.39466,0.508 -3.856,0.508 -1.18,0 -2.32533,-0.14267 -3.43466,-0.432 -1.10934,-0.292 -2.08934,-0.748 -2.93734,-1.368 -0.852,-0.62 -1.52666,-1.408 -2.02666,-2.36934 -0.5,-0.95866 -0.74,-2.09866 -0.72134,-3.41866 l 4.56,0 c 0,0.72133 0.13067,1.33066 0.39067,1.83066 m 21.89867,5.27867 -4.708,0 0,-21.41867 4.708,0 z m 3.78133,-17.45867 0,-3.96133 17.54933,0 0,3.96133 -6.42,0 0,17.45867 -4.71066,0 0,-17.45867 z m 26.60933,-6.36266 -4.052,0 0,-3.51067 4.052,0 z m 6.18,0 -4.04933,0 0,-3.51067 4.04933,0 z m -2.37066,15.54266 -2.7,-7.86266 -0.06,0 -2.78934,7.86266 z m -0.27067,-13.14133 8.01067,21.42 -4.89067,0 -1.62,-4.76933 -8.008,0 -1.68,4.76933 -4.74133,0 8.10133,-21.42 z m 7.56,3.96133 0,-3.96133 17.552,0 0,3.96133 -6.41867,0 0,17.45867 -4.712,0 0,-17.45867 z"
     inkscape:connector-curvature="0" /><path
     id="path154"
     style="fill:#003366;fill-opacity:1;fill-rule:nonzero;stroke:none"
     d="m 417.47852,90.26707 0,3.96 -10.34933,0 0,4.950666 8.96933,0 0,3.660004 -8.96933,0 0,8.848 -4.71067,0 0,-21.41867 z m 13.69733,9.690666 c 1.07867,0 1.89067,-0.24 2.43067,-0.72 0.53867,-0.481333 0.80933,-1.26 0.80933,-2.339999 0,-1.04 -0.27066,-1.797334 -0.80933,-2.266667 -0.54,-0.469333 -1.352,-0.705333 -2.43067,-0.705333 l -5.16133,0 0,6.031999 z m 1.68,-9.690666 c 0.95867,0 1.82534,0.153333 2.59467,0.465333 0.77067,0.308 1.432,0.734667 1.97867,1.274667 0.552,0.538667 0.97066,1.165333 1.26,1.874667 0.292,0.710666 0.43733,1.476 0.43733,2.296 0,1.259999 -0.26533,2.349333 -0.796,3.269333 -0.52933,0.91867 -1.39333,1.62 -2.59467,2.09867 l 0,0.0613 c 0.57867,0.16 1.06,0.40533 1.44,0.73467 0.38134,0.33066 0.69067,0.72 0.93067,1.17066 0.23867,0.44934 0.41333,0.94534 0.52267,1.48534 0.112,0.53733 0.18533,1.07866 0.22666,1.62 0.0187,0.34 0.04,0.74 0.06,1.19866 0.0213,0.46134 0.0547,0.92934 0.104,1.41067 0.0493,0.48 0.13067,0.93467 0.24,1.36533 0.10934,0.42934 0.276,0.79467 0.49467,1.09334 l -4.708,0 c -0.26133,-0.67867 -0.42,-1.48934 -0.48,-2.42934 -0.06,-0.94 -0.15067,-1.83866 -0.27067,-2.7 -0.16133,-1.11866 -0.5,-1.93866 -1.02,-2.45866 -0.52133,-0.52134 -1.37066,-0.78134 -2.54933,-0.78134 l -4.712,0 0,8.36934 -4.708,0 0,-21.41867 z m 16.17734,21.41867 -4.708,0 0,-21.41867 4.708,0 z m 21.42133,-21.41867 0,3.96 -11.30933,0 0,4.589333 10.38,0 0,3.661337 -10.38,0 0,5.24933 11.54933,0 0,3.95867 -16.26,0 0,-21.41867 z m 13.524,17.46 c 0.68,0 1.33866,-0.10933 1.97866,-0.32933 0.64134,-0.22 1.20934,-0.58667 1.70934,-1.09734 0.5,-0.508 0.9,-1.17333 1.2,-1.99466 0.3,-0.82 0.45066,-1.82 0.45066,-3 0,-1.07867 -0.104,-2.05467 -0.312,-2.924004 -0.212,-0.869333 -0.55733,-1.614666 -1.03733,-2.234666 -0.48133,-0.62 -1.11467,-1.094667 -1.904,-1.425333 -0.79067,-0.329334 -1.76533,-0.494667 -2.92666,-0.494667 l -3.35867,0 0,13.5 z m 0.328,-17.46 c 1.38,0 2.66666,0.218667 3.85733,0.658667 1.18933,0.44 2.21867,1.101333 3.088,1.98 0.872,0.881333 1.54933,1.981333 2.04133,3.301333 0.49067,1.32 0.73467,2.869333 0.73467,4.65067 0,1.56 -0.2,3 -0.60133,4.32 -0.39867,1.32 -1.00267,2.45866 -1.812,3.42 -0.81067,0.95866 -1.82134,1.71333 -3.032,2.26266 -1.21067,0.552 -2.63467,0.82534 -4.276,0.82534 l -9.24,0 0,-21.41867 z m 23.412,9.690666 c 1.08,0 1.89066,-0.24 2.432,-0.72 0.53866,-0.481333 0.80933,-1.26 0.80933,-2.339999 0,-1.04 -0.27067,-1.797334 -0.80933,-2.266667 -0.54134,-0.469333 -1.352,-0.705333 -2.432,-0.705333 l -5.15867,0 0,6.031999 z m 1.68133,-9.690666 c 0.95867,0 1.82667,0.153333 2.59467,0.465333 0.77066,0.308 1.42933,0.734667 1.98133,1.274667 0.54933,0.538667 0.96933,1.165333 1.26,1.874667 0.28933,0.710666 0.436,1.476 0.436,2.296 0,1.259999 -0.26667,2.349333 -0.79733,3.269333 -0.52934,0.91867 -1.396,1.62 -2.59334,2.09867 l 0,0.0613 c 0.57734,0.16 1.05867,0.40533 1.43734,0.73467 0.38,0.33066 0.692,0.72 0.932,1.17066 0.24,0.44934 0.41333,0.94534 0.52533,1.48534 0.10933,0.53733 0.18267,1.07866 0.224,1.62 0.0187,0.34 0.04,0.74 0.06,1.19866 0.0187,0.46134 0.0547,0.92934 0.104,1.41067 0.0507,0.48 0.13067,0.93467 0.24,1.36533 0.10933,0.42934 0.276,0.79467 0.49467,1.09334 l -4.708,0 c -0.26,-0.67867 -0.41867,-1.48934 -0.48134,-2.42934 -0.06,-0.94 -0.14933,-1.83866 -0.26933,-2.7 -0.16133,-1.11866 -0.5,-1.93866 -1.02,-2.45866 -0.52133,-0.52134 -1.36933,-0.78134 -2.54933,-0.78134 l -4.71067,0 0,8.36934 -4.70933,0 0,-21.41867 z m 15.72933,21.41867 -4.71066,0 0,-21.41867 4.71066,0 z m 18.80267,-15.705337 c -0.27867,-0.448 -0.63067,-0.844 -1.04933,-1.182666 -0.42,-0.34 -0.896,-0.606667 -1.42534,-0.796 -0.53066,-0.190667 -1.08533,-0.284 -1.664,-0.284 -1.06,0 -1.96,0.202666 -2.7,0.614666 -0.74,0.408 -1.34133,0.96 -1.8,1.648 -0.46,0.692 -0.796,1.477333 -1.00533,2.357333 -0.21067,0.88 -0.31467,1.789334 -0.31467,2.729334 0,0.9 0.104,1.77467 0.31467,2.624 0.20933,0.84933 0.54533,1.61467 1.00533,2.29467 0.45867,0.68133 1.06,1.22666 1.8,1.636 0.74,0.41066 1.64,0.616 2.7,0.616 1.44,0 2.56534,-0.44 3.37334,-1.32 0.812,-0.88 1.30666,-2.04134 1.48666,-3.48 l 4.56,0 c -0.12,1.34 -0.42933,2.548 -0.92933,3.62933 -0.5,1.08 -1.16267,2 -1.98267,2.76 -0.82,0.76 -1.77866,1.34 -2.88,1.74 -1.09866,0.4 -2.30666,0.59867 -3.628,0.59867 -1.64,0 -3.11733,-0.284 -4.42666,-0.85467 -1.30934,-0.57067 -2.41467,-1.35333 -3.31467,-2.35333 -0.89867,-1 -1.58933,-2.176 -2.07067,-3.52667 -0.47866,-1.34933 -0.71866,-2.804 -0.71866,-4.364 0,-1.6 0.24,-3.086667 0.71866,-4.454667 0.48134,-1.372 1.172,-2.566666 2.07067,-3.585333 0.9,-1.02 2.00533,-1.82 3.31467,-2.4 1.30933,-0.581333 2.78666,-0.870667 4.42666,-0.870667 1.18,0 2.29467,0.169334 3.344,0.510667 1.04934,0.34 1.98934,0.833333 2.82,1.484 0.83067,0.650667 1.516,1.456 2.05467,2.416 0.54,0.96 0.88133,2.06 1.02133,3.3 l -4.56,0 c -0.08,-0.541333 -0.26,-1.036 -0.54133,-1.486667 m 14.30667,-5.713333 0,8.218666 8.66933,0 0,-8.218666 4.71067,0 0,21.41867 -4.71067,0 0,-9.23867 -8.66933,0 0,9.23867 -4.71067,0 0,-21.41867 z m 27.75333,15.06 -9.028,0 0,-3.66 9.028,0 z m 15.46267,-1.92133 -2.7,-7.860003 -0.06,0 -2.78934,7.860003 z m -0.27067,-13.13867 8.01067,21.41867 -4.89067,0 -1.62,-4.768 -8.01067,0 -1.67866,4.768 -4.74,0 8.09866,-21.41867 z m 15.96933,0 0,17.46 10.44,0 0,3.95867 -15.15066,0 0,-21.41867 z m 30.22667,0 0,3.96 -11.31067,0 0,4.589333 10.38133,0 0,3.661337 -10.38133,0 0,5.24933 11.552,0 0,3.95867 -16.26,0 0,-21.41867 z m 3.62933,0 5.46133,0 4.20134,6.84 4.348,-6.84 5.16133,0 -6.872,10.23067 7.472,11.188 -5.60933,0 -4.68267,-7.408 -4.768,7.408 -5.28133,0 7.47066,-11.21867 z m 34.712,13.13867 -2.70133,-7.860003 -0.06,0 -2.788,7.860003 z m -0.27067,-13.13867 8.00934,21.41867 -4.89067,0 -1.61867,-4.768 -8.01066,0 -1.68,4.768 -4.74,0 8.10133,-21.41867 z m 15.48934,0 8.94,14.36933 0.06,0 0,-14.36933 4.408,0 0,21.41867 -4.708,0 -8.91067,-14.33867 -0.06,0 0,14.33867 -4.40933,0 0,-21.41867 z m 27.35866,17.46 c 0.68,0 1.34134,-0.10933 1.98267,-0.32933 0.63733,-0.22 1.208,-0.58667 1.708,-1.09734 0.5,-0.508 0.89867,-1.17333 1.2,-1.99466 0.3,-0.82 0.45067,-1.82 0.45067,-3 0,-1.07867 -0.10667,-2.05467 -0.31467,-2.924004 -0.21067,-0.869333 -0.55733,-1.614666 -1.03733,-2.234666 -0.47867,-0.62 -1.11467,-1.094667 -1.90267,-1.425333 -0.792,-0.329334 -1.76667,-0.494667 -2.92533,-0.494667 l -3.36134,0 0,13.5 z m 0.33067,-17.46 c 1.38,0 2.664,0.218667 3.85467,0.658667 1.18933,0.44 2.22133,1.101333 3.09066,1.98 0.87067,0.881333 1.54934,1.981333 2.04,3.301333 0.48934,1.32 0.73334,2.869333 0.73334,4.65067 0,1.56 -0.2,3 -0.59867,4.32 -0.40133,1.32 -1.00533,2.45866 -1.81467,3.42 -0.81066,0.95866 -1.82,1.71333 -3.02933,2.26266 -1.21067,0.552 -2.63733,0.82534 -4.276,0.82534 l -9.24133,0 0,-21.41867 z m 29.60933,0 0,3.96 -11.30933,0 0,4.589333 10.38,0 0,3.661337 -10.38,0 0,5.24933 11.54933,0 0,3.95867 -16.26,0 0,-21.41867 z m 14.33333,9.690666 c 1.08134,0 1.89067,-0.24 2.43334,-0.72 0.53866,-0.481333 0.80666,-1.26 0.80666,-2.339999 0,-1.04 -0.268,-1.797334 -0.80666,-2.266667 -0.54267,-0.469333 -1.352,-0.705333 -2.43334,-0.705333 l -5.15866,0 0,6.031999 z m 1.68,-9.690666 c 0.96134,0 1.82534,0.153333 2.596,0.465333 0.77067,0.308 1.43067,0.734667 1.98,1.274667 0.54934,0.538667 0.97067,1.165333 1.26,1.874667 0.28934,0.710666 0.43467,1.476 0.43467,2.296 0,1.259999 -0.26533,2.349333 -0.79333,3.269333 -0.532,0.91867 -1.396,1.62 -2.59734,2.09867 l 0,0.0613 c 0.58134,0.16 1.06,0.40533 1.44,0.73467 0.38,0.33066 0.69067,0.72 0.93334,1.17066 0.23866,0.44934 0.41333,0.94534 0.52266,1.48534 0.10934,0.53733 0.18534,1.07866 0.224,1.62 0.0213,0.34 0.0413,0.74 0.06,1.19866 0.0213,0.46134 0.0547,0.92934 0.10667,1.41067 0.0493,0.48 0.128,0.93467 0.24,1.36533 0.10933,0.42934 0.27333,0.79467 0.49467,1.09334 l -4.71067,0 c -0.25867,-0.67867 -0.42,-1.48934 -0.48,-2.42934 -0.06,-0.94 -0.15067,-1.83866 -0.27067,-2.7 -0.15866,-1.11866 -0.5,-1.93866 -1.01866,-2.45866 -0.52,-0.52134 -1.36934,-0.78134 -2.54934,-0.78134 l -4.71066,0 0,8.36934 -4.71067,0 0,-21.41867 z"
     inkscape:connector-curvature="0" /></svg>