<?xml version="1.0" encoding="UTF-8" standalone="no"?>
<svg
   xmlns:sketch="http://www.bohemiancoding.com/sketch/ns"
   xmlns:dc="http://purl.org/dc/elements/1.1/"
   xmlns:cc="http://creativecommons.org/ns#"
   xmlns:rdf="http://www.w3.org/1999/02/22-rdf-syntax-ns#"
   xmlns:svg="http://www.w3.org/2000/svg"
   xmlns="http://www.w3.org/2000/svg"
   id="svg2"
   version="1.1"
   viewBox="0 0 20 20"
   height="20px"
   width="20px">
  <metadata
     id="metadata17">
    <rdf:RDF>
      <cc:Work
         rdf:about="">
        <dc:format>image/svg+xml</dc:format>
        <dc:type
           rdf:resource="http://purl.org/dc/dcmitype/StillImage" />
        <dc:title>XMLID_87_</dc:title>
      </cc:Work>
    </rdf:RDF>
  </metadata>
  <!-- Generator: Sketch 3.4 (15588) - http://www.bohemiancoding.com/sketch -->
  <title
     id="title4">XMLID_87_</title>
  <desc
     id="desc6">Created with Sketch.</desc>
  <defs
     id="defs8" />
  <g
     style="fill:#ffffff;fill-opacity:0;stroke:none;stroke-opacity:1"
     sketch:type="MSPage"
     fill-rule="evenodd"
     fill="none"
     stroke-width="1"
     stroke="none"
     id="Page-1">
    <g
       style="fill:#ffffff;fill-opacity:0;stroke:none;stroke-opacity:1"
       fill="#000000"
       sketch:type="MSLayerGroup"
       id="globe-icon">
      <g
         style="fill:#ffffff;fill-opacity:0;stroke:none;stroke-opacity:1"
         sketch:type="MSShapeGroup"
         id="XMLID_24_">
        <g
           style="fill:#ffffff;fill-opacity:0;stroke:none;stroke-opacity:1"
           id="XMLID_86_">
          <path
             style="fill:#ffffff;fill-opacity:0;stroke:none;stroke-opacity:1"
             id="XMLID_87_"
             d="M10,0 C4.5,0 0,4.5 0,10 C0,15.5 4.5,20 10,20 C15.5,20 20,15.5 20,10 C20,4.5 15.5,0 10,0 L10,0 Z M10,3.1 C10,3.1 9,3.1 8.8,3.6 C8.5,4.1 8.4,5.2 8.2,5.5 C7.9,5.9 6.9,6.3 6.9,6.3 L5.5,7.2 L4.4,7.9 C4.4,7.9 4.4,7.4 3.7,8 C3,8.6 2.9,8.5 2.9,9 C2.9,9.5 3.8,9.6 4.8,9.5 C5.8,9.4 7.3,10 7.3,10 C7.3,10 7.5,9.7 7.7,10.4 C7.9,11.1 8.1,11.7 7.9,12 C7.6,12.5 7.6,12 7.2,13 C6.9,14 6.7,14.2 6.8,14.7 C6.9,15.2 7.6,16.3 7.4,16.4 C7.1,16.5 6.6,16.5 6.1,15.8 C5.6,15.1 5.3,15.3 5.2,14.2 C5,13.1 5,12.9 5,12.9 L4.5,12.1 C4.5,12.1 3.9,11.8 3.7,11.6 C3.6,11.3 3.2,10.4 3.2,10.4 L2.6,9.8 L2.1,9.2 L2.1,8.6 C2.8,4.8 6.1,2 10,2 L10.1,2 L10,3.1 L10,3.1 Z M14.2,16.8 L14.2,16.8 C14.2,16.4 14.4,15.7 14.5,15.1 C14.6,14.5 14.7,14.1 14.9,13.7 C15,13.3 15.3,13 15.5,12.6 C15.7,12.2 14.8,12 14.8,12 C14.8,12 14.4,11.7 13.6,11.9 C12.8,12.1 12.9,11.7 12,10.7 C11.1,9.8 11.7,9.7 11.8,8.7 C11.9,7.7 12.5,7.2 13.1,7.4 C13.7,7.5 13.4,7.2 13.3,6.8 C13.2,6.4 13.7,6.2 13.7,6.2 L13.1,5.1 L13,3.8 C13,3.8 13.1,3.3 13.2,2.7 C16,3.9 18,6.7 18,10 C18,12.9 16.5,15.4 14.2,16.8 L14.2,16.8 Z" />
        </g>
      </g>
    </g>
  </g>
</svg>
