<?xml version="1.0" encoding="UTF-8" standalone="no"?>
<!-- Created with Inkscape (http://www.inkscape.org/) -->

<svg
   xmlns:dc="http://purl.org/dc/elements/1.1/"
   xmlns:cc="http://creativecommons.org/ns#"
   xmlns:rdf="http://www.w3.org/1999/02/22-rdf-syntax-ns#"
   xmlns:svg="http://www.w3.org/2000/svg"
   xmlns="http://www.w3.org/2000/svg"
   xmlns:sodipodi="http://sodipodi.sourceforge.net/DTD/sodipodi-0.dtd"
   xmlns:inkscape="http://www.inkscape.org/namespaces/inkscape"
   width="310.62445"
   height="219.34375"
   id="svg3063"
   version="1.1"
   inkscape:version="0.48.5 r10040"
   sodipodi:docname="marvin.pdf">
  <defs
     id="defs3065" />
  <sodipodi:namedview
     id="base"
     pagecolor="#ffffff"
     bordercolor="#666666"
     borderopacity="1.0"
     inkscape:pageopacity="0.0"
     inkscape:pageshadow="2"
     inkscape:zoom="1.4"
     inkscape:cx="338.96897"
     inkscape:cy="103.88524"
     inkscape:document-units="px"
     inkscape:current-layer="layer1"
     showgrid="false"
     fit-margin-top="10"
     fit-margin-left="10"
     fit-margin-right="10"
     fit-margin-bottom="10"
     inkscape:window-width="1920"
     inkscape:window-height="1018"
     inkscape:window-x="-7"
     inkscape:window-y="32"
     inkscape:window-maximized="1" />
  <metadata
     id="metadata3068">
    <rdf:RDF>
      <cc:Work
         rdf:about="">
        <dc:format>image/svg+xml</dc:format>
        <dc:type
           rdf:resource="http://purl.org/dc/dcmitype/StillImage" />
        <dc:title></dc:title>
      </cc:Work>
    </rdf:RDF>
  </metadata>
  <g
     inkscape:label="Layer 1"
     inkscape:groupmode="layer"
     id="layer1"
     transform="translate(-384.46875,-505.90625)">
    <g
       id="g4044">
      <path
         id="path4034"
         d="m 514.75,539.28125 c -8.23553,1.82086 -16.0595,4.93677 -23.875,7.71875 -7.25862,2.58391 -14.30862,6.17615 -21.40625,9.5 -10.4199,4.87967 -20.15228,11.00876 -28.15625,18.84375 -2.17836,2.13229 -7.25148,6.29541 -7.375,8.4375 -0.0623,1.07805 1.06659,2.29412 1.34375,3.9375 l 0.125,4.59375 c -1.11349,9.62757 -7.54344,14.25145 -15.6875,17.25 -1.59836,8.49365 -4.67304,14.8637 -3.21875,25.125 0.45183,3.18764 1.94651,7.21974 3.0625,11.1875 1.27552,4.53518 2.94328,9.77122 4.25,12.75 3.70027,8.43553 9.3133,13.74368 15.9375,18.71875 6.36787,4.78254 12.91019,8.43291 20.46875,11.625 3.78064,1.59638 7.26048,3.86343 10.78125,5.1875 5.2265,1.96516 14.54323,3.32092 20.5625,4.9375 2.31608,0.62193 5.58316,1.71705 7.5,1.84375 1.68,0.11048 5.52283,-0.91129 6.65625,-1.40625 1.79568,-0.78431 3.94974,-3.1073 5.34375,-5.03125 3.81137,-5.26008 4.91912,-10.45531 6.1875,-18.1875 1.35927,-8.2849 3.07489,-15.06654 3.875,-24.25 0.38958,-4.47451 1.44023,-10.1449 0.8125,-13.46875 -0.40174,-2.12724 -2.60193,-4.40336 -3.53125,-6.28125 -6.68945,-13.51768 -10.31,-29.81363 -12.96875,-46.96875 L 505.25,579.25 c 0.23303,-14.83467 4.74652,-27.65006 9.25,-38.125 0.1051,-0.24505 0.97515,-1.59997 0.25,-1.84375 z"
         style="fill:#fcdbc8;fill-opacity:1;stroke:none;display:inline"
         inkscape:connector-curvature="0" />
      <path
         id="path4024"
         d="m 552.15625,517.96875 c -4.40236,0.006 -8.87743,0.34005 -13.28125,1.0625 -7.77786,1.84026 -15.95438,2.70936 -22.71875,4.9375 -3.63489,1.11967 -6.52674,2.60667 -10.28125,3.96875 -4.25312,2.2321 -9.44601,3.57381 -12.71875,6.34375 -5.67965,4.55597 -11.73959,8.6416 -14.625,14.40625 1.92704,-0.76802 2.84085,-0.81248 5,-1.78125 5.21422,-2.17671 8.31288,-3.3033 13,-4.65625 3.89604,-1.28932 10.28101,-3.22623 14.53125,-4.09375 6.84447,-1.93177 7.45993,-5.09937 8.375,-6.34375 4.45707,-4.55633 12.30439,-6.67485 17.46875,-7.34375 3.79693,-0.57133 8.37329,-0.41733 12.1875,-0.875 10.5066,-0.60225 23.01113,-0.30563 32.625,-1.5625 -0.85831,-0.17375 -1.19125,-0.31527 -2.15625,-0.53125 -8.26861,-2.0311 -17.72105,-3.54508 -27.40625,-3.53125 z m 15.8125,6.9375 c -0.98078,0.0122 -1.98643,0.0309 -2.96875,0.0625 -13.48818,-0.11016 -27.86153,1.27028 -33.78125,3 -10.03165,3.84022 -9.93295,4.27318 -13.40625,11.8125 -1.83777,4.05874 -3.27307,8.21526 -4.5,12.34375 -0.80858,3.19014 -1.74866,5.34403 -2.5625,7.9375 -1.95827,7.67671 -3.56067,20.656 -2.875,28.09375 0.67311,5.34219 2.28127,10.89905 3.28125,15.9375 0.30103,1.53565 0.41118,1.85188 0.71875,3.03125 0.94885,2.78056 1.75669,6.70076 2.6875,8.75 0.25591,0.88133 0.42883,1.07918 0.6875,2.125 0.63552,2.15109 2.33384,5.95577 2.65625,7.25 1.41076,2.37352 3.87074,7.7218 5.15625,9.625 1.38534,2.45305 2.44067,3.61909 3.8125,5.375 1.34889,1.80085 4.01752,4.65841 5.0625,5.65625 2.54534,2.43702 5.07308,4.81868 8.125,6.78125 2.05023,1.41987 3.44423,2.51224 5.59375,3.5 7.42966,3.55999 15.62726,6.06298 22.65625,7.65625 3.80456,0.96741 4.58523,1.28908 7.53125,1.96875 2.84808,0.92907 5.00191,1.51232 7.40625,2.34375 6.48141,1.67171 12.0837,3.64465 17.84375,4.09375 4.11095,0.36818 8.50454,0.90604 12.25,1.125 9.25211,-0.0508 25.08231,0.36499 31.875,-3.375 5.25942,-2.42085 10.01222,-5.29825 12.65625,-7.34375 4.46289,-4.2275 9.72213,-8.91706 11.5,-14.375 0.25643,-0.84558 0.81771,-1.50305 1.15625,-2.1875 1.1865,-2.28993 2.90332,-4.95866 4.03125,-7.75 0.69952,-1.60135 1.47236,-3.49729 2.3125,-4.9375 0.60314,-1.21048 1.03029,-2.3934 1.71875,-3.71875 0.59222,-1.2203 2.34141,-7.01864 2.5,-8 1.41142,-5.14527 2.26311,-15.1069 1.59375,-20.90625 -0.37492,-3.77665 -1.09536,-7.52513 -1.875,-10.59375 -0.46485,-2.40432 -2.41177,-10.13344 -3.125,-11.75 -4.96214,-12.08067 -18.20848,-21.86716 -28.3125,-28.71875 -24.8129,-15.70816 -25.39178,-15.62048 -36.9375,-19.0625 -15.19738,-3.93732 -29.75699,-5.93218 -44.46875,-5.75 z m -129.1875,70.875 c -0.27522,1.6399 -0.52462,2.63146 -1.09375,4 -1.60727,3.12991 -3.67897,5.50199 -5.625,8.3125 0.88697,2.20434 2.42366,6.23796 3.03125,8.25 1.48308,3.98319 4.22117,6.65082 8.1875,8 2.40379,0.84496 7.2653,1.71234 9.84375,1.25 3.2134,-0.55434 7.37862,-3.36579 9.5625,-5.1875 1.76043,-1.3054 3.29018,-2.84688 4.78125,-4.40625 0.33352,-0.37732 0.85153,-0.59818 0.5625,-1.5625 -0.64383,-0.63789 -1.25132,-1.04017 -1.90625,-1.75 -2.55729,-2.46631 -2.96393,-11.46696 -3.1875,-14.875 l -7.9375,0.25 c 0.0799,0.99955 0.34891,1.2372 0.375,2.125 l 0.0937,3.03125 c -0.18349,1.01301 -0.0566,1.44207 -1.125,2.46875 l -1.8437,0.0625 -3.65625,0.0937 c -1.95826,-0.12343 -3.56834,-0.37988 -4.3125,-1.6875 l -0.0625,-1.53125 c 0.16631,-1.56764 0.87207,-2.92456 1.09375,-4.59375 -2.92519,-0.0425 -4.17014,-1.87441 -6.78125,-2.25 z"
         style="fill:#d50707;fill-opacity:1;stroke:none;display:inline"
         inkscape:connector-curvature="0" />
      <path
         id="path4030"
         d="m 414.625,577.90625 c -2.07718,0.0539 -4.01487,0.29054 -5.5625,0.8125 -4.89095,1.64958 -6.90557,7.31048 -8.46875,12.78125 -0.15463,1.24727 -0.63213,3.35535 -0.28125,4.875 2.29748,8.70492 8.27608,13.14778 18.65625,11.375 4.94578,-0.84473 11.21314,-5.74548 12.96875,-9.25 1.53532,-3.06493 2.52059,-8.35076 1.15625,-12.53125 -0.53003,-1.62389 -3.25872,-4.78936 -4.75,-5.6875 -2.26742,-1.36555 -8.41041,-2.51266 -13.71875,-2.375 z m 68.40625,0.0625 c -2.22869,0.032 -4.35841,0.27955 -6.03125,0.84375 -3.61155,1.21817 -7.89895,7.49084 -8.6875,12.71875 -0.10458,0.98706 -0.0804,3.64861 -0.0312,4.65625 0.97534,15.90912 24.85925,14.8973 31.28125,2.40625 1.68448,-3.27626 2.89714,-8.20865 1.46875,-12.5625 -0.67259,-2.05068 -3.57946,-5.01014 -5.375,-5.9375 -2.30903,-1.1925 -7.72163,-2.19528 -12.625,-2.125 z m -30.5,20.125 -3.34375,0.0937 -2.4375,0.0625 c 0.0833,2.05551 -0.60726,3.3767 -0.75,5.21875 2.02789,0.67968 4.8417,0.49653 7.625,0.375 0.37661,-1.13359 0.20118,-2.3869 -0.15625,-3.53125 -0.0282,-0.0902 -0.0636,-0.1619 -0.0937,-0.25 -0.25087,-0.73988 -0.56443,-1.4086 -0.84375,-1.96875 z"
         style="fill:#ffffff;fill-opacity:1;stroke:none;display:inline"
         inkscape:connector-curvature="0" />
      <path
         id="path5329-2"
         d="m 550.6875,515.90625 c -2.54575,0.16581 -5.14804,0.31428 -7.65625,0.59375 -8.28985,0.92319 -15.93013,2.21691 -23.03125,3.9375 -7.6578,2.41852 -13.36418,4.26746 -19.03125,6.71875 -2.07223,0.87777 -4.07805,1.84135 -6,2.9375 -2.03787,1.01436 -6.56701,5.25356 -9.5625,8 -3.06033,2.80604 -6.07189,5.59476 -8.28125,9 -0.74415,2.09774 -0.3792,2.27553 -0.625,2.9375 -18.17503,7.3758 -32.87984,17.44702 -44.4375,31.0625 -1.81053,-2.79716 -5.46697,-3.69544 -8.125,-5.59375 -0.57349,-4.77395 1.38421,-8.10342 3.0625,-10.4375 0.50704,-0.70507 2.21445,-1.95153 1.15625,-2.1875 -4.45456,1.64619 -6.64968,6.64298 -5.4375,12.6875 -4.04831,-0.79459 -9.4671,-0.54349 -12.78125,0.96875 -0.76514,-2.95546 -3.31102,-5.36188 -3,-8.4375 0.18983,-1.87887 2.46106,-3.80823 3.21875,-4.96875 0.10943,-0.16677 1.23995,-1.42791 0.25,-1.53125 -4.68953,1.38908 -5.51572,6.72219 -3.625,11.375 0.71997,1.77214 2.26977,2.91844 2.25,4.21875 -3.24737,0.99046 -4.85469,3.51032 -6.84375,5.6875 -4.51568,-2.36382 -7.35814,-7.55899 -5.90625,-14.46875 -0.97882,0.2632 -1.60721,0.88242 -1.8125,1.875 l 0.125,3.96875 c 0.41804,5.21747 3.39092,7.72938 7,9.5625 -6.34394,10.56818 -2.07416,26.34222 10.53125,26.25 1.56389,0.0399 4.31948,-0.12906 4.3125,0.78125 -0.38503,2.28635 -2.31511,17.26169 -2.46875,19.3125 l 0.0937,3.96875 c 0.9475,8.47259 3.31122,16.06516 6.1875,23 2.5343,6.11004 6.1334,12.73486 10.53125,16.46875 2.06335,1.75157 4.6223,3.38129 6.875,5 4.77727,3.43305 9.53019,6.49836 14.625,9.0625 5.25469,2.6446 11.04322,5.55024 16.09375,7.75 2.8586,1.24498 6.08159,1.99285 9.25,2.78125 6.33867,1.57703 12.76069,2.77592 19.375,4.3125 2.04901,0.56564 3.38738,0.66878 4.8125,0.8125 2.01358,0.20295 2.45706,-0.0489 4.65625,-0.15625 2.82922,-0.13816 5.41447,1.44921 8.28125,0.9375 -0.0614,0.23867 -0.0159,0.60805 -0.3125,0.625 -0.99978,2.63048 -1.21449,6.62117 -0.65625,9.96875 l 2.09375,0.0625 c 0.0162,-0.43652 0.007,-0.83099 0.0312,-1.1875 0.19427,-2.80876 -0.17572,-6.29316 0.375,-9.1875 4.48522,0.69413 9.75283,0.5427 14.34375,1.125 0.23496,2.4787 1.11687,4.88038 1.75,7.25 0.18211,0.68153 0.36703,1.39109 0.53125,2.09375 l 2.375,0 c -0.27985,-0.8299 -0.58942,-1.68026 -0.78125,-2.46875 -0.59755,-2.45705 -1.24702,-4.9771 -1.09375,-6.96875 1.80378,-0.23586 2.71255,0.4411 4.5625,0.15625 4.7847,0.0623 10.3647,-0.71037 14.65625,-0.125 0.25375,2.21593 -0.44922,3.55956 -0.15625,5.8125 l 0.0937,3.34375 c -6.4e-4,0.12579 0.0403,0.21094 0.0625,0.3125 l 2.8125,0.0312 c 0.16978,-2.7444 -0.87957,-5.90464 -0.96875,-8.9375 -1.10463,-1.38926 1.31306,-0.89001 2.40625,-1 1.47637,-0.14871 3.05017,-0.0136 3.96875,-0.125 6.26563,-0.81393 13.41866,-2.32087 18.8125,-2.96875 0.72299,4.23935 1.3411,9.06544 2.71875,13.15625 l 2.90625,0 c -0.95067,-4.51103 -3.21359,-8.59003 -3.46875,-13.84375 0.20342,-0.006 0.39033,0.006 0.59375,0 6.32823,-1.2489 11.54543,-3.01336 17.6875,-4.4375 -0.0247,0.56374 0.0165,1.03396 -0.0625,1.75 l -0.3125,8.375 c 0.35912,3.07852 -0.22031,7.18711 2.6875,7.5625 1.43307,-2.11961 -0.57932,-5.56564 -0.25,-8.5625 -0.42298,-1.71037 -0.54073,-8.56613 -0.375,-9.875 7.00704,-2.2893 12.99118,-5.49927 19.90625,-7.875 0.43262,5.51649 2.18247,9.63448 2.875,14.875 0.87395,2.43091 1.56184,5.68922 2.6875,8.4375 0.4677,1.14195 1.00636,2.65595 1.78125,3.75 l 3.15625,0.0312 c -0.3463,-1.84386 -1.43085,-3.58284 -2.21875,-5.34375 -0.94977,-2.12284 -2.28218,-4.15966 -2.65625,-6.65625 -1.71895,-4.67616 -2.43445,-10.39285 -3.1875,-16.09375 6.13665,-3.15562 12.09132,-6.75213 17.0625,-10.875 1.77773,-1.4744 3.12206,-3.36826 5.0625,-4.4375 3.24798,-1.79021 6.74513,-2.90653 9.9375,-4.84375 3.05291,-1.85254 5.55612,-4.03057 8.40625,-6.375 0.35696,-0.24673 4.63292,-5.54394 6.96875,-10.875 2.47624,-5.04217 4.84126,-9.97973 7.1875,-15.1875 2.62596,-5.82891 5.22802,-11.7244 6.0625,-18.59375 0.27816,-2.28978 0.36686,-4.67914 0.1875,-7.21875 l -0.15625,-4.5625 c -0.43305,-5.02197 -1.07274,-9.53925 -1.90625,-14 -0.78933,-4.22457 -1.36192,-8.43374 -2.5,-11.84375 -2.37388,-7.11169 -7.64135,-11.47892 -11.78125,-16.40625 -1.58862,-1.25028 -3.0648,-2.64384 -4.40625,-4.15625 -7.14849,-6.18714 -15.13762,-11.60631 -23.0625,-16.71875 -2.60926,-1.68302 -5.32937,-3.70005 -8.09375,-5.25 -8.80586,-4.93759 -19.24581,-7.82104 -29.625,-10.15625 -3.49037,-0.78534 -7.45197,-1.01433 -11.03125,-2.09375 -1.40406,-0.4233 -2.73413,-1.4763 -4.03125,-2.03125 -7.69895,-3.29399 -15.86436,-4.7858 -25.8125,-5.34375 -3.78058,-0.21209 -8.01363,-0.21921 -11.90625,-0.28125 z m 1.46875,2.0625 c 9.67926,-0.0127 19.13764,1.50015 27.40625,3.53125 0.96499,0.21598 1.29795,0.35753 2.15625,0.53125 -9.61386,1.25687 -22.1184,0.99149 -32.625,1.59375 -3.81421,0.45766 -8.39057,0.27243 -12.1875,0.84375 -5.16436,0.6689 -13.01169,2.78744 -17.46875,7.34375 -0.91508,1.24439 -1.53052,4.44321 -8.375,6.375 -4.25023,0.86751 -10.6352,2.77317 -14.53125,4.0625 -4.68711,1.35295 -7.78578,2.47953 -13,4.65625 -2.15914,0.96876 -3.1042,1.04446 -5.03125,1.8125 2.88542,-5.76465 8.94535,-9.88155 14.625,-14.4375 3.27273,-2.76996 8.49688,-4.11166 12.75,-6.34375 3.75452,-1.36208 6.64635,-2.84909 10.28125,-3.96875 6.76436,-2.22815 14.97214,-3.09725 22.75,-4.9375 4.40382,-0.72246 8.85033,-1.05673 13.25,-1.0625 z m 15.8125,6.9375 c 14.71101,-0.18198 29.27136,1.81269 44.46875,5.75 11.54572,3.44202 12.12459,3.35434 36.9375,19.0625 10.10401,6.85159 23.35038,16.63808 28.3125,28.71875 0.71324,1.61656 2.6914,9.34568 3.15625,11.75 0.77965,3.06863 1.50008,6.81709 1.875,10.59375 0.41836,3.62459 0.22504,8.88299 -0.3125,13.5625 -0.32254,2.80772 -0.78322,5.41427 -1.3125,7.34375 -0.15858,0.98136 -1.93902,6.77971 -2.53125,8 -0.68846,1.32536 -1.08436,2.50827 -1.6875,3.71875 -0.84015,1.4402 -1.61299,3.36741 -2.3125,4.96875 -1.12792,2.79134 -2.84475,5.46007 -4.03125,7.75 -0.33854,0.68445 -0.89983,1.31066 -1.15625,2.15625 -1.77786,5.45794 -7.0371,10.14751 -11.5,14.375 -2.64402,2.04549 -7.39683,4.9229 -12.65625,7.34375 -6.79269,3.73998 -22.62289,3.35542 -31.875,3.40625 -3.74546,-0.21894 -8.13905,-0.78805 -12.25,-1.15625 -5.76004,-0.44911 -11.33109,-2.39079 -17.8125,-4.0625 -2.40434,-0.83143 -4.58942,-1.41468 -7.4375,-2.34375 -2.94602,-0.67968 -3.72669,-1.00135 -7.53125,-1.96875 -7.02899,-1.59328 -15.22658,-4.12749 -22.65625,-7.6875 -2.14951,-0.98776 -3.54353,-2.08013 -5.59375,-3.5 -3.05193,-1.96256 -5.57965,-4.34423 -8.125,-6.78125 -1.04497,-0.99783 -3.68236,-3.82416 -5.03125,-5.625 -1.37183,-1.75591 -2.42717,-2.9532 -3.8125,-5.40625 -1.28552,-1.9032 -3.77675,-7.22022 -5.1875,-9.59375 -0.32242,-1.29422 -2.02073,-5.09891 -2.65625,-7.25 -0.25867,-1.04582 -0.43159,-1.2437 -0.6875,-2.125 -0.9308,-2.04925 -1.73864,-6.00069 -2.6875,-8.78125 -0.30757,-1.17937 -0.41771,-1.4956 -0.71875,-3.03125 -0.99998,-5.03846 -2.60814,-10.56406 -3.28125,-15.90625 -0.68567,-7.43774 0.91674,-20.44828 2.875,-28.125 0.81385,-2.59348 1.75392,-4.71612 2.5625,-7.90625 1.22693,-4.12849 2.69349,-8.28501 4.53125,-12.34375 3.47331,-7.53932 3.34335,-7.97228 13.375,-11.8125 5.91973,-1.72972 20.32433,-3.14141 33.8125,-3.03125 0.98232,-0.0316 1.95677,-0.0504 2.9375,-0.0625 z m -53.21875,14.375 c 0.69593,0.18821 -0.11387,1.59888 -0.21875,1.84375 -4.50245,10.47252 -9.01694,23.2627 -9.25,38.09375 l 0.15625,6.125 c 2.65804,17.15106 6.28095,33.42316 12.96875,46.9375 0.92911,1.87741 3.1296,4.15451 3.53125,6.28125 0.62761,3.32306 -0.42266,8.99524 -0.8125,13.46875 -0.1,1.14766 -0.21772,2.23272 -0.34375,3.3125 -0.88133,7.55852 -2.34212,13.65856 -3.53125,20.90625 -1.26813,7.73035 -2.37698,12.92875 -6.1875,18.1875 -1.39366,1.92342 -3.51721,4.27836 -5.3125,5.0625 -1.13316,0.49485 -5.00787,1.51686 -6.6875,1.40625 -1.9164,-0.12644 -5.18445,-1.22197 -7.5,-1.84375 -6.01777,-1.61608 -15.306,-3.00398 -20.53125,-4.96875 -3.51992,-1.32385 -7.00149,-3.56013 -10.78125,-5.15625 -7.55675,-3.19136 -14.10242,-6.8437 -20.46875,-11.625 -6.62261,-4.97399 -12.23815,-10.28526 -15.9375,-18.71875 -1.30639,-2.97802 -2.94352,-8.18461 -4.21875,-12.71875 -1.11568,-3.96683 -2.642,-8.03185 -3.09375,-11.21875 -1.45391,-10.25895 1.65201,-16.63344 3.25,-25.125 8.14217,-2.99788 14.54305,-7.62467 15.65625,-17.25 l -0.15625,-4.59375 c -0.27711,-1.64283 -1.37478,-2.82843 -1.3125,-3.90625 0.12354,-2.14157 5.19718,-6.33701 7.375,-8.46875 8.00214,-7.8331 17.73884,-13.96524 28.15625,-18.84375 7.096,-3.32303 14.11808,-6.88548 21.375,-9.46875 7.81369,-2.78126 15.64145,-5.89828 23.875,-7.71875 z m 39.03125,7.59375 c -10.67291,0.31378 -19.11598,8.08431 -18.84375,17.34375 0.27223,9.25944 9.13959,16.50128 19.8125,16.1875 10.67291,-0.31378 19.11598,-8.05306 18.84375,-17.3125 -0.27223,-9.25944 -9.13959,-16.53253 -19.8125,-16.21875 z m 74.9375,9.34375 c -9.22816,0.27131 -16.48514,7.84543 -16.21875,16.90625 0.26639,9.06082 7.95934,16.17756 17.1875,15.90625 9.22816,-0.27131 16.48514,-7.81418 16.21875,-16.875 -0.26639,-9.06082 -7.95934,-16.20881 -17.1875,-15.9375 z M 478.3125,561.6875 c -7.30715,1.99684 -4.05482,11.41744 -1.375,15.59375 -3.14848,1.08401 -4.94008,3.42982 -6.84375,5.6875 -4.43811,-2.32093 -7.52245,-7.58285 -5.90625,-14.46875 -2.3985,0.67826 -1.99123,4.21093 -1.65625,6.46875 0.74834,5.04167 4.01404,7.60257 7.28125,8.9375 -6.89063,10.11143 -2.29175,26.42062 10.25,26.25 1.93144,-0.0568 3.84973,-0.0995 5.78125,-0.15625 9.36713,-2.4359 15.93789,-7.51714 17.5,-17.3125 -0.0508,-1.72833 -0.10545,-3.45918 -0.15625,-5.1875 -1.33957,-6.54626 -6.25784,-9.30207 -11.34375,-11.875 -0.55269,-5.19764 1.52102,-8.62659 3.34375,-11.09375 0.18083,-0.24463 2.03105,-1.03016 0.875,-1.53125 -4.6292,1.52038 -6.53552,6.66392 -5.4375,12.65625 -4.06334,-0.99499 -9.66034,-0.32772 -13.09375,1 -0.62045,-3.1624 -2.96968,-5.62396 -2.40625,-9.09375 0.20673,-1.27407 1.44169,-2.15731 2.0625,-3.09375 0.54598,-0.82341 1.89555,-2.77725 1.125,-2.78125 z M 415.375,577.875 c 5.13102,-0.031 10.7999,1.06883 12.96875,2.375 1.49128,0.89813 4.21997,4.06362 4.75,5.6875 0.68217,2.09026 0.7992,4.45592 0.53125,6.6875 -0.26796,2.23159 -0.91984,4.34255 -1.6875,5.875 -1.75559,3.50454 -7.99173,8.37403 -12.9375,9.21875 -10.38021,1.77279 -16.32749,-2.63883 -18.625,-11.34375 -0.35091,-1.51965 0.0953,-3.65899 0.25,-4.90625 1.56317,-5.47075 3.57779,-11.10044 8.46875,-12.75 1.7196,-0.57997 3.94897,-0.82968 6.28125,-0.84375 z m 67.65625,0.0937 c 4.90314,-0.0703 10.31596,0.93249 12.625,2.125 1.79554,0.92735 4.70239,3.8868 5.375,5.9375 1.42833,4.35384 0.21571,9.28624 -1.46875,12.5625 -6.42202,12.49107 -30.30594,13.50287 -31.28125,-2.40625 -0.0492,-1.00766 -0.0733,-3.66919 0.0312,-4.65625 0.78859,-5.2279 5.07595,-11.50056 8.6875,-12.71875 1.67285,-0.56418 3.80255,-0.8118 6.03125,-0.84375 z m -19.4375,11.2813 c -1.26449,-0.006 -0.23511,2.12615 -0.5,3.0625 0.0328,1.11807 0.0609,2.25663 0.0937,3.375 l -0.3125,0 c -7.80043,1.62247 -17.44453,1.00697 -23.84375,-0.8125 0.29956,-1.37682 1.54189,-5.1608 0.46875,-5.53125 -1.14367,0.15847 -0.5152,1.67618 -0.5625,2.15625 -0.5071,5.12583 -3.13359,9.05365 -5.71875,12.375 -1.04945,1.3486 -2.3742,2.93063 -3.5625,4.09375 -1.11947,1.09577 -3.95325,2.43497 -2.9375,3.75 1.43525,-0.92434 3.46375,-2.87437 4.5,-3.1875 1.17258,10.91677 6.12491,17.79397 16.71875,18.71875 1.72832,-0.0508 3.45918,-0.0742 5.1875,-0.125 8.45483,-0.82487 11.66388,-6.60836 16.46875,-10.875 0.60989,0.8206 1.58191,1.26071 3.09375,1.125 -1.31028,-2.58079 -3.63537,-4.02063 -5.09375,-6.25 -3.50228,-5.3545 -2.91037,-14.63134 -4,-21.875 z m -45,1.09375 c -2.94292,-0.10609 -4.35812,1.23466 -4.15625,4.09375 2.59546,2.00302 5.69898,-1.24782 4.15625,-4.09375 z m 67.1875,0.0937 c -0.69962,0.0266 -1.38873,0.16943 -1.84375,0.40625 -0.55218,0.89321 -0.27009,3.05546 0.0937,3.96875 2.63536,0.79551 3.61356,-1.17634 4.1875,-3.15625 -0.10204,-0.9341 -1.27146,-1.26314 -2.4375,-1.21875 z m -47,5.34375 c 2.61111,0.37559 3.85607,2.2075 6.78125,2.25 -0.22167,1.66918 -0.92744,3.0261 -1.09375,4.59375 0.0149,0.5081 0.0163,1.02283 0.0312,1.53125 0.74415,1.30762 2.38549,1.59532 4.34375,1.71875 1.21992,-0.0359 2.43633,-0.0891 3.65625,-0.125 0.60996,-0.0179 1.20255,-0.0133 1.8125,-0.0312 1.08209,-1.01698 0.97276,-1.48698 1.15625,-2.5 l -0.0937,-3.03125 c -0.0261,-0.88779 -0.2951,-1.12544 -0.375,-2.125 l 7.9375,-0.25 c 0.22357,3.40804 0.63021,12.40872 3.1875,14.875 0.65492,0.70982 1.23116,1.14335 1.875,1.78125 0.28902,0.96431 -0.22897,1.15393 -0.5625,1.53125 -1.49105,1.55938 -2.98959,3.10086 -4.75,4.40625 -2.1839,1.82172 -6.34911,4.63314 -9.5625,5.1875 -2.57848,0.46234 -7.43997,-0.40503 -9.84375,-1.25 -3.96634,-1.34917 -6.70442,-4.01682 -8.1875,-8 -0.60759,-2.01204 -2.17553,-6.04567 -3.0625,-8.25 1.94601,-2.81053 4.01772,-5.18259 5.625,-8.3125 0.56912,-1.36854 0.84978,-2.3601 1.125,-4 z m 13.78125,2.34375 c 0.73567,1.4753 1.74519,3.82042 1.09375,5.78125 -2.78332,0.12151 -5.62836,0.27344 -7.65625,-0.40625 0.14273,-1.84205 0.86455,-3.132 0.78125,-5.1875 l 2.4375,-0.0937 c 1.11837,-0.0329 2.22538,-0.0608 3.34375,-0.0937 z m 203.59375,6.5625 c -6.81113,0.20025 -12.13826,6.76475 -11.90625,14.65625 0.23201,7.8915 5.93887,14.13775 12.75,13.9375 6.81113,-0.20025 12.13826,-6.76475 11.90625,-14.65625 -0.23201,-7.8915 -5.93887,-14.13775 -12.75,-13.9375 z m -65.375,3.625 c -8.90436,0.26179 -15.92989,7.1617 -15.6875,15.40625 0.24239,8.24455 7.65814,14.69929 16.5625,14.4375 8.90436,-0.26179 15.92989,-7.13045 15.6875,-15.375 -0.24239,-8.24455 -7.65814,-14.73054 -16.5625,-14.46875 z m -150.4375,20.40625 c 0.94077,1.94035 6.12916,3.8057 8.3125,3.75 3.01,-0.13699 7.14456,-1.31855 9.71875,-3.375 -3.80247,0.56996 -7.58438,2.62863 -12.0625,1.8125 -1.95979,-0.3572 -3.62268,-1.85486 -5.96875,-2.1875 z m 7.5625,7.25 c -0.56478,0.0272 -1.06249,0.26723 -1.46875,0.90625 1.97231,-0.25547 4.45316,1.78799 5.75,-0.28125 -1.4717,0.24274 -3.03874,-0.68489 -4.28125,-0.625 z"
         style="fill:#000000;fill-opacity:1;stroke:none;display:inline"
         inkscape:connector-curvature="0" />
    </g>
  </g>
</svg>
