<?xml version="1.0" encoding="UTF-8" standalone="no"?>
<svg
   xmlns:dc="http://purl.org/dc/elements/1.1/"
   xmlns:cc="http://creativecommons.org/ns#"
   xmlns:rdf="http://www.w3.org/1999/02/22-rdf-syntax-ns#"
   xmlns:svg="http://www.w3.org/2000/svg"
   xmlns="http://www.w3.org/2000/svg"
   version="1.1"
   height="512"
   width="512">
  <g>
    <path
       d="m 247.62748,486.14363 c 0,0 -52.81818,-30.49144 -52.81818,-30.49144 0,0 0,-60.01597 0,-60.01597 1.88575,-0.75911 3.71655,-1.6247 5.50097,-2.67062 29.00242,-16.8584 32.04744,-65.79344 6.76328,-109.32541 -25.27901,-43.51308 -69.2953,-65.14253 -98.30975,-48.29615 -29.023026,16.84466 -32.056027,65.80546 -6.77015,109.33228 3.72342,6.39918 7.84871,12.31061 12.26425,17.70338 0,0 0,46.78137 0,46.78137 0,0 -61.453467,-35.47718 -61.453467,-35.47718 0,0 0,-225.12557 0,-225.12557 0,0 -22.507061,-12.99415 -22.507061,-12.99415 C 11.070623,171.50333 0,212.45399 0,256.05294 0,394.61606 110.12574,507.4107 247.62748,511.852 c 0,0 0,-25.70837 0,-25.70837 z"
       style="fill:#209466;stroke:none;" />
    <path
       d="m 481.74213,135.64489 c 0,0 -22.55343,13.0285 -22.55343,13.0285 0,0 0,71.20681 0,71.20681 0,0 -42.35896,24.03044 -42.35896,24.03044 -3.08624,-3.59633 -6.67569,-6.68257 -10.82847,-9.09729 -29.01616,-16.85153 -73.04447,4.7762 -98.32348,48.28928 -25.26527,43.53369 -22.25288,92.47388 6.7547,109.33228 29.0299,16.84638 73.03932,-4.76933 98.32348,-48.29615 5.46146,-9.40471 9.60049,-19.05157 12.43255,-28.59195 0,0 34.00018,-19.69046 34.00018,-19.69046 0,0 0,77.82754 0,77.82754 0,0 -194.47441,112.27769 -194.47441,112.27769 0,0 0,25.87668 0,25.87668 C 402.07005,507.23552 512,394.50786 512,256.05294 512,212.47975 500.94999,171.5497 481.74213,135.64489 Z"
       style="fill:#163b64;stroke:none;" />
    <path
       d="m 39.198112,120.73607 c 0,0 22.559735,13.0176 22.559735,13.0176 0,0 61.666913,-35.60341 61.666913,-35.60341 0,0 41.99043,24.66872 41.99043,24.66872 -1.57138,4.47093 -2.44942,9.1226 -2.46424,13.92636 -0.0857,33.5545 40.65854,60.87025 90.98147,61.00598 50.33393,0.11353 91.21119,-26.96537 91.30719,-60.51587 0.0744,-33.56381 -40.65002,-60.86923 -90.98743,-61.00255 -10.87544,-0.0275 -21.29939,1.21152 -30.97764,3.52907 0,0 -34.05252,-19.59978 -34.05252,-19.59978 0,0 67.40064,-38.91377 67.40064,-38.91377 0,0 194.47253,112.28091 194.47253,112.28091 0,0 22.40985,-12.93834 22.40985,-12.93834 C 400.84107,3.93879 248.25108,-34.8995 128.3456,34.32796 90.610113,56.11456 60.688671,86.14916 39.198112,120.73607 Z"
       style="fill:#c42028;stroke:none;" />
  </g>
</svg>
