<?xml version="1.0" encoding="UTF-8" standalone="no"?>
<svg
   xmlns:dc="http://purl.org/dc/elements/1.1/"
   xmlns:cc="http://creativecommons.org/ns#"
   xmlns:rdf="http://www.w3.org/1999/02/22-rdf-syntax-ns#"
   xmlns:svg="http://www.w3.org/2000/svg"
   xmlns="http://www.w3.org/2000/svg"
   version="1.0"
   width="710"
   height="140">
  <g>
    <path
       d="m 193.749,98.2425 h -41.382 c 2.543,2.131 5.485,3.729 8.602,4.84 h 24.156 c 3.127,-1.112 6.075,-2.709 8.624,-4.84"
       style="fill:#143d69" />
    <path
       d="m 144.055,39.5385 h 17.124 v -4.84 h -17.124 z"
       style="fill:#143d69" />
    <path
       d="m 144.055,46.5965 h 17.124 v -4.838 h -17.124 z"
       style="fill:#143d69" />
    <path
       d="m 144.055,53.6575 h 17.124 v -4.838 h -17.124 z"
       style="fill:#143d69" />
    <path
       d="m 144.055,60.7175 h 17.124 v -4.838 h -17.124 z"
       style="fill:#143d69" />
    <path
       d="m 144.055,67.7785 h 17.124 v -4.838 h -17.124 z"
       style="fill:#143d69" />
    <path
       d="m 144.055,74.8385 h 17.124 v -4.838 h -17.124 z"
       style="fill:#143d69" />
    <path
       d="m 144.193,81.8995 h 17.308 c -0.217,-1.252 -0.32,-2.592 -0.32,-4 v -0.838 h -17.125 v 2.279 c -0.001,0.889 0.066,1.723 0.137,2.559"
       style="fill:#143d69" />
    <path
       d="m 145.723,88.9575 h 19.531 c -1.521,-1.215 -2.555,-2.87 -3.2,-4.837 h -17.58 c 0.281,1.724 0.686,3.349 1.249,4.837"
       style="fill:#143d69" />
    <path
       d="m 199.429,91.1815 h -52.736 c 0.92,1.809 2.054,3.412 3.345,4.838 h 46.048 c 1.289,-1.426 2.427,-3.029 3.343,-4.838"
       style="fill:#143d69" />
    <path
       d="M 201.654,84.1185 H 184.07 c -0.648,1.969 -1.69,3.622 -3.219,4.839 h 19.55 c 0.564,-1.488 0.969,-3.113 1.253,-4.839"
       style="fill:#143d69" />
    <path
       d="m 184.945,39.5385 h 17.125 v -4.84 h -17.125 z"
       style="fill:#143d69" />
    <path
       d="m 184.945,46.5965 h 17.125 v -4.838 h -17.125 z"
       style="fill:#143d69" />
    <path
       d="m 184.945,53.6575 h 17.125 v -4.838 h -17.125 z"
       style="fill:#143d69" />
    <path
       d="m 184.945,60.7175 h 17.125 v -4.838 h -17.125 z"
       style="fill:#143d69" />
    <path
       d="m 184.945,67.7785 h 17.125 v -4.838 h -17.125 z"
       style="fill:#143d69" />
    <path
       d="m 184.945,74.8385 h 17.125 v -4.838 h -17.125 z"
       style="fill:#143d69" />
    <path
       d="m 202.071,79.3405 v -2.279 h -17.126 v 0.84 c 0,1.406 -0.104,2.744 -0.32,3.998 h 17.308 c 0.07,-0.834 0.138,-1.67 0.138,-2.559"
       style="fill:#143d69" />
    <path
       d="m 78.591,96.0195 h 17.936 l 0.029,-0.088 h -0.051 l 1.485,-4.752 H 80.378 l -1.787,4.84"
       style="fill:#143d69" />
    <path
       d="m 77.769,98.2425 -1.785,4.84 h 18.272 l 1.557,-4.84 H 77.769"
       style="fill:#143d69" />
    <path
       d="m 40.724,103.0825 h 17.125 v -4.84 H 40.724 Z"
       style="fill:#143d69" />
    <path
       d="m 40.724,96.0195 h 17.125 v -4.838 H 40.724 Z"
       style="fill:#143d69" />
    <path
       d="m 40.724,88.9575 h 17.125 v -4.837 H 40.724 Z"
       style="fill:#143d69" />
    <path
       d="m 40.724,81.8995 h 17.125 v -4.838 H 40.724 Z"
       style="fill:#143d69" />
    <path
       d="m 40.724,60.7175 h 17.125 v -4.838 H 40.724 Z"
       style="fill:#143d69" />
    <path
       d="m 40.724,53.6575 h 17.125 v -4.838 H 40.724 Z"
       style="fill:#143d69" />
    <path
       d="m 40.724,39.5385 h 52.339 v -4.84 H 40.724 Z"
       style="fill:#143d69" />
    <path
       d="m 40.724,46.5965 h 52.339 v -4.838 H 40.724 Z"
       style="fill:#143d69" />
    <path
       d="M 108.862,55.8795 H 93.418 l -1.788,4.838 h 15.781 l 1.451,-4.838"
       style="fill:#143d69" />
    <path
       d="m 99.454,39.5385 h 21.318 l -1.828,-4.84 h -17.702 l -1.788,4.84"
       style="fill:#143d69" />
    <path
       d="m 96.846,46.5965 h 26.594 l -1.829,-4.838 H 98.632 l -1.786,4.838"
       style="fill:#143d69" />
    <path
       d="m 111.044,53.6575 h 15.063 l -1.828,-4.838 H 96.025 l -1.787,4.838 h 15.288 l 0.663,-2.217 h 0.191 l 0.664,2.217"
       style="fill:#143d69" />
    <path
       d="m 113.159,60.7175 h 15.615 l -1.827,-4.838 h -15.236 l 1.448,4.838"
       style="fill:#143d69" />
    <path
       d="m 115.271,67.7785 h 16.171 l -1.827,-4.838 h -15.79 l 1.446,4.838"
       style="fill:#143d69" />
    <path
       d="m 117.385,74.8385 h 16.725 l -1.829,-4.84 h -16.346 l 1.45,4.84"
       style="fill:#143d69" />
    <path
       d="m 83.806,81.8995 h 52.97 l -1.828,-4.838 H 85.594 l -1.788,4.838"
       style="fill:#143d69" />
    <path
       d="m 81.199,88.9575 h 58.245 l -1.829,-4.837 h -54.63 l -1.786,4.837"
       style="fill:#143d69" />
    <path
       d="m 124.191,96.0195 h 17.923 l -1.83,-4.838 h -17.672 l 1.579,4.838"
       style="fill:#143d69" />
    <path
       d="m 144.779,103.0825 -1.827,-4.84 h -18.098 l 1.555,4.84 h 18.37"
       style="fill:#143d69" />
    <path
       d="m 40.724,70.0225 v 4.836 h 62.462 l 1.448,-4.836 h -63.91"
       style="fill:#143d69" />
    <path
       d="m 40.724,62.9205 v 4.838 h 64.575 l 1.447,-4.838 H 40.724"
       style="fill:#143d69" />
  </g>
  <g>
    <path
       d="m 562.293,103.0675 8.07,-21.46 h 31.146 l 7.881,21.46 h 6.646 l -26.208,-68.368 h -7.311 l -24.709,62.861 h -34.886 v -62.861 h -6.458 v 68.368 z m 10.254,-26.969 13.388,-35.891 13.39,35.891 z"
       style="fill:#143d69" />
    <path
       d="m 504.226,41.9805 c 2.091,2.908 3.139,6.386 3.139,10.436 0,4.177 -1.057,7.531 -3.167,10.066 -1.179,1.423 -2.918,2.721 -5.214,3.896 3.488,1.269 6.121,3.278 7.897,6.03 1.775,2.752 2.663,6.092 2.663,10.02 0,4.05 -1.014,7.683 -3.044,10.898 -1.291,2.134 -2.906,3.927 -4.842,5.381 -2.184,1.67 -4.758,2.813 -7.724,3.434 -2.969,0.617 -6.188,0.926 -9.662,0.926 h -30.805 v -68.368 h 33.039 c 8.338,0.124 14.245,2.551 17.72,7.281 z m -37.122,4.591 v 15.075 h 16.617 c 2.968,0 5.378,-0.563 7.229,-1.691 1.851,-1.128 2.776,-3.132 2.776,-6.007 0,-3.185 -1.224,-5.289 -3.672,-6.309 -2.111,-0.711 -4.805,-1.068 -8.079,-1.068 z m 0,26.394 v 18.228 h 16.6 c 2.963,0 5.271,-0.401 6.922,-1.206 2.995,-1.483 4.494,-4.328 4.494,-8.534 0,-3.555 -1.453,-5.999 -4.355,-7.328 -1.622,-0.742 -3.898,-1.128 -6.832,-1.159 h -16.829 z"
       style="fill:#143d69" />
    <path
       d="m 425.09,34.6995 h -17.663 l -10.402,28.214888 h -32.896 v -16.32075 h 35.138 V 34.6995 H 347.04 v 68.368 h 17.089 V 74.829567 l 28.5,0.01403 -10.404,28.223903 h 18.232 l 4.326,-14.12247 h 23.437 l 4.32,14.12247 h 18.329 z m -16.305,42.354394 7.648,-25.617835 7.874,25.617835 z"
       style="fill:#143d69" />
    <path
       d="m 619.047,103.0675 v -68.368 h 24.688 c 3.987,0 7.405,0.414 10.254,1.235 2.85,0.823 5.176,1.994 6.979,3.513 1.805,1.519 3.117,3.338 3.94,5.46 0.822,2.121 1.234,4.448 1.234,6.979 0,2.408 -0.316,4.48 -0.949,6.221 -0.633,1.741 -1.458,3.196 -2.468,4.366 -1.014,1.172 -2.17,2.09 -3.468,2.754 -1.297,0.665 -2.644,1.124 -4.034,1.376 v 0.19 c 4.747,0.698 8.275,2.564 10.588,5.603 2.309,3.039 3.465,6.836 3.465,11.395 0,3.544 -0.555,6.552 -1.662,9.021 -1.107,2.468 -2.645,4.462 -4.604,5.981 -1.963,1.519 -4.321,2.611 -7.075,3.275 -2.753,0.667 -5.744,0.998 -8.973,0.998 h -27.915 z m 6.456,-38.171 h 16.332 c 3.354,0 6.173,-0.286 8.451,-0.856 2.279,-0.569 4.115,-1.408 5.508,-2.516 1.392,-1.107 2.389,-2.468 2.99,-4.083 0.602,-1.613 0.902,-3.464 0.902,-5.554 0,-2.15 -0.348,-3.972 -1.044,-5.46 -0.698,-1.486 -1.804,-2.689 -3.324,-3.607 -1.52,-0.917 -3.498,-1.582 -5.935,-1.996 -2.438,-0.412 -5.429,-0.616 -8.972,-0.616 h -14.909 v 24.688 z m 0,32.662 h 16.428 c 3.544,0 6.63,-0.157 9.257,-0.475 2.626,-0.315 4.796,-0.965 6.505,-1.945 1.71,-0.981 2.99,-2.374 3.847,-4.178 0.854,-1.806 1.281,-4.193 1.281,-7.169 0,-2.849 -0.476,-5.145 -1.426,-6.886 -0.948,-1.738 -2.31,-3.086 -4.081,-4.034 -1.773,-0.951 -3.894,-1.598 -6.362,-1.947 -2.469,-0.347 -5.223,-0.521 -8.262,-0.521 h -17.187 z"
       style="fill:#143d69" />
  </g>
  <g>
    <path
       style="fill:#209466;stroke:none"
       d="m 273.98866,122.18741 c 0,0 -11.97229,-6.9115 -11.97229,-6.9115 0,0 0,-13.60381 0,-13.60381 0.42744,-0.17207 0.84243,-0.36827 1.24691,-0.60535 6.57397,-3.82129 7.26419,-14.91339 1.53303,-24.78078 -5.72999,-9.86311 -15.70716,-14.76586 -22.28387,-10.94729 -6.57864,3.81818 -7.26613,14.91612 -1.53458,24.78234 0.84398,1.4505 1.77906,2.79045 2.77993,4.01283 0,0 0,10.60392 0,10.60392 0,0 -13.92965,-8.0416 -13.92965,-8.0416 0,0 0,-51.0292 0,-51.0292 0,0 -5.10167,-2.94538 -5.10167,-2.94538 -4.35813,8.14632 -6.86751,17.42861 -6.86751,27.31118 0,31.40809 24.9622,56.97524 56.1297,57.98195 0,0 0,-5.82731 0,-5.82731 z" />
    <path
       style="fill:#163b64;stroke:none"
       d="m 327.05541,42.73988 c 0,0 -5.11218,2.95317 -5.11218,2.95317 0,0 0,16.14044 0,16.14044 0,0 -9.6015,5.44698 -9.6015,5.44698 -0.69956,-0.81518 -1.51318,-1.51473 -2.45449,-2.06208 -6.57709,-3.81973 -16.55699,1.08262 -22.28698,10.94573 -5.72687,9.86778 -5.04406,20.96105 1.53109,24.78234 6.58021,3.81857 16.55582,-1.08107 22.28698,-10.94729 1.23794,-2.13176 2.17614,-4.31841 2.81808,-6.48093 0,0 7.70682,-4.46324 7.70682,-4.46324 0,0 0,17.64117 0,17.64117 0,0 -44.0815,25.44997 -44.0815,25.44997 0,0 0,5.86547 0,5.86547 31.13442,-1.04331 56.05223,-26.59528 56.05223,-57.97884 0,-9.87673 -2.5047,-19.15435 -6.85855,-27.29289 z" />
    <path
       style="fill:#c42028;stroke:none"
       d="m 226.744,39.3605 c 0,0 5.11361,2.9507 5.11361,2.9507 0,0 13.97803,-8.07022 13.97803,-8.07022 0,0 9.51797,5.59166 9.51797,5.59166 -0.35618,1.01342 -0.55521,2.06781 -0.55857,3.15668 -0.0194,7.6058 9.21607,13.79746 20.62276,13.82822 11.40919,0.0257 20.67484,-6.11223 20.6966,-13.71712 0.0169,-7.60791 -9.21414,-13.79723 -20.62412,-13.82745 -2.46513,-0.006 -4.82793,0.27462 -7.02169,0.79994 0,0 -7.71869,-4.44268 -7.71869,-4.44268 0,0 15.2777,-8.82059 15.2777,-8.82059 0,0 44.08107,25.45071 44.08107,25.45071 0,0 5.07964,-2.93273 5.07964,-2.93273 C 308.71758,12.88607 274.13002,4.0826 246.95105,19.77438 238.39755,24.71275 231.61526,31.52069 226.744,39.3605 Z" />
  </g>
</svg>
