<?xml version="1.0" encoding="utf-8"?>
<!-- Generator: Adobe Illustrator 22.1.0, SVG Export Plug-In . SVG Version: 6.00 Build 0)  -->
<svg version="1.1"
	 id="Layer_1" xmlns:cc="http://creativecommons.org/ns#" xmlns:dc="http://purl.org/dc/elements/1.1/" xmlns:rdf="http://www.w3.org/1999/02/22-rdf-syntax-ns#" xmlns:svg="http://www.w3.org/2000/svg"
	 xmlns="http://www.w3.org/2000/svg" xmlns:xlink="http://www.w3.org/1999/xlink" x="0px" y="0px" viewBox="0 0 710 140"
	 style="enable-background:new 0 0 710 140;" xml:space="preserve">
<style type="text/css">
	.st0{fill:#FFFFFF;}
</style>
<g>
	<path class="st0" d="M193.7,98.2h-41.4c2.5,2.1,5.5,3.7,8.6,4.8h24.2C188.3,102,191.2,100.4,193.7,98.2"/>
	<path class="st0" d="M144.1,39.5h17.1v-4.8h-17.1V39.5z"/>
	<path class="st0" d="M144.1,46.6h17.1v-4.8h-17.1V46.6z"/>
	<path class="st0" d="M144.1,53.7h17.1v-4.8h-17.1V53.7z"/>
	<path class="st0" d="M144.1,60.7h17.1v-4.8h-17.1V60.7z"/>
	<path class="st0" d="M144.1,67.8h17.1v-4.8h-17.1V67.8z"/>
	<path class="st0" d="M144.1,74.8h17.1V70h-17.1V74.8z"/>
	<path class="st0" d="M144.2,81.9h17.3c-0.2-1.3-0.3-2.6-0.3-4v-0.8h-17.1v2.3C144.1,80.2,144.1,81.1,144.2,81.9"/>
	<path class="st0" d="M145.7,89h19.5c-1.5-1.2-2.6-2.9-3.2-4.8h-17.6C144.8,85.8,145.2,87.5,145.7,89"/>
	<path class="st0" d="M199.4,91.2h-52.7c0.9,1.8,2.1,3.4,3.3,4.8h46C197.4,94.6,198.5,93,199.4,91.2"/>
	<path class="st0" d="M201.7,84.1h-17.6c-0.6,2-1.7,3.6-3.2,4.8h19.6C201,87.5,201.4,85.8,201.7,84.1"/>
	<path class="st0" d="M184.9,39.5h17.1v-4.8h-17.1V39.5z"/>
	<path class="st0" d="M184.9,46.6h17.1v-4.8h-17.1V46.6z"/>
	<path class="st0" d="M184.9,53.7h17.1v-4.8h-17.1V53.7z"/>
	<path class="st0" d="M184.9,60.7h17.1v-4.8h-17.1V60.7z"/>
	<path class="st0" d="M184.9,67.8h17.1v-4.8h-17.1V67.8z"/>
	<path class="st0" d="M184.9,74.8h17.1V70h-17.1V74.8z"/>
	<path class="st0" d="M202.1,79.3v-2.3h-17.1v0.8c0,1.4-0.1,2.7-0.3,4h17.3C202,81.1,202.1,80.2,202.1,79.3"/>
	<path class="st0" d="M78.6,96h17.9l0-0.1h-0.1l1.5-4.8H80.4L78.6,96"/>
	<path class="st0" d="M77.8,98.2l-1.8,4.8h18.3l1.6-4.8L77.8,98.2"/>
	<path class="st0" d="M40.7,103.1h17.1v-4.8H40.7V103.1z"/>
	<path class="st0" d="M40.7,96h17.1v-4.8H40.7V96z"/>
	<path class="st0" d="M40.7,89h17.1v-4.8H40.7V89z"/>
	<path class="st0" d="M40.7,81.9h17.1v-4.8H40.7V81.9z"/>
	<path class="st0" d="M40.7,60.7h17.1v-4.8H40.7V60.7z"/>
	<path class="st0" d="M40.7,53.7h17.1v-4.8H40.7V53.7z"/>
	<path class="st0" d="M40.7,39.5h52.3v-4.8H40.7V39.5z"/>
	<path class="st0" d="M40.7,46.6h52.3v-4.8H40.7V46.6z"/>
	<path class="st0" d="M108.9,55.9H93.4l-1.8,4.8h15.8L108.9,55.9"/>
	<path class="st0" d="M99.5,39.5h21.3l-1.8-4.8h-17.7L99.5,39.5"/>
	<path class="st0" d="M96.8,46.6h26.6l-1.8-4.8h-23L96.8,46.6"/>
	<path class="st0" d="M111,53.7h15.1l-1.8-4.8H96l-1.8,4.8h15.3l0.7-2.2h0.2L111,53.7"/>
	<path class="st0" d="M113.2,60.7h15.6l-1.8-4.8h-15.2L113.2,60.7"/>
	<path class="st0" d="M115.3,67.8h16.2l-1.8-4.8h-15.8L115.3,67.8"/>
	<path class="st0" d="M117.4,74.8h16.7l-1.8-4.8h-16.3L117.4,74.8"/>
	<path class="st0" d="M83.8,81.9h53l-1.8-4.8H85.6L83.8,81.9"/>
	<path class="st0" d="M81.2,89h58.2l-1.8-4.8H83L81.2,89"/>
	<path class="st0" d="M124.2,96h17.9l-1.8-4.8h-17.7L124.2,96"/>
	<path class="st0" d="M144.8,103.1l-1.8-4.8h-18.1l1.6,4.8L144.8,103.1"/>
	<path class="st0" d="M40.7,70v4.8h62.5l1.4-4.8H40.7"/>
	<path class="st0" d="M40.7,62.9v4.8h64.6l1.4-4.8L40.7,62.9"/>
</g>
<g>
	<path class="st0" d="M562.3,103.1l8.1-21.5h31.1l7.9,21.5h6.6l-26.2-68.4h-7.3l-24.7,62.9h-34.9V34.7h-6.5v68.4H562.3z M572.5,76.1
		l13.4-35.9l13.4,35.9H572.5z"/>
	<path class="st0" d="M504.2,42c2.1,2.9,3.1,6.4,3.1,10.4c0,4.2-1.1,7.5-3.2,10.1c-1.2,1.4-2.9,2.7-5.2,3.9c3.5,1.3,6.1,3.3,7.9,6
		c1.8,2.8,2.7,6.1,2.7,10c0,4.1-1,7.7-3,10.9c-1.3,2.1-2.9,3.9-4.8,5.4c-2.2,1.7-4.8,2.8-7.7,3.4c-3,0.6-6.2,0.9-9.7,0.9h-30.8V34.7
		h33C494.8,34.8,500.8,37.3,504.2,42L504.2,42z M467.1,46.6v15.1h16.6c3,0,5.4-0.6,7.2-1.7c1.9-1.1,2.8-3.1,2.8-6
		c0-3.2-1.2-5.3-3.7-6.3c-2.1-0.7-4.8-1.1-8.1-1.1L467.1,46.6z M467.1,73v18.2h16.6c3,0,5.3-0.4,6.9-1.2c3-1.5,4.5-4.3,4.5-8.5
		c0-3.6-1.5-6-4.4-7.3c-1.6-0.7-3.9-1.1-6.8-1.2L467.1,73L467.1,73z"/>
	<path class="st0" d="M425.1,34.7h-17.7L397,62.9h-32.9V46.6h35.1V34.7H347v68.4h17.1V74.8l28.5,0l-10.4,28.2h18.2l4.3-14.1h23.4
		l4.3,14.1h18.3L425.1,34.7z M408.8,77.1l7.6-25.6l7.9,25.6H408.8z"/>
	<path class="st0" d="M619,103.1V34.7h24.7c4,0,7.4,0.4,10.3,1.2c2.8,0.8,5.2,2,7,3.5c1.8,1.5,3.1,3.3,3.9,5.5
		c0.8,2.1,1.2,4.4,1.2,7c0,2.4-0.3,4.5-0.9,6.2s-1.5,3.2-2.5,4.4c-1,1.2-2.2,2.1-3.5,2.8c-1.3,0.7-2.6,1.1-4,1.4v0.2
		c4.7,0.7,8.3,2.6,10.6,5.6c2.3,3,3.5,6.8,3.5,11.4c0,3.5-0.6,6.6-1.7,9c-1.1,2.5-2.6,4.5-4.6,6c-2,1.5-4.3,2.6-7.1,3.3
		c-2.8,0.7-5.7,1-9,1L619,103.1L619,103.1z M625.5,64.9h16.3c3.4,0,6.2-0.3,8.5-0.9c2.3-0.6,4.1-1.4,5.5-2.5c1.4-1.1,2.4-2.5,3-4.1
		c0.6-1.6,0.9-3.5,0.9-5.6c0-2.2-0.3-4-1-5.5c-0.7-1.5-1.8-2.7-3.3-3.6c-1.5-0.9-3.5-1.6-5.9-2c-2.4-0.4-5.4-0.6-9-0.6h-14.9
		L625.5,64.9L625.5,64.9z M625.5,97.6h16.4c3.5,0,6.6-0.2,9.3-0.5c2.6-0.3,4.8-1,6.5-1.9c1.7-1,3-2.4,3.8-4.2
		c0.9-1.8,1.3-4.2,1.3-7.2c0-2.8-0.5-5.1-1.4-6.9c-0.9-1.7-2.3-3.1-4.1-4c-1.8-1-3.9-1.6-6.4-1.9c-2.5-0.3-5.2-0.5-8.3-0.5h-17.2
		L625.5,97.6z"/>
</g>
<g>
	<path class="st0" d="M274,122.2l-12-6.9v-13.6c0.4-0.2,0.8-0.4,1.2-0.6c6.6-3.8,7.3-14.9,1.5-24.8c-5.7-9.9-15.7-14.8-22.3-10.9
		c-6.6,3.8-7.3,14.9-1.5,24.8c0.8,1.5,1.8,2.8,2.8,4v10.6l-13.9-8v-51l-5.1-2.9c-4.4,8.1-6.9,17.4-6.9,27.3c0,31.4,25,57,56.1,58
		C274,128,274,122.2,274,122.2z"/>
	<path class="st0" d="M327.1,42.7l-5.1,3v16.1l-9.6,5.4c-0.7-0.8-1.5-1.5-2.5-2.1c-6.6-3.8-16.6,1.1-22.3,10.9
		c-5.7,9.9-5,21,1.5,24.8c6.6,3.8,16.6-1.1,22.3-10.9c1.2-2.1,2.2-4.3,2.8-6.5l7.7-4.5v17.6l-44.1,25.4v5.9
		c31.1-1,56.1-26.6,56.1-58C333.9,60.2,331.4,50.9,327.1,42.7L327.1,42.7z"/>
	<path class="st0" d="M226.7,39.4l5.1,3l14-8.1l9.5,5.6c-0.4,1-0.6,2.1-0.6,3.2c0,7.6,9.2,13.8,20.6,13.8c11.4,0,20.7-6.1,20.7-13.7
		c0-7.6-9.2-13.8-20.6-13.8c-2.5,0-4.8,0.3-7,0.8l-7.7-4.4l15.3-8.8l44.1,25.5l5.1-2.9C308.7,12.9,274.1,4.1,247,19.8
		C238.4,24.7,231.6,31.5,226.7,39.4z"/>
</g>
</svg>
