<?xml version="1.0" encoding="utf-8"?>
<!-- Generator: Adobe Illustrator 15.0.0, SVG Export Plug-In . SVG Version: 6.00 Build 0)  -->
<!DOCTYPE svg PUBLIC "-//W3C//DTD SVG 1.0//EN" "http://www.w3.org/TR/2001/REC-SVG-20010904/DTD/svg10.dtd">
<svg version="1.0" id="Layer_1" xmlns="http://www.w3.org/2000/svg" xmlns:xlink="http://www.w3.org/1999/xlink" x="0px" y="0px"
	 width="708.66px" height="141.73px" viewBox="0 0 708.66 141.73" enable-background="new 0 0 708.66 141.73" xml:space="preserve">
<path fill="#143D69" d="M561.725,104.46l8.07-21.46h31.146l7.881,21.46h6.646l-26.208-68.368h-7.311l-24.709,62.861h-34.886V36.092
	h-6.458v68.368H561.725z M571.979,77.491l13.388-35.891l13.39,35.891H571.979z"/>
<path id="path2538_2_" fill="#143D69" d="M193.181,99.636h-41.382c2.543,2.131,5.485,3.729,8.602,4.84h24.156
	C187.684,103.364,190.632,101.767,193.181,99.636"/>
<path id="path2582_2_" fill="#143D69" d="M143.487,40.932h17.124v-4.84h-17.124V40.932z"/>
<path id="path2584_2_" fill="#143D69" d="M143.487,47.99h17.124v-4.838h-17.124V47.99z"/>
<path id="path2586_2_" fill="#143D69" d="M143.487,55.051h17.124v-4.838h-17.124V55.051z"/>
<path id="path2588_2_" fill="#143D69" d="M143.487,62.111h17.124v-4.838h-17.124V62.111z"/>
<path id="path2590_2_" fill="#143D69" d="M143.487,69.172h17.124v-4.838h-17.124V69.172z"/>
<path id="path2592_2_" fill="#143D69" d="M143.487,76.232h17.124v-4.838h-17.124V76.232z"/>
<path id="path2594_2_" fill="#143D69" d="M143.625,83.293h17.308c-0.217-1.252-0.32-2.592-0.32-4v-0.838h-17.125v2.279
	C143.487,81.623,143.554,82.457,143.625,83.293"/>
<path id="path2596_2_" fill="#143D69" d="M145.155,90.351h19.531c-1.521-1.215-2.555-2.87-3.2-4.837h-17.58
	C144.187,87.238,144.592,88.863,145.155,90.351"/>
<path id="path2598_2_" fill="#143D69" d="M198.861,92.575h-52.736c0.92,1.809,2.054,3.412,3.345,4.838h46.048
	C196.807,95.987,197.945,94.384,198.861,92.575"/>
<path id="path2600_2_" fill="#143D69" d="M201.086,85.512h-17.584c-0.648,1.969-1.69,3.622-3.219,4.839h19.55
	C200.397,88.863,200.802,87.238,201.086,85.512"/>
<path id="path2602_2_" fill="#143D69" d="M184.377,40.932h17.125v-4.84h-17.125V40.932z"/>
<path id="path2604_2_" fill="#143D69" d="M184.377,47.99h17.125v-4.838h-17.125V47.99z"/>
<path id="path2606_2_" fill="#143D69" d="M184.377,55.051h17.125v-4.838h-17.125V55.051z"/>
<path id="path2608_2_" fill="#143D69" d="M184.377,62.111h17.125v-4.838h-17.125V62.111z"/>
<path id="path2610_2_" fill="#143D69" d="M184.377,69.172h17.125v-4.838h-17.125V69.172z"/>
<path id="path2612_2_" fill="#143D69" d="M184.377,76.232h17.125v-4.838h-17.125V76.232z"/>
<path id="path2614_2_" fill="#143D69" d="M201.503,80.734v-2.279h-17.126v0.84c0,1.406-0.104,2.744-0.32,3.998h17.308
	C201.435,82.459,201.503,81.623,201.503,80.734"/>
<path id="path2540_2_" fill="#143D69" d="M78.023,97.413h17.936l0.029-0.088h-0.051l1.485-4.752H79.81L78.023,97.413"/>
<path id="path2542_2_" fill="#143D69" d="M77.201,99.636l-1.785,4.84h18.272l1.557-4.84H77.201"/>
<path id="path2544_2_" fill="#143D69" d="M40.156,104.476h17.125v-4.84H40.156V104.476z"/>
<path id="path2546_2_" fill="#143D69" d="M40.156,97.413h17.125v-4.838H40.156V97.413z"/>
<path id="path2548_2_" fill="#143D69" d="M40.156,90.351h17.125v-4.837H40.156V90.351z"/>
<path id="path2550_2_" fill="#143D69" d="M40.156,83.293h17.125v-4.838H40.156V83.293z"/>
<path id="path2552_2_" fill="#143D69" d="M40.156,62.111h17.125v-4.838H40.156V62.111z"/>
<path id="path2554_2_" fill="#143D69" d="M40.156,55.051h17.125v-4.838H40.156V55.051z"/>
<path id="path2556_2_" fill="#143D69" d="M40.156,40.932h52.339v-4.84H40.156V40.932z"/>
<path id="path2558_2_" fill="#143D69" d="M40.156,47.99h52.339v-4.838H40.156V47.99z"/>
<path id="path2560_2_" fill="#143D69" d="M108.294,57.273H92.85l-1.788,4.838h15.781L108.294,57.273"/>
<path id="path2562_2_" fill="#143D69" d="M98.886,40.932h21.318l-1.828-4.84h-17.702L98.886,40.932"/>
<path id="path2564_2_" fill="#143D69" d="M96.278,47.99h26.594l-1.829-4.838H98.064L96.278,47.99"/>
<path id="path2566_2_" fill="#143D69" d="M110.476,55.051h15.063l-1.828-4.838H95.457l-1.787,4.838h15.288l0.663-2.217h0.191
	L110.476,55.051"/>
<path id="path2568_2_" fill="#143D69" d="M112.591,62.111h15.615l-1.827-4.838h-15.236L112.591,62.111"/>
<path id="path2570_2_" fill="#143D69" d="M114.703,69.172h16.171l-1.827-4.838h-15.79L114.703,69.172"/>
<path id="path2572_2_" fill="#143D69" d="M116.817,76.232h16.725l-1.829-4.84h-16.346L116.817,76.232"/>
<path id="path2574_2_" fill="#143D69" d="M83.238,83.293h52.97l-1.828-4.838H85.026L83.238,83.293"/>
<path id="path2576_2_" fill="#143D69" d="M80.631,90.351h58.245l-1.829-4.837h-54.63L80.631,90.351"/>
<path id="path2578_2_" fill="#143D69" d="M123.623,97.413h17.923l-1.83-4.838h-17.672L123.623,97.413"/>
<path id="path2580_2_" fill="#143D69" d="M144.211,104.476l-1.827-4.84h-18.098l1.555,4.84H144.211"/>
<path id="path2616_2_" fill="#143D69" d="M40.156,71.416v4.836h62.462l1.448-4.836H40.156"/>
<path id="path2618_2_" fill="#143D69" d="M40.156,64.314v4.838h64.575l1.447-4.838H40.156"/>
<g>
	<g>
		<path fill="#143D69" d="M504.226,43.373c2.091,2.908,3.139,6.386,3.139,10.436c0,4.177-1.057,7.531-3.167,10.066
			c-1.179,1.423-2.918,2.721-5.214,3.896c3.488,1.269,6.121,3.278,7.897,6.03c1.775,2.752,2.663,6.092,2.663,10.02
			c0,4.05-1.014,7.683-3.044,10.898c-1.291,2.134-2.906,3.927-4.842,5.381c-2.184,1.67-4.758,2.813-7.724,3.434
			c-2.969,0.617-6.188,0.926-9.662,0.926h-30.805V36.092h33.039C494.844,36.216,500.751,38.643,504.226,43.373z M467.104,47.964
			v15.075h16.617c2.968,0,5.378-0.563,7.229-1.691c1.851-1.128,2.776-3.132,2.776-6.007c0-3.185-1.224-5.289-3.672-6.309
			c-2.111-0.711-4.805-1.068-8.079-1.068H467.104L467.104,47.964z M467.104,74.358v18.228h16.6c2.963,0,5.271-0.401,6.922-1.206
			c2.995-1.483,4.494-4.328,4.494-8.534c0-3.555-1.453-5.999-4.355-7.328c-1.622-0.742-3.898-1.128-6.832-1.159H467.104z"/>
	</g>
</g>
<path fill="#143D69" d="M424.522,36.226h-17.663l-10.402,28.16h-32.896V48.097h35.138V36.226h-52.227v68.235h17.089V76.278
	l28.5,0.014l-10.404,28.169h18.232l4.326-14.095h23.437l4.32,14.095h18.329L424.522,36.226z M408.217,78.498l7.648-25.568
	l7.874,25.568H408.217z"/>
<path fill="#143D69" d="M618.479,104.46V36.092h24.688c3.987,0,7.405,0.414,10.254,1.235c2.85,0.823,5.176,1.994,6.979,3.513
	c1.805,1.519,3.117,3.338,3.94,5.46c0.822,2.121,1.234,4.448,1.234,6.979c0,2.408-0.316,4.48-0.949,6.221s-1.458,3.196-2.468,4.366
	c-1.014,1.172-2.17,2.09-3.468,2.754c-1.297,0.665-2.644,1.124-4.034,1.376v0.19c4.747,0.698,8.275,2.564,10.588,5.603
	c2.309,3.039,3.465,6.836,3.465,11.395c0,3.544-0.555,6.552-1.662,9.021c-1.107,2.468-2.645,4.462-4.604,5.981
	c-1.963,1.519-4.321,2.611-7.075,3.275c-2.753,0.667-5.744,0.998-8.973,0.998H618.479L618.479,104.46z M624.935,66.289h16.332
	c3.354,0,6.173-0.286,8.451-0.856c2.279-0.569,4.115-1.408,5.508-2.516c1.392-1.107,2.389-2.468,2.99-4.083
	c0.602-1.613,0.902-3.464,0.902-5.554c0-2.15-0.348-3.972-1.044-5.46c-0.698-1.486-1.804-2.689-3.324-3.607
	c-1.52-0.917-3.498-1.582-5.935-1.996c-2.438-0.412-5.429-0.616-8.972-0.616h-14.909V66.289L624.935,66.289z M624.935,98.951h16.428
	c3.544,0,6.63-0.157,9.257-0.475c2.626-0.315,4.796-0.965,6.505-1.945c1.71-0.981,2.99-2.374,3.847-4.178
	c0.854-1.806,1.281-4.193,1.281-7.169c0-2.849-0.476-5.145-1.426-6.886c-0.948-1.738-2.31-3.086-4.081-4.034
	c-1.773-0.951-3.894-1.598-6.362-1.947c-2.469-0.347-5.223-0.521-8.262-0.521h-17.187V98.951L624.935,98.951z"/>
<g id="g2483">
	<path id="path38" fill="#229567" d="M273.497,123.569l-11.973-6.911v-13.604c0.428-0.172,0.843-0.367,1.247-0.604
		c6.574-3.822,7.264-14.914,1.533-24.781c-5.729-9.863-15.707-14.766-22.284-10.947c-6.579,3.818-7.266,14.916-1.535,24.782
		c0.844,1.451,1.779,2.79,2.78,4.013v10.604l-13.93-8.042V47.049l-5.102-2.945c-4.358,8.146-6.868,17.429-6.868,27.312
		c0,31.408,24.962,56.975,56.13,57.981V123.569z"/>
	<path id="path40" fill="#163C64" d="M326.563,44.122l-5.112,2.954v16.14l-9.602,5.447c-0.7-0.815-1.513-1.515-2.455-2.062
		c-6.577-3.82-16.557,1.083-22.287,10.945c-5.727,9.868-5.044,20.961,1.531,24.783c6.58,3.818,16.556-1.082,22.287-10.948
		c1.238-2.131,2.176-4.318,2.818-6.48l7.707-4.463v17.641l-44.082,25.45v5.865c31.134-1.043,56.052-26.595,56.052-57.979
		C333.422,61.538,330.917,52.26,326.563,44.122z"/>
	<path id="path42" fill="#C52128" d="M231.346,43.736l13.746-7.935l8.809,5.102c-0.315,0.957-0.483,1.95-0.483,2.97
		c0,7.605,9.247,13.77,20.658,13.77c11.408,0,20.657-6.165,20.657-13.77c0-7.609-9.249-13.771-20.657-13.771
		c-2.545,0-4.983,0.307-7.236,0.87l-6.745-3.833l15.303-8.832l44.069,25.441c1.906-1.101,3.643-2.104,5.158-2.979
		c-10.245-16.425-28.438-27.379-49.227-27.379c-20.782,0-38.974,10.947-49.222,27.364C227.731,41.65,229.464,42.648,231.346,43.736z
		"/>
</g>
</svg>
