<?xml version="1.0" encoding="UTF-8" standalone="no"?>
<!-- Created with Inkscape (http://www.inkscape.org/) -->

<svg
   xmlns:dc="http://purl.org/dc/elements/1.1/"
   xmlns:cc="http://creativecommons.org/ns#"
   xmlns:rdf="http://www.w3.org/1999/02/22-rdf-syntax-ns#"
   xmlns:svg="http://www.w3.org/2000/svg"
   xmlns="http://www.w3.org/2000/svg"
   xmlns:xlink="http://www.w3.org/1999/xlink"
   xmlns:sodipodi="http://sodipodi.sourceforge.net/DTD/sodipodi-0.dtd"
   xmlns:inkscape="http://www.inkscape.org/namespaces/inkscape"
   height="314.16"
   width="1062.8"
   version="1.2"
   id="svg2"
   inkscape:version="0.48.5 r10040"
   sodipodi:docname="4-3-chapter.svg">
  <sodipodi:namedview
     pagecolor="#ffffff"
     bordercolor="#666666"
     borderopacity="1"
     objecttolerance="10"
     gridtolerance="10"
     guidetolerance="10"
     inkscape:pageopacity="0"
     inkscape:pageshadow="2"
     inkscape:window-width="1920"
     inkscape:window-height="1117"
     id="namedview45"
     showgrid="false"
     inkscape:zoom="2.0323672"
     inkscape:cx="339.71555"
     inkscape:cy="176.2572"
     inkscape:window-x="-4"
     inkscape:window-y="-3"
     inkscape:window-maximized="1"
     inkscape:current-layer="svg2" />
  <defs
     id="defs4">
    <inkscape:perspective
       sodipodi:type="inkscape:persp3d"
       inkscape:vp_x="0 : 157.08 : 1"
       inkscape:vp_y="0 : 1000 : 0"
       inkscape:vp_z="1062.8 : 157.08 : 1"
       inkscape:persp3d-origin="531.40002 : 104.72 : 1"
       id="perspective47" />
    <radialGradient
       id="radialGradient7045"
       gradientUnits="userSpaceOnUse"
       cy="76.957"
       cx="480.03"
       gradientTransform="matrix(-0.01967607,1.2618746,-2.2359968,-0.01119211,621.27718,-399.38258)"
       r="531.4">
      <stop
         style="stop-color:#a30000;"
         offset="0"
         id="stop7" />
      <stop
         style="stop-color:#000000;"
         offset="1"
         id="stop9" />
    </radialGradient>
  </defs>
  <metadata
     id="metadata11">
    <rdf:RDF>
      <cc:Work
         rdf:about="">
        <dc:format>image/svg+xml</dc:format>
        <dc:type
           rdf:resource="http://purl.org/dc/dcmitype/StillImage" />
        <dc:title />
      </cc:Work>
    </rdf:RDF>
  </metadata>
  <g
     transform="translate(-2.84375,-289.9375)"
     id="g13">
    <rect
       style="stroke-linejoin:miter;enable-background:accumulate;fill-rule:nonzero;color:#000000;stroke-dashoffset:0;stroke:#000000;stroke-linecap:butt;stroke-miterlimit:4;stroke-dasharray:none;stroke-width:0.07527156;fill:url(#radialGradient7045);"
       rx="0"
       height="314.04"
       width="1062.7"
       y="290"
       x="2.8909"
       id="rect15" />
    <text
       y="1322.7013"
       x="17.672379"
       xml:space="preserve"
       style="font-size:28.24438858px;font-family:YanoneKaffeesatz-Regular;text-anchor:middle;text-align:center;font-weight:normal;font-style:normal;fill:#ffffff;"
       id="text17"><tspan
         y="1322.7013"
         x="17.672379"
         style="fill:#ffffff;font-family:MgOpen Cosmetica;text-anchor:start;text-align:justify;"
         id="tspan19" /></text>
    <flowRoot
       xml:space="preserve"
       style="font-size:14px;font-family:YanoneKaffeesatz-Regular;text-anchor:middle;text-align:center;font-weight:normal;font-style:normal;fill:#000000;"
       id="flowRoot21"><flowRegion
         id="flowRegion23"><rect
           y="1322.2"
           width="1236"
           x="18"
           height="170"
           id="rect25" /></flowRegion><flowPara
         id="flowPara27" /></flowRoot>  </g>
  <rect
     style="opacity:0.13580244;stroke:#929292;stroke-miterlimit:4;stroke-dasharray:none;stroke-width:14;fill:#ffffff;"
     ry="84.619"
     height="301.27"
     width="1404.4"
     y="6.5026"
     x="-215.26"
     id="rect29" />
  <g
     transform="matrix(0.9855005,0,0,0.7573652,-4.91302,-38.88006)"
     id="g31">
    <path
       d="m543.88,382.35c1.5534-0.33657,2.452-0.67324,4.2008-1.574,3.2432-1.6705,7.6785-6.328,11.17-11.73,2.9635-4.5848,6.537-11.334,9.0603-17.113,1.9417-4.4466,2.404-5.5682,4.6913-11.38,2.2017-5.5942,5.878-16.403,8.5046-25.004,4.1268-13.515,9.2969-33.039,15.333-57.904,2.291-9.437,5.9467-24.166,7.8391-31.584,1.4035-5.5014,1.7085-6.667,3.4022-13.005,0.52335-1.9585,1.1174-4.188,1.3201-4.9544,0.92793-3.5086,3.6593-13.139,5.1155-18.037,4.6261-15.559,9.3995-29.427,13.573-39.432,6.6937-16.046,13.681-26.725,19.971-30.522,2.192-1.3232,5.4435-2.2636,7.3006-2.1115,1.2458,0.10213,3.6557,0.77895,4.7995,1.348,3.714,1.8478,7.8743,5.9986,11.757,11.73,7.7838,11.49,15.941,30.304,25.909,59.762,1.8786,5.5514,5.335,16.119,6.4566,19.74,0.3956,1.2773,1.0235,3.2629,1.3953,4.4125,0.37175,1.1496,1.2779,4.0409,2.0136,6.4252,0.73569,2.3843,1.5712,5.0666,1.8566,5.9607,0.28549,0.89411,1.0518,3.3674,1.7028,5.4963,0.65104,2.1288,1.3818,4.4976,1.6238,5.264,0.24213,0.76638,0.87087,2.7868,1.3973,4.4899,5.401,17.474,10.687,33.482,13.599,41.183,0.25764,0.68122,0.82816,2.214,1.2679,3.4061,1.1558,3.1335,4.618,11.599,6.1263,14.98,1.8974,4.2531,5.6829,11.702,7.5724,14.901,5.6536,9.5713,11.093,15.772,16.832,19.187,3.4924,2.0786,7.8616,3.1413,11.219,2.729,6.8901-0.84627,12.805-4.5866,20.091-12.704,4.4741-4.9852,9.8136-12.567,14.665-20.824,1.8995-3.2327,5.8558-10.232,5.8558-10.36,0-0.0289,0.3021-0.60092,0.67139-1.2712,0.6926-1.2572,2.0746-3.8896,4.0944-7.7988,1.2117-2.3454,4.1718-8.246,11.474-22.872,4.2321-8.477,6.8095-13.558,7.8359-15.447,0.2776-0.51092,0.94034-1.765,1.4728-2.7868,0.95048-1.824,2.6391-4.9751,3.4847-6.5026,0.41653-0.75233,1.0839-1.9422,2.5186-4.4899,1.1697-2.0771,4.2026-7.1936,5.1394-8.6702,0.48626-0.76637,1.3906-2.1946,2.0096-3.1739,0.61898-0.97926,1.2616-1.976,1.4281-2.215,0.16646-0.23896,0.87313-1.284,1.5704-2.3224,0.69718-1.0383,1.495-2.2014,1.7728-2.5846,1.9752-2.7247,3.5952-4.9008,4.4375-5.9607,0.94235-1.1859,1.4989-1.8665,4.2622-5.2114,1.6042-1.9419,7.104-7.4382,9.4682-9.4622,1.017-0.87066,2.4911-2.0573,3.2758-2.6371,0.78473-0.57974,1.9145-1.4185,2.5105-1.8638,1.5642-1.1688,5.9245-3.7479,7.8186-4.6248,0.89414-0.41392,1.9542-0.92704,2.3556-1.1403,0.72554-0.38533,4.6919-1.8178,6.6335-2.3957,0.87372-0.26006,2.5822-0.6637,5.2288-1.2353,4.9513-1.0694,14.779-1.1363,20.772-0.14142,1.0644,0.17669,2.5731,0.41865,3.3528,0.53768,0.77963,0.11904,2.2427,0.42419,3.2513,0.67808,1.0086,0.2539,2.3356,0.56564,2.9488,0.69281,0.61324,0.12714,2.2505,0.58749,3.6384,1.023,1.3878,0.43551,2.9762,0.93271,3.5297,1.1049,0.55347,0.17218,2.1306,0.76087,3.5048,1.3082,1.3741,0.54732,2.5447,0.99513,2.6012,0.99513,0.19935,0,2.981,1.2293,5.4283,2.399,1.3625,0.65116,2.8604,1.3658,3.3287,1.5881,1.1262,0.53457,3.2965,1.7662,8.9024,5.0522,1.1757,0.68914,4.8264,3.167,6.8122,4.6236,0.68123,0.49968,1.9258,1.4096,2.7657,2.022,0.83992,0.61239,2.1288,1.6022,2.8642,2.1996,0.73544,0.59736,1.6506,1.3258,2.0338,1.6187,3.6152,2.7636,13.762,12.513,17.578,16.888,0.33789,0.38745,1.931,2.1641,3.5402,3.948,2.8948,3.209,3.9885,4.4786,6.0617,7.0367,0.5866,0.72382,1.8351,2.231,2.7743,3.3492,0.9393,1.1183,1.9865,2.3963,2.3271,2.8402,0.3406,0.44381,1.3049,1.6538,2.1428,2.6889s2.0572,2.5736,2.7095,3.4189c0.6522,0.84529,2.0248,2.5871,3.0502,3.8706s2.3115,2.9259,2.8582,3.6497c0.5466,0.72381,1.5893,2.0476,2.317,2.9417,0.7278,0.89411,1.7407,2.1762,2.251,2.849,0.5103,0.67283,1.6942,2.1471,2.6309,3.2762s2.1468,2.6186,2.6892,3.31c0.9931,1.2659,5.4133,6.3926,8.1964,9.5063,1.9714,2.2056,6.5609,6.707,9.0867,8.9122,4.2128,3.6781,8.4601,6.6986,11.936,8.4881,1.836,0.94542,5.304,2.2245,7.6976,2.8391,1.5323,0.39348,5.1386,0.67172,7.1515,0.55179,2.0724-0.12348,6.3179-1.0292,6.9671-1.4863,0.085-0.0599,0.5728-0.27186,1.0837-0.47085,1.5548-0.60557,3.0201-1.3516,4.6448-2.3649,1.4738-0.91916,1.5506-0.99346,1.5962-1.5445,0.026-0.31839,0.011-0.57891-0.043-0.57891-0.051,0-0.6559,0.38677-1.3462,0.85949-2.5904,1.774-6.5573,3.4691-9.8062,4.19-1.5813,0.35094-5.3593,0.55672-6.7869,0.36967-1.9652-0.25749-5.016-0.9074-6.2956-1.3412-1.6174-0.54821-5.1296-2.2569-7.4317-3.6153-2.0997-1.239-5.704-3.8027-7.5746-5.3875-3.2605-2.7626-10.372-9.9559-13.652-13.809-5.3976-6.3409-6.2967-7.4097-6.6416-7.896-0.2113-0.29803-1.3259-1.6914-2.4769-3.0965-1.151-1.405-2.4995-3.0982-2.9966-3.7626-0.4971-0.66437-1.5363-1.9824-2.3093-2.929-0.773-0.94658-1.9639-2.4583-2.6463-3.3593-0.6824-0.90104-1.8385-2.3698-2.5692-3.2639-0.7305-0.8941-1.7362-2.1717-2.2347-2.8392-0.4986-0.66742-1.7515-2.241-2.7842-3.4967-1.0327-1.2558-2.4778-3.0436-3.2114-3.9731-0.7335-0.92945-2.0246-2.4911-2.8691-3.4704-0.8446-0.97927-2.4101-2.8255-3.4789-4.1028-4.7528-5.6798-13.851-15.114-18.821-19.517-4.5018-3.9881-10.467-8.8042-13.55-10.939-1.1701-0.81046-6.304-4.1215-8.4221-5.4317-2.7742-1.7161-9.5633-5.1384-13.873-6.9935-3.3245-1.4309-9.5896-3.6538-12.123-4.3011-0.51088-0.13056-1.8293-0.48871-2.9297-0.79589-1.1005-0.30715-2.5984-0.65868-3.3287-0.78116-0.73032-0.12247-2.164-0.39782-3.1858-0.61188s-2.3107-0.4283-2.8643-0.4761c-0.55346-0.0478-1.7727-0.19436-2.7094-0.32569-2.3495-0.32942-8.6868-0.45459-11.921-0.23547-3.7494,0.25398-7.7881,0.9542-11.38,1.9729-1.6605,0.47101-3.263,0.96228-3.561,1.0917-0.29803,0.12945-1.4654,0.60736-2.5941,1.062-1.9974,0.80458-7.8548,3.8454-8.4758,4.4002-0.17027,0.15215-1.1108,0.79659-2.0901,1.4321-0.97925,0.63548-2.3379,1.6132-3.0191,2.1727-0.68122,0.55953-1.7378,1.4236-2.348,1.9201-4.1812,3.4027-10.594,10.165-14.416,15.203-0.36419,0.47999-0.97246,1.2692-1.3517,1.7538-1.4736,1.8829-4.2849,5.8337-5.763,8.0988-0.38895,0.59607-1.1396,1.7456-1.6682,2.5546-2.0937,3.2047-3.4167,5.3204-4.647,7.4316-3.1216,5.3562-4.3115,7.4276-5.069,8.825-0.20774,0.38319-0.77918,1.4282-1.2699,2.3224-3.6328,6.6192-5.403,10.072-14.485,28.255-7.1684,14.352-13.261,26.254-14.526,28.378-0.26849,0.45081-0.48826,0.85541-0.48826,0.89914,0,0.18995-4.2784,7.588-6.3928,11.054-5.8217,9.5437-10.841,16.176-16.234,21.45-2.5189,2.4635-3.9742,3.6818-6.0761,5.0872-3.5942,2.4031-6.7566,3.5839-10.637,3.9718-1.867,0.18666-2.646,0.13367-4.8889-0.33249-1.6977-0.35286-1.571-0.30953-3.6432-1.2461-11.804-5.335-22.945-23.201-34.601-55.482-2.2333-6.1851-5.9549-17.241-8.3908-24.927-2.408-7.5979-3.1512-9.9598-3.97-12.618-0.4853-1.5753-1.4239-4.606-2.0858-6.7348-0.66189-2.1288-1.634-5.264-2.1603-6.9671-4.6925-15.186-7.0323-22.535-10.648-33.442-8.2249-24.811-14.204-40.266-20.395-52.718-1.8139-3.6484-4.4054-8.4966-4.8-8.9798-0.10434-0.12772-0.45744-0.68509-0.78467-1.2386-2.3164-3.9174-5.5139-8.1216-8.1028-10.654-2.974-2.9087-6.3103-4.9386-8.8464-5.3824-1.5361-0.26884-3.9583-0.30833-4.9544-0.0807-2.8448,0.64992-6.3727,2.9274-9.2592,5.9774-10.184,10.761-20.786,36.437-32.603,78.959-3.3945,12.214-6.5145,24.291-11.24,43.506-9.2862,37.757-11.948,48.107-15.668,60.923-2.054,7.0765-4.7509,15.819-6.113,19.818-4.0961,12.023-7.1609,19.842-10.923,27.864-6.8005,14.502-13.341,23.166-19.708,26.108-2.7927,1.2903-5.7845,1.5787-8.244,0.79473-6.1606-1.9638-12.249-8.6454-18.656-20.473-8.359-15.431-16.765-38.493-25.733-70.6-2.4778-8.8701-2.8435-10.199-4.2614-15.482-0.77698-2.8952-1.51-5.6124-1.6288-6.0381-0.1189-0.42578-0.74669-2.7597-1.3951-5.1866-1.1459-4.2887-1.6472-6.1562-2.7951-10.412-0.30436-1.1283-0.74984-2.783-0.99003-3.6771-2.1115-7.8608-5.3983-19.509-7.5361-26.707-11.346-38.203-21.505-60.848-31.361-69.907-2.0522-1.8862-2.6062-2.2985-4.3034-3.2035-1.9343-1.0315-3.0953-1.4217-4.7726-1.6042-2.6533-0.28865-4.957,0.13704-7.2262,1.3353-4.121,2.1761-6.6064,4.5219-10.982,10.366-4.2144,5.628-9.3938,15.196-14.289,26.398-1.2634,2.8907-3.9571,9.3395-4.7855,11.457-0.2166,0.5535-0.67424,1.7031-1.017,2.5546-0.34287,0.85153-0.99837,2.541-1.4568,3.7545-0.45834,1.2134-1.2228,3.2339-1.6989,4.4899-1.6828,4.4396-4.2332,11.474-6.4409,17.766-0.59767,1.7031-1.3188,3.7584-1.6027,4.5673-0.2838,0.80895-0.87501,2.4811-1.3138,3.7158-0.43877,1.2347-0.9238,2.6281-1.0779,3.0965-0.57589,1.7504-6.3903,18.309-8.2365,23.456-0.33596,0.93669-0.77201,2.1559-0.96903,2.7094-0.19702,0.55351-0.46805,1.285-0.60232,1.6257-0.13428,0.3406-0.60031,1.5947-1.0357,2.7868-0.43534,1.1922-1.0206,2.7597-1.3006,3.4835-0.27992,0.72381-0.84502,2.1869-1.2557,3.2513-7.1875,18.629-13.781,31.791-20.204,40.332-4.104,5.4568-8.3482,9.4548-12.071,11.37-2.2876,1.1773-3.0424,1.4298-6.5369,2.1869-1.0335,0.22391-3.2013,0.12296-5.3072-0.24715-1.8524-0.32556-5.3551-1.7246-7.0111-2.8004-0.70545-0.45828-1.3158-0.83323-1.3563-0.83323-0.14429,0-1.7202-1.1585-3.2444-2.385-2.0872-1.6797-4.83-4.3634-7.103-6.9501-2.5676-2.922-2.8029-3.2149-6.1195-7.6181-3.559-4.7253-8.239-11.652-13.024-19.276-0.40083-0.63865-1.4813-2.3456-2.401-3.7932-0.91972-1.4476-2.5615-4.0375-3.6484-5.7553-1.0868-1.7178-2.5965-4.0518-3.3548-5.1866-0.75824-1.1348-1.65-2.4813-1.9818-2.9922-0.55049-0.84786-3.1266-4.5392-4.7491-6.8049-0.36297-0.50689-1.238-1.6565-1.9446-2.5546-0.70662-0.89814-1.7503-2.2252-2.3193-2.949-1.2901-1.6408-3.5937-4.1755-5.9177-6.5112-4.6605-4.6839-10.057-8.0031-14.993-9.2218-0.48742-0.12035-2.149-0.25818-3.7411-0.31034-2.8301-0.0927-2.8901-0.0879-5.0318,0.40231-3.877,0.88749-7.767,2.8488-11.593,5.8452-0.35102,0.27494-1.0911,0.85418-1.6446,1.2872-2.2528,1.7625-7.9125,7.5325-10.944,11.157-0.52658,0.62968-1.4324,1.7125-2.0127,2.4063-1.5885,1.8988-3.1254,3.8334-6.0553,7.622-0.48581,0.62821-1.3042,1.6733-1.8186,2.3224-0.51443,0.64909-1.104,1.424-1.31,1.722-0.20606,0.29804-0.69084,0.93573-1.0774,1.4171-0.38649,0.48137-1.2252,1.5528-1.8639,2.381-0.6387,0.82816-1.5792,2.0272-2.0902,2.6646-0.51088,0.63737-1.2076,1.5261-1.5482,1.975-0.3406,0.44889-0.98615,1.2596-1.4346,1.8016-0.4484,0.54201-1.3889,1.6787-2.0901,2.526-0.7012,0.84731-1.7625,2.0883-2.3586,2.7577-0.59605,0.66941-1.3877,1.5786-1.7593,2.0204-1.0425,1.2398-4.2477,4.4735-6.4741,6.5318-2.4599,2.2742-5.9149,4.9099-8.0083,6.1093-3.4978,2.0041-4.0794,2.2605-7.2152,3.1804-2.2922,0.67246-3.456,0.84426-5.7459,0.84816-2.1478,0.004-3.812-0.2653-6.1905-1.0004-2.4189-0.74763-4.5371-1.8263-7.5616-3.8507-2.3699-1.5863-2.8039-1.9559-5.747-4.8948-1.7509-1.7484-3.8466-3.9801-4.6572-4.9593-2.7946-3.3761-6.7295-8.7269-8.5959-11.689-0.42928-0.68124-1.5701-2.4927-2.5353-4.0254-0.96514-1.5328-2.2165-3.5881-2.7808-4.5673-0.5642-0.97927-1.514-2.6165-2.1106-3.6384-1.5129-2.5911-3.5627-6.2299-5.7124-10.141-1.0063-1.8308-2.3227-4.2152-2.9254-5.2986-0.60263-1.0835-1.6799-3.0342-2.3938-4.3351-0.71397-1.3008-2.0203-3.6354-2.903-5.188-0.8827-1.5525-1.6049-2.8567-1.6049-2.8982s-0.50849-0.93095-1.1299-1.9767c-0.62145-1.0458-1.3653-2.3194-1.653-2.8303-1.7094-3.0361-5.6193-9.1692-8.6857-13.625-6.2617-9.0977-13.464-15.985-19.032-18.199-1.3544-0.5386-3.6598-1.0644-5.3851-1.2281-1.354-0.12848-1.8581-0.10552-3.3747,0.15375-0.9806,0.16764-2.2877,0.47425-2.9046,0.68135-1.7253,0.57918-4.4453,2.1246-6.2705,3.5629-1.6652,1.3122-4.583,4.1564-5.7294,5.585-0.34164,0.42576-0.99191,1.2354-1.445,1.7993-1.1716,1.458-2.1974,2.8882-3.5395,4.9353-1.4119,2.1533-3.245,5.0786-3.245,5.1783,0,0.0398-0.21874,0.44115-0.486,0.89194-4.3805,7.3878-10.182,20.025-16.333,35.578-2.7766,7.0204-2.8618,7.239-5.0094,12.85-0.86357,2.2566-1.7736,4.6254-2.0223,5.264-0.24872,0.63865-0.87508,2.2759-1.392,3.6384-0.51689,1.3625-1.2103,3.1739-1.541,4.0254-0.33059,0.85153-1.0996,2.8372-1.7089,4.4125s-1.5489,3.979-2.088,5.3414c-0.53918,1.3625-1.2232,3.1042-1.5199,3.8706-1.384,3.5737-6.4509,15.648-7.9691,18.99-0.31379,0.69065-0.4683,1.2769-0.4683,1.7769,0,0.56511,0.03683,0.6808,0.15076,0.47681,0.55605-0.99361,4.455-10.144,6.7433-15.825,0.89168-2.214,1.8893-4.6873,2.2169-5.4962,1.2645-3.1226,5.7008-14.589,10.063-26.01,0.43909-1.1496,1.0988-2.8565,1.4659-3.7932,0.36717-0.93669,0.8427-2.1559,1.0567-2.7094,2.7165-7.0256,6.3837-16.052,7.925-19.508,0.73517-1.6481,2.5854-5.824,3.2927-7.4316,0.92593-2.1043,5.1892-10.617,6.3197-12.618,1.3812-2.4455,3.0006-5.1644,3.8105-6.3979,0.40956-0.62362,0.74461-1.1726,0.74461-1.2199,0-0.0474,0.43618-0.68668,0.96929-1.4208,0.53317-0.73409,1.1009-1.5437,1.2618-1.7992,0.65563-1.0414,3.8236-4.8451,5.4324-6.5227,1.1071-1.1544,3.3888-3.044,4.885-4.0456,1.851-1.2391,2.4018-1.5293,4.0177-2.1169,0.6387-0.23223,1.3005-0.48511,1.4709-0.56194,1.0547-0.47592,4.7563-0.73372,6.5107-0.45347,1.2548,0.20048,3.0971,0.80847,4.6406,1.5315,1.5328,0.71807,4.4332,2.5475,5.8702,3.7026,3.2057,2.5769,7.3266,7.1756,11.405,12.728,1.2839,1.7477,1.7295,2.405,4.4221,6.5232,1.2727,1.9465,4.7289,7.5833,5.586,9.1103,0.21512,0.38318,1.0327,1.8114,1.8169,3.1739,2.1782,3.7844,3.9279,6.924,8.6716,15.56,1.0056,1.8308,2.3752,4.29,3.0435,5.4648,0.66823,1.1748,1.215,2.1739,1.215,2.22,0,0.0462,0.61473,1.1402,1.3661,2.4312,0.75133,1.291,1.6336,2.8349,1.9606,3.431,0.32691,0.59607,1.1293,1.9547,1.783,3.0191,0.65368,1.0644,1.5966,2.632,2.0952,3.4835,1.4605,2.4937,6.6962,10.33,8.5864,12.85,2.9075,3.8775,6.2226,7.67,8.671,9.9192,1.6429,1.5093,4.5802,3.8759,5.8995,4.7532,1.3759,0.91498,5.2088,2.8339,6.5538,3.2811,1.8863,0.62717,5.7563,1.186,7.4748,1.0793,2.233-0.1386,5.402-0.74003,6.4555-1.2252,0.2632-0.12119,1.019-0.43218,1.6796-0.69111,0.66054-0.25892,1.7607-0.75219,2.4448-1.0961,1.6163-0.81267,6.093-3.8134,7.232-4.8478,0.48885-0.44385,1.481-1.3046,2.2048-1.9128,3.138-2.6367,9.1858-9.2396,13.857-15.129,1.8184-2.2927,4.09-5.1834,4.9292-6.2728,2.1748-2.8231,2.6305-3.4136,3.5941-4.6566,0.56102-0.72379,1.416-1.8385,1.8999-2.4772,0.48394-0.63866,1.228-1.5888,1.6536-2.1116,0.42558-0.52269,1.2265-1.523,1.7801-2.223,4.6309-5.8564,9.2466-11.029,12.588-14.106,2.4962-2.2989,3.7087-3.3418,4.6723-4.0188,0.43178-0.30336,0.9689-0.7114,1.1936-0.90674,0.67089-0.58331,2.707-1.7972,4.8075-2.8662,2.1894-1.1142,5.3188-2.1582,6.9294-2.3117,3.2013-0.30504,4.2186-0.28722,6.1265,0.10736,5.0182,1.0378,9.4976,3.5686,14.813,8.3686,1.6481,1.4884,6.0279,6.3231,7.9973,8.8279,2.4474,3.1127,7.6223,10.357,9.2806,12.991,0.31153,0.495,1.3955,2.1671,2.4087,3.7158,1.0133,1.5487,2.295,3.5473,2.8483,4.4414,1.5746,2.5444,6.7806,10.664,9.6789,15.095,7.9073,12.09,13.813,19.5,19.866,24.927,0.85491,0.76637,1.8621,1.6022,2.2382,1.8575,0.37616,0.25522,1.1019,0.78528,1.6128,1.1779,1.786,1.3725,4.8522,2.9324,7.2767,3.702,3.5667,1.1322,7.3482,1.1786,10.507,0.12902,2.8986-0.96317,5.7849-2.5969,8.3042-4.7003,1.687-1.4085,4.9907-4.8614,6.4455-6.7365,2.7866-3.5915,6.285-9.0404,8.6462-13.467,1.2766-2.393,5.1172-10.185,5.5149-11.189,0.1609-0.40617,0.47741-1.1029,0.70338-1.5482,1.0495-2.0687,5.4206-12.763,7.7979-19.079,1.6437-4.3666,2.0676-5.5029,2.3972-6.4252,0.19779-0.55349,0.65059-1.8076,1.0061-2.7868,0.9404-2.59,3.8847-10.886,4.2582-11.999,0.11437-0.34061,0.56549-1.6295,1.0024-2.8642,0.43696-1.2347,0.92826-2.637,1.0917-3.1161,0.45654-1.3377,6.6866-19.128,7.5568-21.578,4.4623-12.567,7.8241-21.399,11.756-30.887,6.1765-14.904,12.786-27.314,18.101-33.987,1.5649-1.9648,4.5712-5.0215,6.253-6.358,1.7078-1.3571,3.56-2.2759,6.2608-3.1057,1.8408-0.56558,5.1408-0.23457,7.3157,0.73384,3.9188,1.7449,7.9534,5.6869,11.865,11.593,2.4105,3.6394,3.4466,5.4611,5.9463,10.455,4.2654,8.5219,7.524,16.596,12.122,30.036,1.9888,5.8132,6.0648,18.697,7.078,22.372,0.0821,0.29803,0.77627,2.7017,1.5425,5.3414,1.8016,6.2067,3.7204,13.044,5.1486,18.347,0.24083,0.8941,0.69149,2.5662,1.0015,3.7158,0.30998,1.1496,0.80749,2.9958,1.1055,4.1028,0.29803,1.107,0.77647,2.8836,1.0632,3.948,1.2542,4.6565,1.6711,6.2088,2.7651,10.296,0.63818,2.3843,1.5529,5.7633,2.0327,7.509,0.4798,1.7456,1.1072,4.0448,1.3942,5.1092,5.4745,20.305,11.234,38.659,16.907,53.879,0.64626,1.7336,3.5647,8.988,4.2354,10.528,0.35237,0.80896,0.83424,1.9237,1.0708,2.4772,2.0753,4.8554,5.4892,11.575,8.0951,15.933,3.0226,5.0554,5.5151,8.3791,8.544,11.393,2.915,2.901,5.7803,4.7041,8.4735,5.3324,2.3578,0.55001,3.0807,0.57284,4.9962,0.15783z"
       style="opacity:0.7;fill:#ffffff;"
       id="path33" />
    <path
       d="m1087.7,270.11c0.2048-0.17271,0.3381-0.43302,0.3095-0.6044-0.043-0.26153-0.243-0.17003-1.5208,0.69698-7.0385,4.7758-14.91,5.9484-22.45,3.3443-4.3528-1.5034-9.69-4.7565-14.863-9.0593-3.7224-3.0961-11.935-11.673-16.486-17.217-0.8388-1.0218-2.2302-2.6939-3.0921-3.7158-0.8619-1.0218-2.0863-2.5198-2.7208-3.3287-0.6346-0.80895-1.9558-2.4541-2.936-3.6558-0.9803-1.2017-2.061-2.5504-2.4017-2.9969-0.7609-0.99757-4.3335-5.4642-5.4067-6.7597-0.4324-0.52197-1.2372-1.5322-1.7885-2.2449-2.3289-3.0111-6.695-8.2268-13.009-15.54-5.6447-6.5382-14.66-15.634-19.75-19.925-0.67624-0.57018-1.9959-1.6898-2.9326-2.4881-1.8984-1.6179-4.3834-3.5854-5.7168-4.526-0.48278-0.34062-1.7383-1.2509-2.7899-2.0229-1.6931-1.2428-2.5368-1.8122-4.576-3.0883-0.29809-0.1865-1.1341-0.72032-1.8579-1.1863-1.7491-1.126-3.4468-2.1423-4.4899-2.6878-0.46836-0.24492-1.57-0.85368-2.4482-1.3528-1.471-0.83597-7.4896-3.7516-8.9314-4.3267-0.34061-0.13585-1.4902-0.613-2.5546-1.0603-2.2569-0.94849-7.5139-2.793-9.5217-3.3409-0.76639-0.20912-2.0901-0.58858-2.9417-0.84325-1.4305-0.42783-3.8479-0.97214-7.509-1.6908-2.0124-0.39503-5.8678-0.91615-7.4456-1.0064-0.71605-0.0409-1.7548-0.11887-2.3083-0.17314-0.55347-0.0543-2.6088-0.0889-4.5673-0.077-7.2465,0.0441-13.756,1.24-20.242,3.7188-2.5736,0.9836-3.3122,1.326-6.5428,3.0335-2.2758,1.2029-2.9782,1.6327-5.6761,3.4734-2.6086,1.7799-3.3696,2.3705-6.3228,4.9074-7.3742,6.3346-15.273,15.679-22.101,26.147-0.55547,0.85152-1.2698,1.9314-1.5875,2.3998-2.4167,3.5627-8.1093,13.326-11.961,20.514-0.59321,1.107-1.3931,2.596-1.7775,3.3089-2.2634,4.1978-6.5098,12.66-17.335,34.546-4.0616,8.2113-8.46,16.775-10.437,20.321-0.41545,0.74509-1.0968,1.9643-1.5142,2.7094-0.41732,0.74508-0.9134,1.6334-1.1024,1.974-3.0572,5.5093-7.9256,12.994-11.581,17.805-1.4176,1.8656-5.1317,6.075-6.5902,7.4689-2.9634,2.8322-6.1012,5.1558-8.5327,6.3182-2.4704,1.1811-4.401,1.8013-6.5229,2.0953-1.2129,0.16807-1.728,0.15896-3.6255-0.0642-1.9231-0.22616-2.4456-0.35296-4.005-0.97179-2.3353-0.92674-3.0231-1.3033-5.057-2.7688-1.8875-1.36-5.8226-5.1966-7.5444-7.3555-6.0559-7.5934-12.487-19.97-18.705-35.997-0.96431-2.4856-1.9401-5.0931-3.8528-10.296-1.7052-4.638-6.275-18.189-8.9542-26.552-1.9566-6.1073-3.6935-11.55-4.7184-14.786-5.647-17.826-7.8932-24.796-11.65-36.151-3.3762-10.204-7.4361-21.966-9.3522-27.094-0.44541-1.1922-1.2504-3.352-1.7888-4.7996-1.2982-3.4903-3.3604-8.7067-4.9884-12.618-10.468-25.151-19.529-38.233-28.514-41.168-0.84683-0.27668-1.3716-0.32438-3.561-0.32364-1.4122,0-2.8464,0.0775-3.187,0.1713-0.34061,0.0938-1.316,0.50036-2.1675,0.90358-5.0169,2.3757-10.24,8.3874-15.265,17.571-8.3197,15.204-16.953,39.662-27.001,76.493-3.0226,11.079-5.6234,21.173-9.9818,38.739-7.8612,31.684-8.963,36.083-10.85,43.318-4.8864,18.74-8.7809,31.814-13.005,43.66-6.4834,18.182-13.02,31.043-19.279,37.932-2.0663,2.2742-2.4733,2.6578-4.1222,3.885-1.9691,1.4654-3.9206,2.4541-5.6654,2.8703-2.0109,0.47966-4.3968,0.35433-6.304-0.33112-1.4151-0.50861-3.6122-1.7361-4.877-2.7246-2.9685-2.3203-7.2821-7.5341-9.9138-11.983-2.8698-4.8511-5.5803-10.112-7.6174-14.786-3.0245-6.9387-4.586-10.896-7.2399-18.347-2.3777-6.6755-6.0477-18.131-8.2834-25.856-0.48063-1.6605-1.1066-3.8203-1.3912-4.7996-1.2227-4.2083-3.8877-13.889-6.3507-23.069-0.6511-2.4269-1.4275-5.3182-1.7253-6.4252-0.29783-1.107-0.98357-3.6848-1.5239-5.7285-3.2918-12.45-6.7563-25.082-9.4475-34.448-12.508-43.532-23.066-68.803-33.478-80.13-2.4834-2.7021-5.3596-4.8917-7.4337-5.6593-2.6736-0.98949-3.2513-1.0999-5.3025-1.0131-4.4104,0.18659-7.4025,1.7645-11.926,6.2892-2.689,2.6896-4.3237,4.7283-6.8946,8.5979-2.4411,3.6743-4.7966,7.8528-7.6367,13.547-3.3299,6.6764-4.5513,9.3714-8.4552,18.656-2.7929,6.6427-7.6337,19.288-11.616,30.346-0.36808,1.0218-1.0973,3.0423-1.6206,4.4899-1.1356,3.1418-2.0774,5.7862-3.4736,9.7539-0.5693,1.6179-1.1774,3.3249-1.3514,3.7932-0.17389,0.46834-0.72238,2.0011-1.2188,3.4061-1.2433,3.5187-2.9784,8.3787-3.7866,10.605-1.4472,3.9877-4.5594,12.437-4.9327,13.392-0.21641,0.55349-0.9974,2.574-1.7355,4.4899-7.3132,18.981-13.537,31.558-19.993,40.399-2.7024,3.7006-5.3201,6.5043-8.0542,8.6262-2.8953,2.2472-3.6854,2.6986-6.3922,3.6526-2.1867,0.77068-3.0177,0.91618-5.2137,0.91277-2.9189-0.004-4.2065-0.29009-7.2497-1.6076-2.0695-0.89605-2.7251-1.2731-4.6278-2.662-5.0479-3.6846-8.5546-7.3514-14.223-14.872-2.2896-3.0379-7.8135-11.233-10.204-15.138-0.6659-1.0879-1.638-2.6555-2.1601-3.4836-0.52219-0.82803-1.612-2.5854-2.4219-3.9053-7.1583-11.666-7.7539-12.612-11.475-18.236-4.5238-6.8372-8.7027-12.322-12.883-16.909-2.5282-2.7743-6.6258-6.1904-9.7431-8.1229-3.8445-2.3833-7.0627-3.4003-11.392-3.6002-1.5326-0.0708-2.2061-0.0248-3.7158,0.25377-2.053,0.37876-3.3152,0.69817-4.0114,1.0151-0.25544,0.11628-0.95216,0.39413-1.5482,0.61744-1.3859,0.51918-3.7731,1.8631-5.6511,3.1814-0.80898,0.56785-1.6291,1.1382-1.8225,1.2675-0.19341,0.12927-0.61143,0.47317-0.92898,0.76421-0.31753,0.29102-0.99817,0.85106-1.5125,1.2445-1.2082,0.92415-6.2468,5.9352-8.0445,8.0005-3.5904,4.1248-6.9857,8.3036-9.9088,12.195-0.34061,0.4535-1.1418,1.4967-1.7805,2.3183-0.63863,0.82158-1.3702,1.7865-1.6256,2.1443-0.2555,0.3578-0.70836,0.95401-1.0064,1.3249-0.29802,0.37088-0.75087,0.96551-1.0064,1.3214-0.54074,0.75335-2.1452,2.8413-5.5877,7.2713-1.7805,2.2913-4.2574,5.3537-5.0835,6.2852-0.34701,0.39133-1.2232,1.3917-1.947,2.223-2.9856,3.429-7.8774,8.2114-9.9861,9.7629-0.34061,0.2506-0.91249,0.70729-1.2708,1.0148-0.35837,0.30756-1.2582,0.93124-1.9996,1.3859-0.74138,0.45467-1.6919,1.0581-2.1122,1.3409-0.42021,0.28282-0.82079,0.51421-0.89006,0.51421-0.0692,0-0.85931,0.34676-1.7556,0.77057-1.032,0.48794-2.4422,0.98245-3.8452,1.3483-2.0406,0.53211-2.3989,0.57968-4.5379,0.60249-1.3717,0.0146-2.8294-0.0616-3.561-0.1863-3.6743-0.62607-8.3135-2.9159-12.154-5.9989-1.5189-1.2195-5.5635-5.2774-7.5038-7.5287-5.0532-5.8631-11.323-15.433-18.766-28.642-3.2823-5.8253-5.9676-10.642-7.6697-13.757-0.6679-1.2222-1.5856-2.8595-2.0393-3.6384-0.45376-0.77888-1.2286-2.1477-1.722-3.0418-4.5866-8.3129-11.31-18.964-15.54-24.617-4.9872-6.6652-11.157-12.572-15.269-14.617-2.106-1.0476-4.3601-1.8977-5.8115-2.1918-1.5379-0.31164-5.4317-0.23306-6.7293,0.13578-1.2546,0.35658-3.6418,1.321-4.6804,1.8908-5.2161,2.8617-11.079,9.313-16.424,18.071-4.9198,8.0619-8.7053,15.824-15.044,30.85-0.75333,1.7856-3.6048,8.9734-4.6373,11.689-0.43702,1.1496-0.87036,2.2643-0.96283,2.4772-0.09253,0.21288-0.4312,1.0838-0.75262,1.9353-1.4194,3.761-3.007,7.9959-4.1789,11.147-3.8979,10.482-6.1746,16.574-7.1465,19.121-2.9723,7.7894-4.8649,12.603-6.9393,17.65-1.0314,2.5092-1.5446,3.9504-1.5162,4.2576,0.03554,0.38209,0.17693,0.1486,0.79824-1.316,1.8899-4.4552,5.4522-13.479,8.2513-20.901,0.97944-2.5972,1.9792-5.2447,2.2217-5.8833,0.24252-0.63865,0.52606-1.6122,1.7035-4.5673,3.0705-7.2701,7.1476-17.526,8.8945-21.908,1.7469-4.3812,1.0481-2.6746,1.6972-4.3351s1.384-3.5068,1.6331-4.1028c0.24911-0.59608,1.0436-2.5145,1.7655-4.2632,9.4583-22.911,18.121-37.52,26.415-44.544,2.1392-1.812,2.7891-2.2569,4.9642-3.3986,2.024-1.0623,2.9479-1.3847,5.0651-1.7671,7.9694-1.4393,16.371,3.7353,25.671,15.81,3.907,5.073,8.4215,12.032,13.559,20.901,2.339,4.0377,3.5379,6.1646,8.0726,14.321,0.85207,1.5328,2.037,3.6577,2.6331,4.7221,0.59604,1.0644,1.2921,2.3185,1.5467,2.7868,0.25453,0.46834,0.88348,1.5831,1.3976,2.4772,0.51411,0.89412,1.3091,2.3099,1.7666,3.1462,0.4575,0.83627,1.1176,1.9858,1.467,2.5546,0.34933,0.56876,0.84522,1.4173,1.102,1.8856,2.423,4.4206,8.3171,13.392,12.156,18.501,2.4882,3.3122,6.9556,8.1103,9.7012,10.419,2.8054,2.3594,7.0594,4.8704,9.8671,5.8243,1.2831,0.43592,3.4743,0.79241,5.8475,0.95133,2.5502,0.17077,5.9757-0.52931,9.1057-1.8609,1.8406-0.78304,5.697-2.9586,6.4542-3.6411,0.17028-0.1535,0.76769-0.61857,1.3276-1.0335,4.3354-3.2133,11.08-10.294,16.741-17.574,0.48575-0.62475,1.1825-1.5126,1.5483-1.9731,1.2142-1.5285,2.5973-3.3341,3.0946-4.0398,0.26998-0.3832,0.78022-1.0451,1.1339-1.4708,0.35366-0.42576,0.84613-1.06,1.0944-1.4093,0.24827-0.34934,0.97388-1.3173,1.6125-2.1511,0.6387-0.83372,1.4051-1.8461,1.7031-2.2498,0.59165-0.80134,2.1547-2.8315,3.2151-4.176,3.5594-4.513,4.5814-5.7644,7.3822-9.0384,3.4927-4.0829,8.5014-8.9807,11.222-10.973,0.37724-0.27634,1.2133-0.89224,1.8579-1.3687,0.64464-0.47648,1.6492-1.1383,2.2324-1.4708,0.58313-0.33249,1.2798-0.73577,1.5482-0.8962,1.0718-0.64072,4.5099-1.9412,6.2405-2.3605,1.6795-0.40691,2.0553-0.44251,4.4658-0.42287,2.9168,0.0237,4.1475,0.21707,6.3655,0.99987,8.4653,2.9879,16.89,11.22,27.157,26.537,3.033,4.5249,5.879,9.0155,11.209,17.687,4.9303,8.0206,6.3646,10.284,9.7706,15.415,4.1081,6.1892,6.7543,9.831,9.708,13.36,2.885,3.4474,7.3955,7.8677,9.8734,9.6759,1.7406,1.2702,5.9112,3.5164,6.9671,3.7524,0.21286,0.0476,1.0838,0.27366,1.9353,0.5024,1.277,0.34302,1.8737,0.41556,3.4061,0.41409,2.0282-0.002,4.3009-0.32036,5.6807-0.79588,1.0768-0.37106,3.6319-1.6718,4.9548-2.5223,3.3231-2.1365,7.9967-7.1748,11.535-12.435,1.3087-1.9457,4.3819-6.9231,4.3819-7.0971,0-0.0286,0.45873-0.88194,1.0194-1.8963,1.1242-2.034,3.7431-7.3108,5.0645-10.205,2.171-4.7546,3.0482-6.8085,5.7524-13.47,1.4297-3.5217,4.3663-11.15,5.2748-13.702,0.19703-0.5535,0.68289-1.8772,1.0797-2.9417,0.39676-1.0644,1.0956-2.9804,1.553-4.2577,0.45745-1.2773,1.4322-3.9945,2.1661-6.0381,0.73395-2.0437,1.9503-5.4576,2.703-7.5864,0.75269-2.1288,1.9377-5.473,2.6334-7.4316,0.69562-1.9585,1.6474-4.6408,2.115-5.9607,0.46765-1.3199,0.98189-2.7481,1.1429-3.1739,0.1609-0.42577,0.89201-2.4462,1.6247-4.4899,0.73265-2.0437,1.6674-4.6215,2.0772-5.7285,0.40982-1.107,1.0417-2.8139,1.4042-3.7932,5.781-15.619,11.578-29.509,16.038-38.427,8.1461-16.29,14.649-24.652,21.764-27.986,1.9885-0.93186,3.0628-1.1353,5.5484-1.0506,1.7525,0.0597,2.2527,0.13404,3.0965,0.46038,4.1904,1.6206,7.0858,4.009,11.313,9.3309,2.2246,2.8011,5.9411,9.1064,8.6693,14.708,8.9597,18.397,17.872,45.449,29.79,90.417,0.5642,2.1288,1.1669,4.3931,1.3394,5.0318,0.17246,0.63865,0.83565,3.112,1.4737,5.4963,0.63798,2.3843,1.4042,5.2408,1.7026,6.3478,0.29841,1.107,0.81006,3.023,1.137,4.2577,6.6182,24.991,13.229,46.145,18.821,60.227,7.2653,18.294,13.785,29.289,21.013,35.435,3.5769,3.0414,8.054,4.3304,11.88,3.4202,10.168-2.4192,20.573-19.115,31.112-49.925,5.0146-14.659,11.242-37.496,19.652-72.071,2.331-9.583,6.6696-26.835,9.0136-35.842,8.5989-33.041,16.594-58.418,23.635-75.012,4.6896-11.054,8.8192-18.578,13.234-24.112,3.2695-4.0986,6.0937-6.4175,9.579-7.8655,1.6543-0.6873,2.9458-0.90974,4.6434-0.79974,1.9927,0.1291,3.2624,0.49957,5.26,1.5347,7.5422,3.9084,15.295,15.278,23.92,35.076,1.4698,3.3741,4.0692,9.6779,4.9949,12.113,0.33991,0.89412,0.99974,2.601,1.4664,3.7932,3.4502,8.8145,11.82,33.223,16.617,48.46,0.72386,2.2991,1.6898,5.3298,2.1464,6.7348,0.45667,1.405,1.6424,5.1324,2.635,8.2831,6.4281,20.405,9.9459,31.214,13.478,41.415,6.9158,19.973,12.394,32.791,18.46,43.196,3.9953,6.8528,8.3814,12.281,12.981,16.066,0.43753,0.36008,0.83307,0.65467,0.87888,0.65467,0.0459,0,0.62829,0.36185,1.2945,0.8041,1.6123,1.0703,2.6585,1.5814,4.523,2.2092,2.231,0.75135,3.4836,0.91544,6.1702,0.80832,3.0869-0.1231,3.9904-0.36274,7.3944-1.9615,3.4471-1.619,5.346-3.0273,9.5015-7.0468,1.6216-1.5686,3.3687-3.5341,5.5819-6.2799,4.148-5.1462,8.7354-12.321,14.644-22.904,2.6237-4.6997,8.744-16.714,14.512-28.488,7.1007-14.494,13.119-26.305,16.684-32.745,5.7599-10.404,10.802-18.604,15.423-25.082,0.30371-0.42577,0.87501-1.227,1.2695-1.7805,4.2868-6.0141,10.133-12.7,15.209-17.393,5.3421-4.9393,10.061-8.2747,15.551-10.993,4.4469-2.2015,4.2393-2.1189,9.9861-3.969,0.55347-0.17817,1.8773-0.49395,2.9417-0.70172,1.0644-0.20778,2.2488-0.44625,2.632-0.52996,5.1281-1.1202,15.767-1.0162,22.295,0.21802,1.0644,0.20124,2.2836,0.41052,2.7094,0.46511,0.42579,0.0547,1.6798,0.32896,2.7868,0.60976,1.107,0.28078,2.3959,0.59616,2.8642,0.70084,0.46836,0.10466,1.618,0.43253,2.5546,0.7286,0.93673,0.29606,2.2138,0.67516,2.838,0.84243,0.62422,0.16727,2.0524,0.65673,3.1739,1.0877,1.1215,0.43095,2.5964,0.97734,3.2776,1.2142,0.68122,0.23686,2.1443,0.8479,3.2513,1.3579,1.107,0.50997,2.1869,0.97994,2.3998,1.0443,0.21286,0.0645,1.2928,0.57415,2.3998,1.1328,1.107,0.55863,2.7094,1.3633,3.5609,1.7883,0.85156,0.42492,2.454,1.3077,3.561,1.9617,1.107,0.65405,2.7094,1.5995,3.561,2.101,0.85148,0.50147,2.4539,1.5338,3.5609,2.294,1.107,0.76023,2.7791,1.9026,3.7158,2.5386,1.4727,0.9999,4.5622,3.3651,7.5218,5.7584,0.47533,0.38442,1.2069,0.97551,1.6256,1.3135,5.0292,4.0597,13.917,12.855,20.977,20.759,2.5596,2.8655,11.418,13.427,13.498,16.094,0.3986,0.51092,1.847,2.3224,3.2188,4.0254,2.3866,2.9629,2.8469,3.5457,4.3569,5.5162,0.3674,0.47931,1.7317,2.1862,3.0318,3.7932s2.9026,3.5909,3.5609,4.4089c7.9823,9.9164,16.067,18.62,21.418,23.059,6.6161,5.4877,13.296,9.0531,18.407,9.8252,3.7952,0.57332,6.385,0.54715,9.5991-0.0969,2.6337-0.5278,6.8642-2.4119,9.6379-4.2925,0.9595-0.65057,1.1998-0.89101,1.1998-1.2004"
       style="opacity:0.7;fill:#ffffff;"
       id="path35" />
    <path
       d="m1068.1,326.91c-1.1935-0.0803-1.9532-0.23726-3.1498-0.61447-0.7276-0.24594-1.4587-0.44507-1.6257-0.44511-0.351,0-3.1515-1.0637-4.514-1.7127-0.511-0.24346-1.2425-0.57328-1.6257-0.73541-0.3832-0.16216-1.1703-0.58589-1.7466-0.93863-0.5762-0.35269-1.106-0.63866-1.1757-0.63866-0.1551,0-3.3936-2.1099-4.3544-2.8352-0.3832-0.28932-1.0799-0.79198-1.5483-1.1176-5.114-3.5562-14.558-12.896-22.3-22.058-4.0009-4.7352-11.236-13.67-14.534-17.945-0.6306-0.81752-1.8151-2.2982-2.632-3.29s-1.9382-2.3853-2.4917-3.0965c-1.1331-1.4559-3.4693-4.2911-5.7043-6.9332-0.82438-0.97468-1.9208-2.3006-2.4384-2.9465-0.51766-0.6459-1.3586-1.6263-1.8676-2.1772-0.50907-0.55089-1.3659-1.524-1.9063-2.1627-3.155-3.7288-10.316-11.152-13.629-14.128-1.0644-0.95585-2.7713-2.5095-3.7932-3.4497-4.9602-4.5636-12.968-10.319-20.437-14.694-3.1028-1.8177-7.9429-4.2673-8.4331-4.2674-0.092,0-0.77582-0.30454-1.5192-0.67735-0.74339-0.37275-2.0429-0.97116-2.8884-1.3305-2.0345-0.86466-9.2416-3.3303-10.228-3.498-0.25551-0.0435-1.4747-0.35207-2.7094-0.68705-1.2347-0.33488-2.7326-0.68324-3.3287-0.77412-0.59604-0.0908-1.7456-0.30218-2.5546-0.4693-4.4423-0.91769-12.773-1.3309-17.495-0.86606-4.632,0.45607-9.6859,1.5541-13.083,2.8401-0.34061,0.12895-1.0721,0.4004-1.6256,0.60477-1.8576,0.68595-6.5916,3.0191-7.509,3.7013-0.2555,0.18994-0.81278,0.52998-1.2386,0.75476-0.79733,0.42099-2.317,1.4225-3.4061,2.245-0.34061,0.25724-1.0373,0.78207-1.5483,1.166-1.7685,1.3289-3.5933,2.8478-5.0172,4.1802-2.6073,2.4396-6.6887,6.803-8.9944,9.6088-0.4683,0.56997-1.0673,1.29-1.3305,1.6015-0.47766,0.56531-3.1621,4.0907-3.6722,4.8237-0.14816,0.21289-0.61601,0.87476-1.0402,1.4708-1.3462,1.8916-5.3048,7.8799-6.6526,10.064-0.36782,0.59607-0.90035,1.446-1.1854,1.8918-0.28497,0.44575-0.51761,0.85273-0.51767,0.90475,0,0.052-0.13925,0.29289-0.30966,0.5322-0.1704,0.23939-0.55359,0.85998-0.85155,1.3789-0.29783,0.51891-0.7974,1.3789-1.108,1.9111-1.3136,2.2513-5.2973,9.4244-6.5994,11.883-0.33822,0.63864-0.66829,1.2309-0.73059,1.316-0.062,0.0851-0.79229,1.4786-1.6256,3.0965-0.83326,1.618-1.5642,3.0114-1.6256,3.0965s-0.6931,1.2696-1.3983,2.632c-0.70513,1.3625-1.7317,3.3481-2.2836,4.4125-0.55185,1.0644-1.8697,3.6074-2.9271,5.6511-1.0575,2.0437-1.9829,3.823-2.0562,3.9577-0.0733,0.13461-0.92891,1.7718-1.9063,3.6384-15.886,30.337-26.952,47.262-37.656,57.58-3.2127,3.0971-4.4986,4.1628-7.1993,5.9752-4.7792,3.2072-8.8246,4.6252-13.266,4.6496-3.0742,0.0168-5.6476-0.58802-8.5637-2.003-3.2213-1.5631-5.6424-3.3607-8.9895-6.6816-4.688-4.6513-8.733-10.187-13.199-18.061-9.5676-16.869-18.101-39.37-28.822-75.994-0.39883-1.3624-0.85615-2.8952-1.016-3.4061-0.15993-0.51087-1.1352-3.8203-2.1676-7.3541-1.0323-3.5339-2.2126-7.5399-2.6223-8.9024-0.40963-1.3624-1.2123-4.0448-1.7805-5.9607s-1.2317-4.1105-1.4757-4.877c-0.24394-0.76637-0.76878-2.4733-1.166-3.7932-4.1173-13.681-9.8538-30.215-14.258-41.082-2.8921-7.1357-7.2485-16.27-9.9765-20.921-4.6479-7.9232-9.0477-13.123-13.267-15.676-1.9748-1.1952-2.9113-1.5537-5.114-1.9788-0.7806-0.15062-1.2148-0.21341-1.7176-0.19837-0.30157,0.01-0.62758,0.0456-1.0693,0.10644-2.7244,0.37578-4.0058,0.89247-6.6768,2.6901-2.0705,1.3935-5.0853,4.59-7.4218,7.867-4.3902,6.1571-9.6774,17.14-14.22,29.547-5.1812,14.153-10.303,31.668-16.281,55.669-1.796,7.2114-2.4583,9.9163-5.4479,22.295-3.9981,16.555-8.3628,33.775-10.833,42.731-7.2029,26.119-15.441,49.964-23.374,67.658-5.2572,11.727-10.13,20.406-14.568,25.933-3.9654,4.9387-6.6745,7.1065-10.528,8.4234-1.5811,0.54027-2.7101,0.62736-4.519,0.34836-4.6311-0.71432-9.2086-4.4809-14.578-11.984-5.6067-7.8356-13.108-22.984-19.987-40.37-4.1851-10.579-5.7553-14.915-10.131-27.946-5.1889-15.451-8.6422-26.921-15.729-52.253-2.6845-9.5957-6.0888-21.616-6.6622-23.533-0.20374-0.68122-0.9658-3.259-1.6983-5.7285-5.7643-19.434-10.844-33.278-16.106-43.893-3.4599-6.9792-6.7327-11.965-10.33-15.739-1.7348-1.8203-3.2873-3.0009-5.3172-4.0399-2.3123-1.1836-3.2832-1.4321-5.5688-1.4321-1.7202,0-2.0743,0.0506-3.4303,0.48383-1.8822,0.60137-2.525,0.92304-4.3738,2.2014-4.2661,2.9498-8.5697,8.3987-13.286,16.823-1.5994,2.8567-4.8671,9.5123-6.2317,12.696-0.23729,0.55354-0.68135,1.5986-0.99185,2.3224-0.68897,1.606-2.448,5.8739-3.0288,7.3542-3.9143,9.9779-6.8018,18.111-13.518,38.087-7.3645,21.904-9.8039,28.79-13.963,39.403-3.692,9.4202-6.3444,15.477-10.068,22.991-5.2449,10.583-9.3365,17.23-14.641,23.78-2.7815,3.4347-7.2447,7.6132-10.044,9.4056-2.4896,1.594-5.6209,2.8484-8.5928,3.44-1.4494,0.28847-2.0029,0.32425-3.7158,0.24191-3.4637-0.16646-6.2621-0.9657-9.8652-2.8255-6.5662-3.3892-14.35-10.69-23.112-21.671-0.76638-0.96043-1.6024-2.0045-1.8579-2.3224-1.2464-1.5508-8.3216-10.838-9.3668-12.294-0.47489-0.66163-2.2475-2.9977-5.7382-7.5767-2.0608-2.7034-4.7228-6.0615-5.951-7.4993-0.51088-0.59807-1.5407-1.8151-2.2885-2.7094-3.1728-3.7944-8.5758-9.0783-11.684-11.423-1.6146-1.2179-5.3167-3.4265-6.851-4.0883-0.7238-0.31218-2.2914-0.8375-3.4836-1.166-2.1386-0.58936-2.2047-0.59527-4.9544-0.59995-3.301-0.006-4.8863,0.24001-7.4316,1.1612-4.129,1.4944-9.0895,4.6134-13.17,8.2782-4.1111,3.6927-9.3569,9.0787-13.794,14.166-12.734,14.602-17.333,19.518-22.793,24.356-7.0549,6.2516-13.039,9.8843-18.753,11.384-6.6722,1.7517-12.855,0.92937-19.261-2.5643-4.0486-2.208-6.9642-4.4774-11.394-8.8685-4.2283-4.1913-8.2321-8.9684-12.067-14.399-0.63139-0.89412-1.4051-1.974-1.7176-2.3998-1.2405-1.6902-5.9268-8.8322-8.1767-12.463-2.0714-3.343-5.6809-9.2788-10.402-17.108-3.8541-6.391-8.0597-13.023-10.117-15.947-0.77873-1.107-1.6969-2.4214-2.0369-2.9223-0.55586-0.81895-2.4236-3.2173-4.6592-5.9801-1.0182-1.2584-4.7354-5.0304-6.1881-6.28-4.23-3.6388-8.1532-5.2881-12.715-5.3463-1.2896-0.0164-4.3816,0.48514-4.7657,0.77412-0.08627,0.065-0.57279,0.28134-1.0838,0.47898-1.1476,0.444-1.9283,0.90856-4.5093,2.6998-1.0349,0.71826-4.769,4.4003-5.8204,5.7382-0.66829,0.85041-2.3737,3.0847-3.3674,4.4125-0.387,0.5172-1.2995,1.8973-2.8159,4.2576-4.3458,6.7649-10.445,18.85-18.09,35.842-1.5134,3.3636-3.4594,7.6717-4.3205,9.5749-0.86112,1.9032-1.5628,3.4842-1.5628,3.5126,0,0.0285-0.54849,1.2591-1.2193,2.7336-3.5546,7.8147-5.0934,11.2-5.7527,12.667-0.7503,1.6694-4.5897,9.8896-6.0381,12.928-0.44658,0.9367-2.1646,4.4558-3.8174,7.8186-1.9753,4.0189-2.9908,6.2473-2.9611,6.5026,0.02843,0.24378,0.77756-1.1019,2.0079-3.5319v9.1927c-1.2294,2.5189-2.0376,4.2495-2.0369,4.3883,0,0.35936,0.04523,0.32687,0.40639-0.29514,0.56296-0.96984,8.261-16.295,10.499-20.901,2.7483-5.6561,4.2963-8.8748,5.8882-12.231,0.78758-1.6604,2.9515-6.1891,4.8044-10.064,1.8529-3.8745,4.0817-8.5424,4.9544-10.373,1.8884-3.9618,7.2861-14.824,8.8879-17.882,9.5457-18.227,16.788-27.738,24.09-31.652,2.0192-1.0824,4.8623-1.8552,6.8509-1.8627,1.2155-0.004,3.8708,0.42366,4.8382,0.7838,4.3691,1.6264,9.2898,5.4548,13.61,10.586,5.7504,6.83,9.0258,11.554,21.119,30.428,4.1575,6.4886,11.533,17.349,13.455,19.817,0.23204,0.29791,0.85904,1.1241,1.3934,1.8385,1.4862,1.9871,1.5196,2.0312,2.5255,3.2707,0.51837,0.63864,1.3653,1.6837,1.8821,2.3224,4.0943,5.06,10.803,11.633,14.384,14.089,0.18623,0.12777,0.86576,0.5967,1.5095,1.0402,1.1473,0.79044,2.5855,1.6454,4.2819,2.5498,0.79475,0.42364,1.1458,0.5772,3.1739,1.3934,3.5502,1.4286,7.7825,2.0316,11.83,1.6837,9.0798-0.78057,18.712-6.5967,30.515-18.424,3.2332-3.2397,7.3271-7.5282,11.457-12.009,6.8758-7.4592,8.603-9.2745,12.367-12.962,2.234-2.1886,4.7166-4.5051,5.5205-5.1479,3.7514-2.9996,4.4638-3.5209,6.4204-4.7608,5.2711-3.3406,10.282-4.923,14.931-4.7125,2.3068,0.10445,4.9852,0.66015,6.7397,1.4031,0.72122,0.3054,1.3855,0.5564,1.4756,0.5564,0.35786,0,4.5894,2.4799,6.193,3.6287,2.2385,1.6037,3.8537,2.9566,6.5607,5.5011,2.0391,1.9167,6.4389,6.5327,7.6444,8.017,0.27477,0.33827,1.3044,1.5491,2.2836,2.6901,2.8385,3.3071,4.8775,5.8094,10.857,13.32,11.833,14.862,19.506,23.12,25.836,27.815,2.6212,1.944,3.1833,2.3169,5.1092,3.3868,5.3783,2.9878,9.8415,4.0224,14.645,3.3916,3.254-0.42729,5.5748-1.2743,8.9943-3.2803,4.2457-2.4908,9.276-7.4036,13.852-13.533,1.2791-1.7133,4.1539-5.9156,4.9254-7.1993,0.20471-0.34059,0.64664-1.0721,0.98214-1.6256,7.4597-12.305,14.73-28.394,22.256-49.263,2.1343-5.9185,10.776-31.396,14.931-44.018,0.206-0.62569,1.5076-4.3413,3.0626-8.7476,0.77634-2.1999,2.2214-6.0939,3.3336-8.9798,1.3888-3.6036,1.7987-4.6397,2.7384-6.8897,2.8057-6.7179,4.7446-10.902,7.0929-15.328,3.26-6.1437,6.1766-10.441,9.512-14.012,2.8907-3.0946,5.5027-4.8932,8.3653-5.7527,1.2071-0.3624,1.7617-0.44029,3.0578-0.44029,1.8902,0,2.9978,0.29619,5.1818,1.3934,1.8904,0.94974,3.0376,1.8067,4.7802,3.5609,7.7804,7.8324,15.008,23.212,23.214,49.389,2.417,7.7102,4.5168,14.891,9.3185,31.894,10.893,38.571,17.471,58.791,26.47,81.36,8.9055,22.335,17.084,38.394,24.124,47.376,4.3853,5.5951,8.4951,8.6531,12.575,9.3524,0.95022,0.16287,3.285,0.0415,4.3834-0.22739,1.1673-0.28585,3.9197-1.7086,5.2399-2.7046,1.3528-1.0206,3.8285-3.5009,5.2834-5.2979,3.5641-4.4021,7.6192-11.071,11.646-19.159,10.709-21.512,21.366-51.54,30.418-85.695,1.4341-5.4114,5.7315-22.537,7.03-28.023,5.5-23.236,8.2797-34.659,10.726-44.047,8.3673-32.109,16.443-53.883,24.617-66.391,1.749-2.6761,2.4741-3.6424,4.2141-5.6027,1.7765-2.0013,2.4623-2.6287,4.3254-3.9577,1.8933-1.3505,2.711-1.7571,4.6592-2.3175,1.3097-0.37674,1.6384-0.41205,3.2513-0.34836,1.527,0.0602,1.9795,0.14183,3.0336,0.54672,0.68129,0.26172,1.39,0.52144,1.5773,0.57576,0.1872,0.0542,1.1278,0.62434,2.0901,1.2676,10.2,6.8184,20.742,27.648,32.503,64.228,0.76671,2.3844,1.6265,5.1015,1.9111,6.0382,0.28465,0.93669,0.87275,2.8701,1.3063,4.2964,1.2018,3.9535,2.2478,7.4425,2.7965,9.3282,0.27256,0.93671,0.62235,2.1211,0.77892,2.632,0.31528,1.0285,1.1509,3.9096,3.2513,11.225,7.236,25.201,11.18,37.935,15.574,50.274,7.8937,22.165,16.513,39.474,25.048,50.284,1.5581,1.9736,1.6255,2.0538,2.5643,3.0916,5.8826,6.5036,10.754,9.7916,16.653,11.244,1.8492,0.45526,5.7598,0.50017,7.9638,0.0919,5.6877-1.0536,11.858-4.857,18.269-11.259,3.1743-3.1694,6.6843-7.1891,9.0717-10.388,0.16608-0.22251,0.89692-1.1979,1.6256-2.1675,4.074-5.4208,8.7068-12.456,13.436-20.417,5.2094-8.7703,9.7112-17.053,17.979-33.055,1.5192-2.9403,2.9104-5.6335,5.2736-10.218,0.79017-1.5328,1.817-3.5183,2.2837-4.4125,0.46668-0.89411,1.3401-2.5662,1.9401-3.7158,2.0922-4.0086,6.9671-12.826,8.675-15.69,0.39766-0.66698,0.72573-1.2335,0.72567-1.2628,0-0.0292,0.35566-0.63628,0.79352-1.345,0.43793-0.70879,0.97789-1.5805,1.1998-1.9402,0.22204-0.35967,0.74171-1.211,1.1515-1.8918,0.72264-1.2003,2.4425-3.8722,2.9949-4.6496,0.14946-0.21043,0.69866-1.0116,1.2192-1.7805,1.8039-2.6644,1.4996-2.2468,6.1106-8.3702,2.4718-3.2824,9.5695-10.759,11.999-12.638,0.42579-0.32928,1.1922-0.94453,1.703-1.3692,1.3909-1.1561,5.0142-3.7285,6.4349-4.5673,2.0341-1.201,4.5133-2.4838,7.0348-3.6432,2.5534-1.1741,7.4218-2.6207,11.147-3.3142,3.6528-0.67992,4.8748-0.77895,9.7539-0.77897,6.2026-0.00001,9.9394,0.4072,15.637,1.6982,1.2773,0.28946,2.5662,0.56919,2.8642,0.62414,0.29809,0.055,1.5173,0.40002,2.7094,0.76445,1.1922,0.36443,2.481,0.74535,2.8642,0.8467,0.3832,0.10128,1.9509,0.66285,3.4836,1.2482,1.5328,0.58538,3.2984,1.2496,3.9287,1.4805,1.6663,0.61032,10.749,5.1348,13.102,6.5268,3.805,2.2506,11.049,7.2375,12.855,8.8492,0.34486,0.3077,1.1809,1.0245,1.8579,1.5918,7.3345,6.1459,10.191,8.9023,18.971,18.308,0.64406,0.69003,1.5109,1.6711,1.9304,2.182,0.41957,0.51094,1.2916,1.5212,1.9353,2.245,0.64367,0.72381,1.4767,1.6992,1.853,2.1675,0.37641,0.4684,1.1091,1.3392,1.6257,1.9353,0.51663,0.59607,1.3503,1.6063,1.853,2.245,0.5028,0.63865,1.2751,1.5792,1.7176,2.0901,0.4424,0.51094,1.1788,1.4212,1.6353,2.0224,0.4567,0.6012,1.3666,1.7508,2.0225,2.5546,1.8669,2.2884,4.8969,6.1025,6.0719,7.6444,0.5885,0.77215,1.6703,2.1346,2.4046,3.0287,0.7344,0.89417,2.7154,3.3563,4.4029,5.4721,6.1259,7.6803,11.515,13.794,17.219,19.532,4.0337,4.0575,6.8196,6.542,10.102,9.0137,0.5404,0.40696,1.4114,1.0771,1.9353,1.4902,0.5239,0.41309,1.1621,0.86107,1.4176,0.99183,0.2554,0.13085,0.7083,0.42048,1.0063,0.64833,1.2534,0.9582,3.7392,2.3224,7.8186,4.2867,0.8345,0.40183,2.5787,1.0175,3.9481,1.3934,0.4683,0.12862,1.2347,0.34497,1.703,0.47899,1.5211,0.53991,3.1209,0.65765,4.7221,0.65801,2.2859-0.0349,10.866-1.1636,12.68-1.7708,1.8143-0.60721,3.7302-1.5816,5.1247-2.5352,0.8517-0.58245,1.092-0.832,1.1321-1.1757l0.053-0.44029-0.9822,0.68703c-2.2687,1.5314-4.9363,3.0127-7.3493,3.4274-2.4132,0.41476-9.3413,1.1986-11.588,1.1689z"
       style="opacity:0.7;enable-background:accumulate;fill-rule:nonzero;color:#000000;fill:#ffffff;"
       id="path37" />
  </g>
  <image
     sodipodi:absref="/home/max/fablab/git/presentations/img/./zahnraeder2b.png"
     xlink:href="./zahnraeder2b.png"
     width="257.23"
     transform="matrix(0.98963801,-0.14358486,0.14358486,0.98963801,0,0)"
     height="149.99"
     y="163.43"
     x="341.78"
     id="image39" />
  <image
     sodipodi:absref="/home/max/fablab/git/presentations/img/./3d-turm.png"
     xlink:href="./3d-turm.png"
     width="137.65"
     transform="scale(-1,1)"
     height="168.15"
     y="82.566"
     x="-262.05"
     id="image41" />
  <image
     sodipodi:absref="/home/max/fablab/git/presentations/img/./platine.png"
     xlink:href="./platine.png"
     width="122.67"
     transform="matrix(0.81536807,0.57894293,-0.57894293,0.81536807,0,0)"
     height="158.53"
     y="-466.53"
     x="722.1"
     id="image43" />
  <text
     xml:space="preserve"
     style="font-size:8.26334381px;font-style:normal;font-variant:normal;font-weight:normal;font-stretch:normal;text-align:start;line-height:125%;letter-spacing:0px;word-spacing:0px;text-anchor:start;fill:#e6e6e6;fill-opacity:1;stroke:none;font-family:Verdana;-inkscape-font-specification:Verdana"
     x="8.2144976"
     y="294.79004"
     id="text3070"
     sodipodi:linespacing="125%"><tspan
       sodipodi:role="line"
       id="tspan3072"
       x="8.2144976"
       y="294.79004">Bilder: jabella flickr.com CC-BY 2.0, FAU FabLab, dschanoeh flickr.com CC-BY-SA-NC 2.0</tspan></text>
</svg>
