<?xml version="1.0" encoding="UTF-8" standalone="no"?>
<svg
   xmlns:dc="http://purl.org/dc/elements/1.1/"
   xmlns:cc="http://creativecommons.org/ns#"
   xmlns:rdf="http://www.w3.org/1999/02/22-rdf-syntax-ns#"
   xmlns:svg="http://www.w3.org/2000/svg"
   xmlns="http://www.w3.org/2000/svg"
   xmlns:sodipodi="http://sodipodi.sourceforge.net/DTD/sodipodi-0.dtd"
   xmlns:inkscape="http://www.inkscape.org/namespaces/inkscape"
   viewBox="0 0 500 500"
   height="500"
   width="500"
   version="1.1"
   id="svg2"
   inkscape:version="0.91 r13725"
   sodipodi:docname="qrcode_website.svg">
  <sodipodi:namedview
     pagecolor="#ffffff"
     bordercolor="#666666"
     borderopacity="1"
     objecttolerance="10"
     gridtolerance="10"
     guidetolerance="10"
     inkscape:pageopacity="0"
     inkscape:pageshadow="2"
     inkscape:window-width="1916"
     inkscape:window-height="1041"
     id="namedview6"
     showgrid="false"
     inkscape:zoom="1.3350176"
     inkscape:cx="223.78247"
     inkscape:cy="256.0608"
     inkscape:window-x="0"
     inkscape:window-y="18"
     inkscape:window-maximized="0"
     inkscape:current-layer="svg2"
     fit-margin-top="0"
     fit-margin-left="0"
     fit-margin-right="0"
     fit-margin-bottom="0" />
  <metadata
     id="metadata8">
    <rdf:RDF>
      <cc:Work
         rdf:about="">
        <dc:format>image/svg+xml</dc:format>
        <dc:type
           rdf:resource="http://purl.org/dc/dcmitype/StillImage" />
        <dc:title></dc:title>
      </cc:Work>
    </rdf:RDF>
  </metadata>
  <defs
     id="defs6" />
  <g
     id="g4136"
     transform="scale(0.5,0.5)">
    <rect
       y="-1.563194e-13"
       x="0"
       height="1000"
       width="1000"
       id="rect4134"
       style="opacity:1;fill:#ffffff;fill-opacity:1;stroke:none;stroke-width:1;stroke-miterlimit:4;stroke-dasharray:none;stroke-dashoffset:0;stroke-opacity:1" />
    <path
       style="fill-opacity:1"
       d="m 49.999999,49.999985 c 0,72.300125 0,144.600255 0,216.900385 72.299481,0 144.598961,0 216.898441,0 0,-72.30013 0,-144.60026 0,-216.900385 -72.29948,0 -144.59896,0 -216.898441,0 z m 371.699221,0 0,15.30078 0,15.30078 -15.30078,0 -15.29883,0 0,15.29883 0,15.300785 31.04883,0 31.05078,0 0,-30.599615 0,-30.60156 -15.75,0 z m 31.5,61.201165 0,15.75 0,15.75 15.30078,0 15.29883,0 0,-15.75 0,-15.75 -15.29883,0 z m 0,31.5 -31.05078,0 -31.04883,0 c 0,10.19987 0,20.39974 0,30.59961 l 15.29883,0 15.30078,0 0,46.80078 0,46.79883 -15.30078,0 -15.29883,0 0,-15.75 0,-15.75 -15.75,0 -15.75,0 0,31.05078 0,31.04883 15.75,0 15.75,0 0,15.75 0,15.75 -15.75,0 -15.75,0 0,-15.75 0,-15.75 -15.30078,0 -15.29883,0 0,15.75 0,15.75 -15.75,0 -15.75,0 0,-15.75 0,-15.75 -31.05078,0 -31.05078,0 0,15.75 0,15.75 15.75,0 15.75,0 0,15.30078 0,15.30078 31.05078,0 31.05078,0 0,15.75 0,15.75 15.29883,0 15.30078,0 0,-15.75 0,-15.75 46.79883,0 46.80078,0 0,15.75 0,15.75 15.30078,0 15.29883,0 0,-31.05078 0,-31.05078 -31.04883,0 -31.05078,0 0,-15.75 0,-15.75 15.75,0 15.75,0 0,-31.04883 0,-31.05078 15.30078,0 15.29883,0 0,15.75 0,15.75 15.75,0 15.75,0 0,-15.75 0,-15.75 15.30078,0 15.29883,0 0,-31.04883 0,-31.05078 -31.04883,0 -31.05078,0 0,15.75 0,15.75 -15.29883,0 -15.30078,0 0,-31.05077 z m 92.69922,30.59961 31.05078,0 31.05078,0 c 0,-10.19987 0,-20.39974 0,-30.59961 l -15.30078,0 -15.30078,0 0,-15.75 0,-15.75 15.30078,0 15.30078,0 0,15.75 0,15.75 31.04883,0 31.05078,0 0,-31.05078 0,-31.048825 15.75,0 15.75,0 0,-15.30078 0,-15.30078 -31.05078,0 -31.04883,0 0,15.30078 0,15.30078 -15.75,0 -15.75,0 0,-15.30078 0,-15.30078 -62.10156,0 -62.09961,0 0,15.30078 0,15.30078 15.75,0 15.75,0 0,31.048825 0,31.05078 15.30078,0 15.29883,0 c 0,10.19987 0,20.39974 0,30.59961 z m 124.20117,-30.59961 c 0,10.19987 0,20.39974 0,30.59961 l 15.75,0 15.75,0 c 0,-10.19987 0,-20.39974 0,-30.59961 l -15.75,0 z m 0,30.59961 -31.05078,0 -31.04883,0 0,15.75 0,15.75 31.04883,0 31.05078,0 0,-15.75 z m 0,31.5 0,31.05078 0,31.04883 -15.30078,0 -15.29883,0 0,-15.75 0,-15.75 -15.75,0 -15.75,0 0,15.75 0,15.75 -15.30078,0 -15.30078,0 0,-15.75 0,-15.75 -15.75,0 -15.75,0 0,15.75 0,15.75 -15.29883,0 -15.30078,0 0,62.09961 0,62.10156 15.30078,0 15.29883,0 0,-46.80078 0,-46.80078 46.80078,0 46.80078,0 0,15.75 0,15.75 15.29883,0 15.30078,0 0,-15.75 0,-15.75 15.75,0 15.75,0 0,-46.34961 0,-46.34961 -15.75,0 z M 639.5,328.99998 l -15.75,0 -15.75,0 0,15.30078 0,15.30078 15.75,0 15.75,0 0,-15.30078 z m 0,30.60156 0,15.75 0,15.75 -15.75,0 -15.75,0 0,15.29883 0,15.30078 31.04883,0 31.05078,0 0,15.75 0,15.75 31.04883,0 31.05078,0 c 0,10.19987 0,20.39974 0,30.59961 l 15.75001,0 15.75,0 0,-31.05078 0,-31.04883 -31.05079,0 -31.04883,0 0,-15.30078 0,-15.29883 31.04883,0 31.05079,0 0,-15.75 0,-15.75 -62.09962,0 z m 124.19923,124.19922 0,15.75 0,15.75 15.30078,0 15.29882,0 0,-15.75 0,-15.75 -15.29882,0 z m 30.5996,0 15.75,0 15.75,0 c 0,-10.19987 0,-20.39974 0,-30.59961 l -15.75,0 -15.75,0 c 0,10.19987 0,20.39974 0,30.59961 z m 31.5,-30.59961 c 10.19987,0 20.39974,0 30.59961,0 l 0,-15.75 0,-15.75 c -10.19987,0 -20.39974,0 -30.59961,0 l 0,15.75 z m 0,-31.5 0,-46.34961 0,-46.35156 -15.75,0 -15.75,0 0,46.35156 0,46.34961 15.75,0 z m 0,-92.70117 c 10.19987,0 20.39974,0 30.59961,0 l 0,15.30078 0,15.30078 31.05079,0 31.05078,0 0,-15.30078 0,-15.30078 -15.30078,0 -15.30079,0 0,-15.75 0,-15.75 -31.04882,0 -31.05079,0 0,15.75 z m 30.59961,124.20117 c 0,10.19987 0,20.39974 0,30.59961 l 15.75,0 15.75,0 c 0,-10.19987 0,-20.39974 0,-30.59961 l -15.75,0 z m 31.5,0 15.30079,0 15.30078,0 0,-15.75 0,-15.75 -15.30078,0 -15.30079,0 0,15.75 z m 30.60157,-31.5 15.75,0 15.74999,0 0,-15.30078 0,-15.29883 -15.74999,0 -15.75,0 0,15.29883 z m 0,31.5 0,31.04883 0,31.05078 -31.05078,0 -31.05079,0 0,-15.75 0,-15.75 c -10.19987,0 -20.39974,0 -30.59961,0 l 0,15.75 0,15.75 -15.75,0 -15.75,0 0,15.30078 0,15.29883 15.75,0 15.75,0 0,15.75 0,15.75 -15.75,0 -15.75,0 c 0,30.90039 0,61.80078 0,92.70117 l -15.29882,0 -15.30078,0 0,-15.30078 0,-15.30078 -31.05079,0 -31.04883,0 0,15.30078 0,15.30078 -15.75,0 -15.75,0 0,-31.05078 0,-31.05078 -15.30078,0 -15.29883,0 0,46.80078 0,46.80078 15.29883,0 15.30078,0 0,15.29883 0,15.30078 -62.09961,0 -62.10156,0 0,15.75 0,15.75 -15.29883,0 -15.30078,0 0,15.29883 0,15.30078 31.05078,0 31.04883,0 0,-15.30078 0,-15.29883 31.05078,0 31.05078,0 0,31.04883 0,31.05078 62.09961,0 62.09962,0 0,31.05078 0,31.04883 15.30078,0 15.29882,0 0,15.30084 0,15.2988 -15.29882,0 -15.30078,0 0,15.75 0,15.75 31.05078,0 31.04882,0 0,-15.75 0,-15.75 31.05079,0 31.04882,0 0,-15.2988 0,-15.30084 15.30079,0 15.30078,0 0,15.30084 0,15.2988 15.75,0 15.74999,0 0,-31.04886 0,-31.05078 -15.74999,0 -15.75,0 c 0,-10.19987 0,-20.39974 0,-30.59961 l -31.05078,0 -31.05079,0 c 0,10.19987 0,20.39974 0,30.59961 l -31.04882,0 -31.05079,0 c 0,-10.19987 0,-20.39974 0,-30.59961 l 15.75,0 15.75,0 0,-15.75 0,-15.75 c 10.19987,0 20.39974,0 30.59961,0 l 0,-15.30078 0,-15.29883 c -10.19987,0 -20.39974,0 -30.59961,0 l 0,-15.75 0,-15.75 c 10.19987,0 20.39974,0 30.59961,0 l 0,15.75 0,15.75 15.75,0 15.75,0 0,-46.80078 0,-46.79883 15.30079,0 15.30078,0 0,-15.30078 0,-15.30078 -31.05078,0 -31.05079,0 0,15.30078 0,15.30078 c -10.19987,0 -20.39974,0 -30.59961,0 l 0,-15.30078 0,-15.30078 c 10.19987,0 20.39974,0 30.59961,0 0,-10.5 0,-21 0,-31.5 l 15.75,0 15.75,0 0,-15.29883 0,-15.30078 -15.75,0 -15.75,0 0,-15.75 0,-15.75 15.75,0 15.75,0 0,15.75 0,15.75 15.30079,0 15.30078,0 0,-15.75 0,-15.75 15.75,0 15.74999,0 0,-46.34961 0,-46.34961 -15.74999,0 z m 0,186.29883 15.75,0 15.74999,0 c 0,-10.5 0,-21 0,-31.5 l -15.74999,0 -15.75,0 c 0,10.5 0,21 0,31.5 z m 0,30.60156 0,15.75 0,15.75 15.75,0 15.74999,0 0,-15.75 0,-15.75 -15.74999,0 z m -154.80078,248.39847 0,-15.2988 0,-15.30084 -15.75,0 -15.75001,0 0,-15.75 0,-15.75 -31.05078,0 -31.04883,0 0,15.75 0,15.75 15.75,0 15.75,0 0,15.30084 0,15.2988 -31.05078,0 -31.04883,0 0,15.75 0,15.75 46.34961,0 46.34961,0 0,-15.75 0,-15.75 15.75001,0 z M 639.5,825.80076 l -62.10156,0 -62.09961,0 c 0,10.19987 0,20.39974 0,30.59961 l 15.30078,0 15.29883,0 0,15.75 0,15.75 15.75,0 15.75,0 0,-15.75 0,-15.75 15.30078,0 15.30078,0 0,15.75 0,15.75 15.75,0 15.75,0 0,-31.04883 z m -31.5,62.09961 -15.30078,0 -15.30078,0 0,15.30084 0,15.2988 15.30078,0 15.30078,0 0,-15.2988 z m -30.60156,30.59964 -15.75,0 -15.75,0 0,15.75 0,15.75 15.75,0 15.75,0 0,-15.75 z m -62.09961,-62.09964 -15.75,0 -15.75,0 0,46.80084 0,46.7988 15.75,0 15.75,0 0,-46.7988 z m 30.59961,-124.19922 0,-15.30078 0,-15.29883 15.75,0 15.75,0 0,-31.05078 0,-31.05078 -15.75,0 -15.75,0 0,-31.04883 0,-31.05078 -15.29883,0 -15.30078,0 0,15.30078 0,15.29883 -15.75,0 -15.75,0 0,-15.29883 0,-15.30078 -15.29883,0 -15.30078,0 0,31.05078 0,31.04883 15.30078,0 15.29883,0 0,31.05078 0,31.05078 15.75,0 15.75,0 0,15.29883 0,15.30078 15.30078,0 z m -92.69922,-92.70117 -15.75,0 -15.75,0 0,-31.04883 0,-31.05078 15.75,0 15.75,0 0,-15.75 0,-15.75 -15.75,0 -15.75,0 0,-15.29883 0,-15.30078 -15.30078,0 -15.29883,0 0,31.05078 0,31.04883 -15.75,0 -15.75,0 0,15.30078 0,15.29883 15.75,0 15.75,0 c 0,10.5 0,21 0,31.5 l -15.75,0 -15.75,0 0,15.30078 0,15.30078 15.75,0 15.75,0 0,31.04883 0,31.05078 15.29883,0 15.30078,0 0,46.79883 0,46.80078 31.05078,0 31.04883,0 0,-31.05078 0,-31.04883 -15.29883,0 -15.30078,0 0,-31.05078 0,-31.04883 -15.75,0 -15.75,0 0,-15.75 0,-15.75 15.75,0 15.75,0 0,-15.30078 z m -31.5,186.30078 -15.30078,0 -15.29883,0 c 0,10.19987 0,20.39974 0,30.59961 l 15.29883,0 15.30078,0 c 0,-10.19987 0,-20.39974 0,-30.59961 z m -30.59961,0 0,-15.75 0,-15.75 -15.75,0 -15.75,0 0,15.75 0,15.75 15.75,0 z m -31.5,-31.5 0,-15.30078 0,-15.29883 15.75,0 15.75,0 0,-15.75 0,-15.75 -15.75,0 -15.75,0 0,-15.30078 0,-15.29883 -15.30078,0 -15.29883,0 0,-15.75 0,-15.75 -62.10156,0 -62.09961,0 0,-15.30078 0,-15.30078 46.34961,0 46.35156,0 0,-31.04883 0,-31.05078 31.04883,0 31.05078,0 0,-31.04883 0,-31.05078 -15.30078,0 -15.29883,0 0,-15.75 0,-15.75 -15.75,0 -15.75,0 0,31.05078 0,31.04883 -31.05078,0 -31.05078,0 0,-15.29883 0,-15.30078 -15.29883,0 -15.30078,0 0,15.30078 0,15.29883 -31.04883,0 -31.05078,0 0,15.75 0,15.75 -31.05078,0 -31.048831,0 0,-15.75 0,-15.75 c -10.19987,0 -20.39974,0 -30.59961,0 0,51.90039 0,103.80078 0,155.70117 l 30.59961,0 30.599611,0 0,-31.05078 0,-31.05078 31.05078,0 31.04883,0 0,31.05078 0,31.05078 62.09961,0 62.10156,0 0,31.04883 0,31.05078 15.75,0 15.75,0 0,15.29883 0,15.30078 15.29883,0 z m -30.59961,0 -15.75,0 -15.75,0 0,31.05078 0,31.04883 15.75,0 15.75,0 0,-31.04883 z M 80.599609,545.90037 l 15.29883,0 15.300781,0 0,-15.29883 0,-15.30078 31.05078,0 31.04883,0 0,-15.75 0,-15.75 15.75,0 15.75,0 c 0,-10.19987 0,-20.39974 0,-30.59961 l -15.75,0 -15.75,0 0,-15.75 0,-15.75 c -10.19987,0 -20.39974,0 -30.59961,0 l 0,15.75 0,15.75 -15.75,0 -15.75,0 c 0,10.19987 0,20.39974 0,30.59961 l -15.300781,0 -15.29883,0 c 0,-10.19987 0,-20.39974 0,-30.59961 l 15.29883,0 15.300781,0 0,-31.05078 0,-31.04883 -15.300781,0 -15.29883,0 0,15.29883 0,15.30078 c -10.19987,0 -20.39974,0 -30.59961,0 0,31.19987 0,62.39974 0,93.59961 10.19987,0 20.39974,0 30.59961,0 l 0,15.30078 z m 30.599611,-154.79883 15.75,0 15.75,0 0,-15.75 0,-15.75 31.05078,0 31.04883,0 0,-31.05078 0,-31.05078 -31.04883,0 -31.05078,0 0,15.75 0,15.75 -31.05078,0 -31.048831,0 0,15.30078 0,15.30078 15.29883,0 15.300781,0 0,15.75 z m 62.09961,30.59961 31.05078,0 31.04883,0 0,-15.30078 0,-15.29883 -31.04883,0 -31.05078,0 0,15.29883 z m 62.09961,-30.59961 15.75,0 15.75,0 0,-15.75 0,-15.75 -15.75,0 -15.75,0 0,15.75 z m 31.5,0 0,15.29883 0,15.30078 15.30078,0 15.30078,0 0,-15.30078 0,-15.29883 -15.30078,0 z m 0,30.59961 -15.75,0 -15.75,0 0,15.75 0,15.75 15.75,0 15.75,0 0,-15.75 z m 0,31.5 c 0,10.19987 0,20.39974 0,30.59961 l 15.30078,0 15.30078,0 c 0,-10.19987 0,-20.39974 0,-30.59961 l -15.30078,0 z m 0,30.59961 -15.75,0 -15.75,0 0,15.75 0,15.75 15.75,0 15.75,0 0,-15.75 z m 92.70117,155.69922 c 0,-10.5 0,-21 0,-31.5 l -15.30078,0 -15.29883,0 c 0,10.5 0,21 0,31.5 l 15.29883,0 z m 62.09961,-124.19922 15.75,0 15.75,0 0,-15.75 0,-15.75 -15.75,0 -15.75,0 0,15.75 z m 62.09961,62.09961 15.75,0 15.75,0 0,-46.79883 0,-46.80078 -15.75,0 -15.75,0 0,46.80078 z m 31.5,-93.59961 46.34961,0 46.35156,0 0,15.75 0,15.75 -15.30078,0 -15.30078,0 0,15.30078 0,15.29883 -15.75,0 -15.75,0 0,15.75 0,15.75 31.05078,0 31.05078,0 0,-15.75 0,-15.75 31.04883,0 31.05078,0 0,-31.04883 0,-31.05078 -15.30078,0 -15.29883,0 c 0,-10.19987 0,-20.39974 0,-30.59961 l -15.75,0 -15.75,0 0,-15.75 0,-15.75 -46.35156,0 -46.34961,0 0,31.04883 z m 0,-62.09961 0,-15.30078 0,-15.29883 -15.75,0 -15.75,0 0,15.29883 0,15.30078 15.75,0 z m -31.5,0 -15.29883,0 -15.30078,0 0,15.75 0,15.75 15.30078,0 15.29883,0 0,-15.75 z m -30.59961,0 0,-15.30078 0,-15.29883 -46.80078,0 -46.79883,0 0,15.29883 0,15.30078 -15.30078,0 -15.29883,0 0,15.75 0,15.75 46.34961,0 46.34961,0 0,-15.75 0,-15.75 15.75,0 z m 216.90039,124.19922 0,15.75 0,15.75 15.75,0 15.75,0 0,-15.75 0,-15.75 -15.75,0 z M 608,391.10154 l 0,-15.75 0,-15.75 -15.30078,0 -15.30078,0 0,15.75 0,15.75 15.30078,0 z m -248.40039,-155.70117 0,-15.29883 0,-15.30078 15.75,0 15.75,0 0,-15.75 0,-15.75 -31.05078,0 -31.04883,0 0,31.05078 0,31.04883 15.29883,0 z m -30.59961,0 -15.75,0 -15.75,0 0,15.75 0,15.75 15.75,0 15.75,0 0,-15.75 z m 0,-62.09961 0,-31.05078 0,-31.04882 -15.75,0 -15.75,0 0,31.04882 0,31.05078 15.75,0 z m 62.09961,-30.5996 0,-15.75 0,-15.75 -15.75,0 -15.75,0 0,15.75 0,15.75 15.75,0 z M 732.19922,49.999985 c 0,72.300135 0,144.600265 0,216.900395 72.60026,0 145.20052,0 217.80078,0 0,-72.30013 0,-144.60026 0,-216.900395 -72.60026,0 -145.20052,0 -217.80078,0 z M 80.599609,80.601545 c 51.599611,0 103.199221,0 154.798831,0 0,51.599615 0,103.199225 0,154.798835 -51.59961,0 -103.19922,0 -154.798831,0 0,-51.59961 0,-103.19922 0,-154.798835 z m 683.099621,0 c 51.60026,0 103.20052,0 154.80078,0 0,51.599615 0,103.199225 0,154.798835 -51.60026,0 -103.20052,0 -154.80078,0 0,-51.59961 0,-103.19922 0,-154.798835 z M 111.19922,111.20116 c 0,31.19987 0,62.39974 0,93.59961 31.19987,0 62.39974,0 93.59961,0 0,-31.19987 0,-62.39974 0,-93.59961 -31.19987,0 -62.39974,0 -93.59961,0 z m 683.09961,0 c 0,31.19987 0,62.39974 0,93.59961 31.19987,0 62.39974,0 93.59961,0 0,-31.19987 0,-62.39974 0,-93.59961 -31.19987,0 -62.39974,0 -93.59961,0 z m -621,466.19922 15.75,0 15.75,0 0,15.30078 0,15.29883 -15.75,0 -15.75,0 0,-15.29883 z m 62.09961,0 15.75,0 15.75,0 0,15.30078 0,15.29883 -15.75,0 -15.75,0 0,-15.29883 z m 466.20117,124.20117 46.34962,0 46.3496,0 0,46.34961 0,46.34961 -46.3496,0 -46.34962,0 0,-46.34961 z M 49.999999,732.20116 c 0,72.59962 0,145.19924 0,217.79886 72.299481,0 144.598961,0 216.898441,0 0,-72.59962 0,-145.19924 0,-217.79886 -72.29948,0 -144.59896,0 -216.898441,0 z m 682.199221,0 0,15.75 0,15.75 15.75001,0 15.75,0 0,-15.75 0,-15.75 -15.75,0 z m -651.599611,31.5 c 51.599611,0 103.199221,0 154.798831,0 0,51.59962 0,103.19924 0,154.79886 -51.59961,0 -103.19922,0 -154.798831,0 0,-51.59962 0,-103.19924 0,-154.79886 z m 837.900401,0 0,15.29883 0,15.30078 15.75,0 15.74999,0 0,-15.30078 0,-15.29883 -15.74999,0 z m -807.30079,30.59961 c 0,31.19987 0,62.39974 0,93.59961 31.19987,0 62.39974,0 93.59961,0 0,-31.19987 0,-62.39974 0,-93.59961 -31.19987,0 -62.39974,0 -93.59961,0 z M 329,887.90037 l 0,31.05085 0,31.0488 15.29883,0 15.30078,0 0,-15.75 0,-15.75 15.75,0 15.75,0 0,-15.2988 0,-15.30084 -31.05078,0 z m 62.09961,30.59964 0,15.75 0,15.75 31.04883,0 31.05078,0 0,-31.0488 0,-31.05084 -15.75,0 -15.75,0 0,15.30084 0,15.2988 -15.30078,0 z"
       id="path4152"
       inkscape:connector-curvature="0" />
  </g>
</svg>
